# This file uses centimeters as units for non-parametric coordinates.

mtllib Lo.mtl
g default
v -0.185274 -0.040840 3.942070
v 0.231416 -0.040831 3.939473
v -0.158496 18.602415 3.921951
v 0.208459 18.602415 3.919646
v -0.208105 18.602396 -4.130099
v 0.154648 18.602177 -4.136406
v -0.235483 -0.040840 -4.158923
v 0.181206 -0.040840 -4.161539
vt 0.591573 0.002438
vt 0.606825 0.002438
vt 0.606825 0.703501
vt 0.591573 0.703501
vt 0.999501 0.307104
vt 0.984312 0.307104
vt 0.984312 0.001582
vt 0.999501 0.001582
vt 0.626462 0.703491
vt 0.611210 0.703492
vt 0.611211 0.002438
vt 0.626462 0.002438
vt 0.295056 0.002471
vt 0.586738 0.002471
vt 0.586739 0.708242
vt 0.295055 0.708242
vt 0.000500 0.002471
vt 0.292183 0.002472
vt 0.292182 0.708242
vt 0.000500 0.708242
vn 0.006282 0.000000 0.999980
vn 0.006282 0.000000 0.999980
vn 0.006282 0.000000 0.999980
vn 0.006282 0.000000 0.999980
vn 0.000000 1.000000 0.000000
vn 0.000000 1.000000 0.000000
vn 0.000000 1.000000 0.000000
vn 0.000000 1.000000 0.000000
vn -0.006282 0.000000 -0.999980
vn -0.006282 0.000000 -0.999980
vn -0.006282 0.000000 -0.999980
vn -0.006282 0.000000 -0.999980
vn 0.999980 0.000000 -0.006282
vn 0.999980 0.000000 -0.006282
vn 0.999980 0.000000 -0.006282
vn 0.999980 0.000000 -0.006282
vn -0.999980 0.000000 0.006282
vn -0.999980 0.000000 0.006282
vn -0.999980 0.000000 0.006282
vn -0.999980 0.000000 0.006282
s off
g RoadKillOut
usemtl lambert10SG
f 1/1/1 2/2/2 4/3/3 3/4/4
f 3/5/5 4/6/6 6/7/7 5/8/8
f 5/9/9 6/10/10 8/11/11 7/12/12
f 2/13/13 8/14/14 6/15/15 4/16/16
f 7/17/17 1/18/18 3/19/19 5/20/20
g default
v -0.239377 18.646082 -4.190760
v -0.529068 18.946747 -4.165831
v -0.529153 18.629955 -4.482038
v -0.527648 18.631618 4.263855
v -0.529067 18.945395 3.945355
v -0.238972 18.649380 3.970116
v 0.520423 18.621567 -4.465717
v 0.518622 18.930578 -4.156717
v 0.185227 18.639725 -4.174080
v 0.185121 18.641533 3.954244
v 0.520077 18.929562 3.936727
v 0.518393 18.622009 4.247741
v -0.534459 -0.040840 4.254042
v -0.236040 -0.040840 3.955624
v 0.191489 -0.040840 3.940773
v 0.519606 -0.040574 4.239194
v 0.519607 -0.040575 -4.458668
v 0.191489 -0.040840 -4.160245
v -0.236041 -0.040840 -4.175095
v -0.534459 -0.040840 -4.473516
v -0.521495 18.624893 5.163555
v -0.449627 18.624844 5.250947
v -0.521954 19.389978 5.162993
v -0.441764 19.474903 5.251472
v 0.518897 18.624840 5.178945
v 0.405170 18.624847 5.269100
v 0.518622 19.395620 5.177367
v 0.405024 19.487598 5.264166
v -0.449627 19.474136 3.940772
v -0.524328 19.386337 3.940781
v 0.518910 19.402184 3.940766
v 0.405170 19.492287 3.940773
v -0.522196 19.387442 -5.163610
v -0.440649 19.474024 -5.249851
v -0.522738 18.624855 -5.162003
v -0.449622 18.624844 -5.250950
v 0.518018 19.397749 -5.175064
v 0.404967 19.485918 -5.261951
v 0.405170 18.624847 -5.269100
v 0.518892 18.624844 -5.178967
v -0.449628 19.474136 -4.160242
v -0.524333 19.386332 -4.160255
v 0.518909 19.402174 -4.160236
v 0.405170 19.492287 -4.160244
v 0.519608 -0.040707 5.184899
v 0.405179 -0.040840 5.269629
v -0.449731 -0.040840 5.254778
v -0.534459 -0.040840 5.170050
v -0.534459 -0.040840 -5.170050
v -0.449731 -0.040840 -5.254778
v 0.405179 -0.040840 -5.269629
v 0.519607 -0.040706 -5.184900
v 0.510835 18.777466 -4.312449
v 0.511851 18.776464 4.092872
v -0.525476 18.789127 4.110051
v -0.526039 18.790356 -4.329712
vt 0.792160 0.969298
vt 0.835893 0.969278
vt 0.835915 0.995273
vt 0.792182 0.995293
vt 0.941830 0.927603
vt 0.941864 0.967596
vt 0.904862 0.967613
vt 0.904829 0.927620
vt 0.835622 0.643193
vt 0.791888 0.643213
vt 0.791870 0.621122
vt 0.835603 0.621102
vt 0.898866 0.927623
vt 0.898898 0.967615
vt 0.868585 0.967629
vt 0.868560 0.938296
vt 0.879717 0.927632
vt 0.801827 0.679687
vt 0.801802 0.650023
vt 0.835627 0.650007
vt 0.835643 0.667925
vt 0.824897 0.679676
vt 0.868316 0.645598
vt 0.898631 0.645584
vt 0.898659 0.679643
vt 0.879510 0.679651
vt 0.868335 0.668058
vt 0.941595 0.645564
vt 0.941623 0.679623
vt 0.904622 0.679640
vt 0.904594 0.645581
vt 0.825104 0.927656
vt 0.802034 0.927667
vt 0.843251 0.927648
vt 0.843044 0.679668
vt 0.861745 0.679660
vt 0.861506 0.927640
vt 0.879583 0.000500
vt 0.879583 0.603706
vt 0.860947 0.603706
vt 0.860947 0.000500
vt 0.842282 0.000500
vt 0.842282 0.603706
vt 0.803693 0.603706
vt 0.803693 0.000500
vt 0.979407 0.000500
vt 0.979409 0.603705
vt 0.942768 0.603705
vt 0.942767 0.000500
vt 0.936836 0.000500
vt 0.936835 0.603706
vt 0.898246 0.603706
vt 0.898247 0.000500
vt 0.667490 0.002440
vt 0.667488 0.605647
vt 0.630847 0.605647
vt 0.630849 0.002440
vt 0.788072 0.002439
vt 0.788072 0.605647
vt 0.758728 0.605647
vt 0.758729 0.002440
vt 0.740064 0.002440
vt 0.740065 0.605647
vt 0.721428 0.605647
vt 0.721428 0.002440
vt 0.702763 0.002440
vt 0.702764 0.605647
vt 0.673420 0.605647
vt 0.673419 0.002440
vt 0.835868 0.938165
vt 0.835890 0.965069
vt 0.802065 0.965084
vt 0.792125 0.927671
vt 0.835919 0.999482
vt 0.795459 0.999501
vt 0.797761 0.603706
vt 0.797763 0.000500
vt 0.791919 0.679691
vt 0.795293 0.613253
vt 0.835597 0.613235
vt 0.794004 0.605647
vt 0.794001 0.002439
vt 0.873922 0.673855
vt 0.874138 0.932964
vt 0.830486 0.932911
vt 0.830270 0.673800
vn 0.000000 -1.000000 0.000000
vn 0.000000 -1.000000 0.000000
vn 0.000000 -1.000000 0.000000
vn 0.000000 -1.000000 0.000000
vn 0.000000 0.000000 -1.000000
vn 0.000000 0.000000 -1.000000
vn 0.000000 0.000000 -1.000000
vn 0.000000 0.000000 -1.000000
vn 0.000000 0.000000 1.000000
vn 0.000000 0.000000 1.000000
vn 0.000000 0.000000 1.000000
vn 0.000000 0.000000 1.000000
vn 0.999922 0.009987 0.007538
vn 0.999922 0.009987 0.007538
vn 0.999922 0.009987 0.007538
vn 0.999922 0.009987 0.007538
vn 0.999999 -0.000003 -0.001063
vn 0.999999 -0.000003 -0.001063
vn 1.000000 -0.000003 -0.001063
vn 0.999999 -0.000003 -0.001063
vn 0.664654 0.000515 0.747151
vn 0.664654 0.000515 0.747152
vn 0.664654 0.000515 0.747151
vn 0.664654 0.000515 0.747152
vn 0.514252 -0.604928 0.607953
vn 0.514252 -0.604928 0.607953
vn 0.514252 -0.604928 0.607953
vn 0.514252 -0.604928 0.607953
vn 0.619033 0.785353 -0.004325
vn 0.619033 0.785353 -0.004325
vn 0.619033 0.785353 -0.004325
vn 0.619033 0.785353 -0.004325
vn 0.616703 0.005730 -0.787175
vn 0.616703 0.005730 -0.787175
vn 0.616703 0.005730 -0.787175
vn 0.616703 0.005730 -0.787175
vn 0.608313 0.000149 -0.793697
vn 0.608313 0.000149 -0.793697
vn 0.608313 0.000149 -0.793697
vn 0.608313 0.000149 -0.793697
vn 0.999917 -0.011493 -0.005866
vn 0.999917 -0.011493 -0.005866
vn 0.999917 -0.011493 -0.005866
vn 0.999917 -0.011493 -0.005866
vn 0.999937 -0.010076 0.004958
vn 0.999937 -0.010076 0.004958
vn 0.999937 -0.010076 0.004958
vn 0.999937 -0.010076 0.004958
vn 1.000000 0.000052 -0.000269
vn 1.000000 0.000052 -0.000269
vn 1.000000 0.000052 -0.000269
vn 1.000000 0.000052 -0.000269
vn -0.019300 0.000117 0.999814
vn -0.019300 0.000117 0.999814
vn -0.019300 0.000117 0.999814
vn -0.019300 0.000117 0.999814
vn 0.666896 0.000575 -0.745150
vn 0.666896 0.000575 -0.745150
vn 0.666896 0.000575 -0.745150
vn 0.666896 0.000575 -0.745150
vn 0.509393 -0.613257 -0.603684
vn 0.509393 -0.613257 -0.603684
vn 0.509393 -0.613257 -0.603684
vn 0.509393 -0.613257 -0.603684
vn 0.615083 0.003301 0.788456
vn 0.615083 0.003301 0.788456
vn 0.615083 0.003301 0.788456
vn 0.615083 0.003301 0.788456
vn 0.608356 0.000150 0.793664
vn 0.608356 0.000150 0.793664
vn 0.608356 0.000150 0.793664
vn 0.608356 0.000150 0.793664
vn 0.625954 0.779852 0.003535
vn 0.625954 0.779852 0.003535
vn 0.625954 0.779852 0.003535
vn 0.625954 0.779852 0.003535
vn 1.000000 0.000932 -0.000090
vn 1.000000 0.000932 -0.000090
vn 1.000000 0.000932 -0.000090
vn 1.000000 0.000932 -0.000090
vn 0.654702 -0.755887 -0.000018
vn 0.654702 -0.755888 -0.000018
vn 0.654702 -0.755887 -0.000018
vn 0.654702 -0.755888 -0.000018
vn 0.620975 0.783831 -0.000000
vn 0.620975 0.783830 -0.000000
vn 0.620975 0.783830 -0.000000
vn 0.620975 0.783830 -0.000000
vn 0.999964 0.006423 -0.005591
vn 0.999964 0.006423 -0.005591
vn 0.999964 0.006423 -0.005591
vn 0.999964 0.006423 -0.005591
vn -0.999994 0.000529 0.003391
vn -0.999994 0.000529 0.003391
vn -0.999994 0.000529 0.003391
vn -0.999994 0.000529 0.003391
vn -0.999988 0.002557 0.004177
vn -0.999988 0.002557 0.004177
vn -0.999988 0.002557 0.004177
vn -0.999988 0.002557 0.004177
vn -0.710143 0.000532 -0.704057
vn -0.710143 0.000532 -0.704057
vn -0.710143 0.000532 -0.704057
vn -0.710143 0.000532 -0.704057
vn -0.568056 -0.587537 -0.576292
vn -0.568056 -0.587537 -0.576292
vn -0.568056 -0.587537 -0.576292
vn -0.568056 -0.587537 -0.576292
vn -0.739675 0.000445 0.672964
vn -0.739675 0.000445 0.672964
vn -0.739675 0.000445 0.672964
vn -0.739675 0.000445 0.672964
vn -0.757290 0.003486 0.653070
vn -0.757290 0.003486 0.653070
vn -0.757290 0.003486 0.653070
vn -0.757290 0.003486 0.653070
vn -0.744964 0.667102 0.001849
vn -0.744964 0.667102 0.001849
vn -0.744964 0.667102 0.001849
vn -0.744964 0.667102 0.001849
vn -0.021229 0.999775 0.000000
vn -0.021229 0.999775 0.000000
vn -0.021229 0.999775 0.000000
vn -0.021229 0.999775 0.000000
vn -0.018144 0.002655 0.999832
vn -0.018144 0.002655 0.999832
vn -0.018144 0.002655 0.999832
vn -0.018144 0.002655 0.999832
vn -0.018136 0.999834 0.001542
vn -0.018136 0.999834 0.001542
vn -0.018136 0.999834 0.001542
vn -0.018136 0.999834 0.001542
vn -0.999984 0.003243 0.004658
vn -0.999984 0.003243 0.004658
vn -0.999984 0.003243 0.004658
vn -0.999984 0.003243 0.004658
vn -0.999978 0.004283 -0.004995
vn -0.999978 0.004283 -0.004995
vn -0.999978 0.004283 -0.004995
vn -0.999978 0.004283 -0.004995
vn -0.019298 0.000117 -0.999814
vn -0.019298 0.000117 -0.999814
vn -0.019298 0.000117 -0.999814
vn -0.019298 0.000117 -0.999814
vn -0.999989 0.000456 -0.004661
vn -0.999989 0.000456 -0.004661
vn -0.999989 0.000456 -0.004661
vn -0.999989 0.000456 -0.004661
vn -0.708017 0.000495 0.706195
vn -0.708017 0.000495 0.706195
vn -0.708017 0.000495 0.706195
vn -0.708018 0.000495 0.706195
vn -0.572703 -0.579053 0.580267
vn -0.572703 -0.579053 0.580267
vn -0.572703 -0.579053 0.580267
vn -0.572703 -0.579053 0.580267
vn -0.745660 0.666316 -0.003641
vn -0.745660 0.666317 -0.003641
vn -0.745660 0.666317 -0.003641
vn -0.745660 0.666317 -0.003641
vn -0.750685 0.004223 -0.660647
vn -0.750685 0.004223 -0.660647
vn -0.750685 0.004223 -0.660647
vn -0.750685 0.004223 -0.660647
vn -0.740031 0.000448 -0.672572
vn -0.740031 0.000448 -0.672572
vn -0.740031 0.000448 -0.672572
vn -0.740031 0.000448 -0.672572
vn -0.017821 0.004913 -0.999829
vn -0.017821 0.004913 -0.999829
vn -0.017821 0.004913 -0.999829
vn -0.017821 0.004913 -0.999829
vn -0.017688 0.999839 -0.003028
vn -0.017688 0.999839 -0.003028
vn -0.017688 0.999839 -0.003028
vn -0.017688 0.999839 -0.003028
vn -0.999942 0.010758 0.000001
vn -0.999942 0.010758 0.000001
vn -0.999942 0.010758 0.000001
vn -0.999942 0.010758 0.000001
vn -0.717187 -0.696881 0.000101
vn -0.717187 -0.696881 0.000101
vn -0.717187 -0.696881 0.000101
vn -0.717187 -0.696881 0.000101
vn -0.761633 0.648009 -0.000000
vn -0.761633 0.648009 -0.000000
vn -0.761633 0.648009 -0.000000
vn -0.761633 0.648009 -0.000000
vn -0.999977 0.004763 -0.004913
vn -0.999977 0.004763 -0.004913
vn -0.999977 0.004763 -0.004913
vn -0.999977 0.004763 -0.004913
s off
g RoadKillOut1
usemtl lambert10SG
f 14/54/21 9/55/22 17/56/23 18/57/24
f 22/58/25 14/59/26 18/60/27 23/61/28
f 26/82/29 17/83/30 9/84/31 27/85/32
f 15/47/33 48/43/34 45/44/35 61/103/36
f 25/81/37 60/78/38 48/79/39 15/80/40
f 25/81/41 15/80/42 17/83/43 26/82/44
f 15/47/45 61/103/46 16/46/47 17/56/48
f 45/44/49 46/51/50 52/50/51 51/45/52
f 47/32/53 46/31/54 45/99/55 48/100/56
f 59/102/57 47/101/58 48/79/59 60/78/60
f 61/103/61 45/44/62 51/45/63 16/46/64
f 19/37/65 39/33/66 35/34/67 62/104/68
f 53/65/69 24/62/70 20/63/71 33/64/72
f 55/69/73 54/66/74 34/67/75 30/68/76
f 23/61/77 18/60/78 20/63/79 24/62/80
f 18/57/81 19/37/82 62/104/83 20/36/84
f 34/23/85 33/94/86 35/95/87 36/24/88
f 53/65/89 33/64/90 34/96/91 54/97/92
f 40/28/93 36/27/94 35/34/95 39/33/96
f 19/37/97 16/46/98 51/45/99 39/33/100
f 19/37/101 18/57/102 17/56/103 16/46/104
f 51/45/105 52/50/106 40/28/107 39/33/108
f 62/104/109 35/34/110 33/35/111 20/36/112
f 21/73/113 56/70/114 29/71/115 12/72/116
f 12/90/117 29/91/118 31/92/119 63/105/120
f 21/73/121 12/72/122 14/59/123 22/58/124
f 12/90/125 63/105/126 13/52/127 14/54/128
f 55/69/129 30/68/130 29/71/131 56/70/132
f 31/92/133 29/91/134 30/22/135 32/21/136
f 31/92/137 32/21/138 37/93/139 38/53/140
f 40/28/141 52/50/142 49/49/143 37/25/144
f 34/23/145 36/24/146 32/21/147 30/22/148
f 36/27/149 40/28/150 37/25/151 32/26/152
f 31/92/153 38/53/154 13/52/155 63/105/156
f 10/42/157 50/38/158 41/39/159 64/106/160
f 59/77/161 58/74/162 44/75/163 47/76/164
f 57/89/165 28/86/166 11/87/167 43/88/168
f 27/85/169 9/84/170 11/87/171 28/86/172
f 9/55/173 10/42/174 64/106/175 11/41/176
f 49/98/177 42/30/178 41/39/179 50/38/180
f 41/39/181 42/30/182 44/29/183 43/40/184
f 57/89/185 43/88/186 44/75/187 58/74/188
f 46/31/189 47/32/190 44/29/191 42/30/192
f 52/50/193 46/51/194 42/48/195 49/49/196
f 38/53/197 50/38/198 10/42/199 13/52/200
f 14/54/201 13/52/202 10/42/203 9/55/204
f 49/98/205 50/38/206 38/53/207 37/93/208
f 64/106/209 41/39/210 43/40/211 11/41/212
