# This file uses centimeters as units for non-parametric coordinates.

mtllib Mesh_Matches_002.mtl
g default
v -4.026093 17.889299 203.238647
v 12.927704 18.079977 202.589233
v -4.315338 35.140640 205.548218
v 13.744446 34.838516 204.887207
v -9.047943 36.503059 -208.442535
v 10.895264 35.110840 -208.814484
v -8.855896 16.545530 -208.625946
v 8.222229 16.994350 -209.064758
v -2.450623 34.705826 161.529541
v 15.147217 35.085030 162.639160
v 14.339050 18.216484 161.965576
v -2.606323 18.323429 160.721741
v -6.622772 39.347813 188.793945
v 15.986481 36.287899 190.383423
v 15.813538 16.165573 187.569214
v -5.527588 15.607168 185.881470
v 0.138855 21.158577 129.432190
v 13.890137 17.021229 129.475464
v 14.928406 36.865181 129.769531
v 0.021698 31.838078 129.601929
v -8.071198 19.600372 17.161377
v 3.231598 20.908134 16.726715
v 1.662811 32.324924 16.730316
v -15.126862 38.161476 17.308258
v -9.277100 16.899765 -23.161957
v 1.684814 21.670401 -22.897369
v 0.903137 31.824917 -23.128052
v -14.570435 36.350132 -23.864624
v 7.134277 34.231441 55.490723
v 8.404816 17.741463 55.353638
v -6.221863 19.059378 56.627838
v -11.433655 35.684120 57.244812
v -7.473358 18.648861 -63.754364
v 5.619537 17.783701 -62.716431
v 8.753967 35.954300 -62.650024
v -8.907410 32.247070 -64.189636
v -8.356659 19.594906 -154.205933
v 6.430603 16.228247 -156.717316
v 10.918823 36.305355 -153.123413
v -8.237762 35.468262 -151.879639
v -5.615936 25.987129 206.829773
v 15.489014 25.388130 207.448608
v 21.354614 25.417154 191.126099
v 16.595917 25.547495 162.893799
v 21.123810 25.462023 129.750305
v 8.784119 26.701990 55.547607
v 2.439667 26.424097 16.815735
v 1.444489 26.291494 -23.018250
v 8.743073 25.376606 -62.588562
v 11.823059 24.096317 -157.702484
v 10.105194 22.522234 -209.246124
v -8.590027 27.095663 -209.166992
v -8.359985 27.121559 -154.267395
v -9.614899 25.179575 -63.948242
v -18.294006 21.694937 -23.875458
v -21.354614 19.386406 17.943542
v -13.736694 23.965061 57.510498
v 0.125488 26.304882 129.508484
v -3.481781 26.268946 161.386536
v -10.040710 26.061749 187.661621
v 4.890991 17.206327 204.119080
v 5.497589 12.220455 186.039429
v 6.152832 16.618139 161.268433
v 5.496124 17.396986 129.430176
v 0.072571 18.194611 56.229370
v -2.511597 18.928230 17.024353
v -2.356842 16.811979 -22.956818
v -1.408020 19.008821 -63.221039
v -1.203918 16.234455 -156.564331
v 0.444977 17.063141 -209.242767
v -0.121155 23.674461 -209.576874
v 0.130005 36.142395 -209.143982
v 0.272034 36.361294 -154.477753
v -2.550537 37.564827 -63.814392
v -3.193115 37.245960 -23.245087
v -3.134216 38.069973 16.751312
v -1.050507 39.267929 56.241333
v 4.636963 37.374023 129.769714
v 6.326630 35.067829 162.210938
v 6.627472 40.840984 189.459595
v 5.445007 36.783730 207.738525
v 4.787537 25.775818 209.576904
vt 0.613788 0.546029
vt 0.613502 0.539276
vt 0.620111 0.538716
vt 0.619413 0.545000
vt 0.650204 0.485794
vt 0.630212 0.482891
vt 0.630351 0.477334
vt 0.649590 0.479456
vt 0.851546 0.532884
vt 0.851392 0.540602
vt 0.844726 0.539968
vt 0.845216 0.532172
vt 0.630798 0.504602
vt 0.650560 0.501385
vt 0.650468 0.506662
vt 0.630671 0.509953
vt 0.630876 0.520959
vt 0.630406 0.514889
vt 0.650282 0.513540
vt 0.650560 0.521515
vt 0.650434 0.490359
vt 0.650552 0.493909
vt 0.630262 0.493765
vt 0.629991 0.488376
vt 0.613082 0.479426
vt 0.612625 0.473266
vt 0.613365 0.524699
vt 0.613064 0.517754
vt 0.615247 0.505687
vt 0.614855 0.511593
vt 0.613641 0.493925
vt 0.613202 0.486735
vt 0.601255 0.481154
vt 0.602985 0.475543
vt 0.602516 0.516273
vt 0.603484 0.522791
vt 0.604142 0.505887
vt 0.605525 0.511301
vt 0.602118 0.494044
vt 0.602948 0.487670
vt 0.695817 0.508907
vt 0.695916 0.503748
vt 0.696061 0.519143
vt 0.695735 0.514410
vt 0.695350 0.480115
vt 0.694815 0.474240
vt 0.696290 0.494278
vt 0.695919 0.486881
vt 0.720217 0.506537
vt 0.720227 0.510211
vt 0.720398 0.513602
vt 0.720679 0.517247
vt 0.720108 0.476736
vt 0.719991 0.472179
vt 0.720155 0.483891
vt 0.720078 0.495447
vt 0.745265 0.504982
vt 0.745587 0.508808
vt 0.745724 0.511648
vt 0.745831 0.515070
vt 0.745367 0.478614
vt 0.745557 0.474423
vt 0.744892 0.485483
vt 0.744606 0.494624
vt 0.770089 0.501076
vt 0.770250 0.505503
vt 0.770320 0.510587
vt 0.770308 0.517104
vt 0.770150 0.483213
vt 0.769839 0.476123
vt 0.770133 0.488417
vt 0.770005 0.492916
vt 0.827843 0.504644
vt 0.827698 0.499947
vt 0.825589 0.518016
vt 0.828437 0.510510
vt 0.825791 0.480089
vt 0.824680 0.473598
vt 0.826097 0.490487
vt 0.824480 0.485411
vt 0.860024 0.506131
vt 0.860166 0.501358
vt 0.859799 0.517476
vt 0.860076 0.509720
vt 0.859377 0.477814
vt 0.858738 0.471203
vt 0.859993 0.489195
vt 0.859331 0.483456
vt 0.613470 0.533066
vt 0.618620 0.533169
vt 0.851197 0.528789
vt 0.846380 0.528746
vt 0.859928 0.495654
vt 0.826214 0.495107
vt 0.770119 0.497253
vt 0.745009 0.500773
vt 0.720297 0.503208
vt 0.696200 0.499868
vt 0.650641 0.497213
vt 0.630576 0.498872
vt 0.615145 0.499693
vt 0.604297 0.499824
vt 0.856792 0.535000
vt 0.856968 0.528458
vt 0.857090 0.540840
vt 0.606970 0.539012
vt 0.607435 0.544921
vt 0.607860 0.533442
vn 0.039494 0.804340 0.592856
vn -0.001430 -0.142722 0.989762
vn 0.767642 -0.091008 0.634384
vn 0.640451 0.622292 0.450084
vn -0.108380 0.993698 0.028620
vn -0.036486 0.996865 -0.070203
vn 0.676551 0.736172 -0.018186
vn 0.671522 0.739867 -0.040684
vn -0.011864 0.003277 -0.999924
vn 0.014640 0.977542 -0.210234
vn 0.752631 0.638562 -0.160577
vn 0.967242 -0.178855 -0.180149
vn -0.053673 -0.994814 -0.086401
vn -0.167077 -0.985943 -0.001375
vn 0.573687 -0.817930 -0.043294
vn 0.615122 -0.787363 -0.041049
vn 0.676551 0.736172 -0.018186
vn 0.999398 -0.029459 -0.018336
vn 0.997683 -0.008042 -0.067555
vn 0.671522 0.739867 -0.040684
vn -0.825408 0.556633 0.094138
vn -0.987797 -0.128172 0.088477
vn -0.987063 -0.000651 -0.160332
vn -0.714141 0.678713 -0.171323
vn -0.036486 0.996865 -0.070203
vn 0.073040 0.997191 -0.016622
vn 0.723111 0.690627 0.012044
vn 0.676551 0.736172 -0.018186
vn 0.723111 0.690627 0.012044
vn 0.998510 -0.025459 0.048270
vn 0.999398 -0.029459 -0.018336
vn 0.676551 0.736172 -0.018186
vn 0.018221 -0.999818 -0.005679
vn -0.053673 -0.994814 -0.086401
vn 0.615122 -0.787363 -0.041049
vn 0.656794 -0.754042 0.006479
vn -0.714141 0.678713 -0.171323
vn -0.987063 -0.000651 -0.160332
vn -0.999050 -0.020414 -0.038492
vn -0.655849 0.753964 -0.037416
vn 0.073040 0.997191 -0.016622
vn 0.039494 0.804340 0.592856
vn 0.640451 0.622292 0.450084
vn 0.723111 0.690627 0.012044
vn 0.767642 -0.091008 0.634384
vn 0.998510 -0.025459 0.048270
vn 0.723111 0.690627 0.012044
vn 0.640451 0.622292 0.450084
vn -0.005738 -0.875314 0.483521
vn 0.018221 -0.999818 -0.005679
vn 0.656794 -0.754042 0.006479
vn 0.512629 -0.762364 0.394985
vn -0.655849 0.753964 -0.037416
vn -0.999050 -0.020414 -0.038492
vn -0.832593 -0.081873 0.547801
vn -0.633977 0.624575 0.456047
vn 0.618040 -0.780277 -0.095886
vn 0.573687 -0.817930 -0.043294
vn -0.167077 -0.985943 -0.001375
vn -0.129404 -0.991587 -0.003148
vn 0.730102 0.675761 -0.101483
vn 0.671522 0.739867 -0.040684
vn 0.997683 -0.008042 -0.067555
vn 0.989827 0.038245 -0.137038
vn 0.006391 0.999923 0.010600
vn -0.108380 0.993698 0.028620
vn 0.671522 0.739867 -0.040684
vn 0.730102 0.675761 -0.101483
vn -0.958319 -0.236559 0.160201
vn -0.987797 -0.128172 0.088477
vn -0.825408 0.556633 0.094138
vn -0.790425 0.599078 0.127803
vn -0.129404 -0.991587 -0.003148
vn 0.118382 -0.992965 -0.002339
vn 0.823022 -0.562043 -0.082114
vn 0.618040 -0.780277 -0.095886
vn 0.730102 0.675761 -0.101483
vn 0.989827 0.038245 -0.137038
vn 0.989838 0.104517 -0.096423
vn 0.872708 0.481965 -0.078040
vn 0.244050 0.969365 -0.027789
vn 0.006391 0.999923 0.010600
vn 0.730102 0.675761 -0.101483
vn 0.872708 0.481965 -0.078040
vn -0.732428 0.680379 0.025158
vn -0.948688 -0.311668 0.053421
vn -0.958319 -0.236559 0.160201
vn -0.790425 0.599078 0.127803
vn 0.118382 -0.992965 -0.002339
vn 0.205083 -0.978652 0.013436
vn 0.826202 -0.560875 0.053012
vn 0.823022 -0.562043 -0.082114
vn 0.872708 0.481965 -0.078040
vn 0.989838 0.104517 -0.096423
vn 0.996060 0.000940 0.088677
vn 0.865541 0.494222 0.081135
vn 0.166076 0.986052 -0.010994
vn 0.244050 0.969365 -0.027789
vn 0.872708 0.481965 -0.078040
vn 0.865541 0.494222 0.081135
vn -0.751853 0.653635 -0.086478
vn -0.963797 -0.248355 -0.097030
vn -0.948688 -0.311668 0.053421
vn -0.732428 0.680379 0.025158
vn 0.205083 -0.978652 0.013436
vn -0.063761 -0.997914 0.010141
vn 0.593711 -0.803199 0.048775
vn 0.826202 -0.560875 0.053012
vn 0.865541 0.494222 0.081135
vn 0.996060 0.000940 0.088677
vn 0.983253 -0.171218 0.062430
vn 0.770387 0.635051 0.056686
vn -0.079131 0.996864 0.001084
vn 0.166076 0.986052 -0.010994
vn 0.865541 0.494222 0.081135
vn 0.770387 0.635051 0.056686
vn -0.804215 0.591566 -0.057346
vn -0.993352 -0.092942 -0.067922
vn -0.963797 -0.248355 -0.097030
vn -0.751853 0.653635 -0.086478
vn 0.521769 -0.852927 0.016519
vn 0.593711 -0.803199 0.048775
vn -0.063761 -0.997914 0.010141
vn -0.122808 -0.992360 0.011797
vn 0.755489 0.655121 0.007282
vn 0.770387 0.635051 0.056686
vn 0.983253 -0.171218 0.062430
vn 0.980377 -0.196814 0.011180
vn -0.048783 0.998808 -0.001713
vn -0.079131 0.996864 0.001084
vn 0.770387 0.635051 0.056686
vn 0.755489 0.655121 0.007282
vn -0.999555 -0.029823 0.000148
vn -0.993352 -0.092942 -0.067922
vn -0.804215 0.591566 -0.057346
vn -0.783399 0.621518 0.001013
vn 0.511910 -0.853164 -0.100292
vn 0.521769 -0.852927 0.016519
vn -0.122808 -0.992360 0.011797
vn -0.089669 -0.983559 -0.156749
vn 0.752631 0.638562 -0.160577
vn 0.755489 0.655121 0.007282
vn 0.980377 -0.196814 0.011180
vn 0.967242 -0.178855 -0.180149
vn 0.014640 0.977542 -0.210234
vn -0.048783 0.998808 -0.001713
vn 0.755489 0.655121 0.007282
vn 0.752631 0.638562 -0.160577
vn -0.983884 0.000783 -0.178805
vn -0.999555 -0.029823 0.000148
vn -0.783399 0.621518 0.001013
vn -0.720815 0.684200 -0.110890
vn -0.001430 -0.142722 0.989762
vn -0.005738 -0.875314 0.483521
vn 0.512629 -0.762364 0.394985
vn 0.767642 -0.091008 0.634384
vn 0.512629 -0.762364 0.394985
vn 0.656794 -0.754042 0.006479
vn 0.998510 -0.025459 0.048270
vn 0.767642 -0.091008 0.634384
vn 0.999398 -0.029459 -0.018336
vn 0.998510 -0.025459 0.048270
vn 0.656794 -0.754042 0.006479
vn 0.615122 -0.787363 -0.041049
vn 0.997683 -0.008042 -0.067555
vn 0.999398 -0.029459 -0.018336
vn 0.615122 -0.787363 -0.041049
vn 0.573687 -0.817930 -0.043294
vn 0.997683 -0.008042 -0.067555
vn 0.573687 -0.817930 -0.043294
vn 0.618040 -0.780277 -0.095886
vn 0.989827 0.038245 -0.137038
vn 0.989838 0.104517 -0.096423
vn 0.989827 0.038245 -0.137038
vn 0.618040 -0.780277 -0.095886
vn 0.823022 -0.562043 -0.082114
vn 0.996060 0.000940 0.088677
vn 0.989838 0.104517 -0.096423
vn 0.823022 -0.562043 -0.082114
vn 0.826202 -0.560875 0.053012
vn 0.983253 -0.171218 0.062430
vn 0.996060 0.000940 0.088677
vn 0.826202 -0.560875 0.053012
vn 0.593711 -0.803199 0.048775
vn 0.983253 -0.171218 0.062430
vn 0.593711 -0.803199 0.048775
vn 0.521769 -0.852927 0.016519
vn 0.980377 -0.196814 0.011180
vn 0.980377 -0.196814 0.011180
vn 0.521769 -0.852927 0.016519
vn 0.511910 -0.853164 -0.100292
vn 0.967242 -0.178855 -0.180149
vn -0.089669 -0.983559 -0.156749
vn -0.011864 0.003277 -0.999924
vn 0.967242 -0.178855 -0.180149
vn 0.511910 -0.853164 -0.100292
vn -0.783883 -0.615443 -0.082210
vn -0.764039 -0.645119 0.008182
vn -0.999555 -0.029823 0.000148
vn -0.983884 0.000783 -0.178805
vn -0.764039 -0.645119 0.008182
vn -0.627487 -0.777880 -0.034096
vn -0.993352 -0.092942 -0.067922
vn -0.999555 -0.029823 0.000148
vn -0.963797 -0.248355 -0.097030
vn -0.993352 -0.092942 -0.067922
vn -0.627487 -0.777880 -0.034096
vn -0.262617 -0.964346 -0.032695
vn -0.948688 -0.311668 0.053421
vn -0.963797 -0.248355 -0.097030
vn -0.262617 -0.964346 -0.032695
vn -0.167819 -0.985275 0.032701
vn -0.958319 -0.236559 0.160201
vn -0.948688 -0.311668 0.053421
vn -0.167819 -0.985275 0.032701
vn -0.429227 -0.900434 0.070590
vn -0.429227 -0.900434 0.070590
vn -0.661039 -0.749690 0.031497
vn -0.987797 -0.128172 0.088477
vn -0.958319 -0.236559 0.160201
vn -0.987063 -0.000651 -0.160332
vn -0.987797 -0.128172 0.088477
vn -0.661039 -0.749690 0.031497
vn -0.725809 -0.670763 -0.152574
vn -0.999050 -0.020414 -0.038492
vn -0.987063 -0.000651 -0.160332
vn -0.725809 -0.670763 -0.152574
vn -0.679924 -0.732347 -0.037035
vn -0.832593 -0.081873 0.547801
vn -0.999050 -0.020414 -0.038492
vn -0.679924 -0.732347 -0.037035
vn -0.603216 -0.707263 0.368659
vn -0.679924 -0.732347 -0.037035
vn 0.018221 -0.999818 -0.005679
vn -0.005738 -0.875314 0.483521
vn -0.603216 -0.707263 0.368659
vn -0.725809 -0.670763 -0.152574
vn -0.053673 -0.994814 -0.086401
vn 0.018221 -0.999818 -0.005679
vn -0.679924 -0.732347 -0.037035
vn -0.661039 -0.749690 0.031497
vn -0.167077 -0.985943 -0.001375
vn -0.053673 -0.994814 -0.086401
vn -0.725809 -0.670763 -0.152574
vn -0.167077 -0.985943 -0.001375
vn -0.661039 -0.749690 0.031497
vn -0.429227 -0.900434 0.070590
vn -0.129404 -0.991587 -0.003148
vn -0.167819 -0.985275 0.032701
vn 0.118382 -0.992965 -0.002339
vn -0.129404 -0.991587 -0.003148
vn -0.429227 -0.900434 0.070590
vn -0.262617 -0.964346 -0.032695
vn 0.205083 -0.978652 0.013436
vn 0.118382 -0.992965 -0.002339
vn -0.167819 -0.985275 0.032701
vn -0.627487 -0.777880 -0.034096
vn -0.063761 -0.997914 0.010141
vn 0.205083 -0.978652 0.013436
vn -0.262617 -0.964346 -0.032695
vn -0.063761 -0.997914 0.010141
vn -0.627487 -0.777880 -0.034096
vn -0.764039 -0.645119 0.008182
vn -0.122808 -0.992360 0.011797
vn -0.122808 -0.992360 0.011797
vn -0.764039 -0.645119 0.008182
vn -0.783883 -0.615443 -0.082210
vn -0.089669 -0.983559 -0.156749
vn -0.983884 0.000783 -0.178805
vn -0.011864 0.003277 -0.999924
vn -0.089669 -0.983559 -0.156749
vn -0.783883 -0.615443 -0.082210
vn -0.720815 0.684200 -0.110890
vn 0.014640 0.977542 -0.210234
vn -0.011864 0.003277 -0.999924
vn -0.983884 0.000783 -0.178805
vn -0.720815 0.684200 -0.110890
vn -0.783399 0.621518 0.001013
vn -0.048783 0.998808 -0.001713
vn 0.014640 0.977542 -0.210234
vn -0.783399 0.621518 0.001013
vn -0.804215 0.591566 -0.057346
vn -0.079131 0.996864 0.001084
vn -0.048783 0.998808 -0.001713
vn -0.751853 0.653635 -0.086478
vn 0.166076 0.986052 -0.010994
vn -0.079131 0.996864 0.001084
vn -0.804215 0.591566 -0.057346
vn -0.732428 0.680379 0.025158
vn 0.244050 0.969365 -0.027789
vn 0.166076 0.986052 -0.010994
vn -0.751853 0.653635 -0.086478
vn -0.790425 0.599078 0.127803
vn 0.006391 0.999923 0.010600
vn 0.244050 0.969365 -0.027789
vn -0.732428 0.680379 0.025158
vn -0.790425 0.599078 0.127803
vn -0.825408 0.556633 0.094138
vn -0.108380 0.993698 0.028620
vn 0.006391 0.999923 0.010600
vn -0.714141 0.678713 -0.171323
vn -0.036486 0.996865 -0.070203
vn -0.108380 0.993698 0.028620
vn -0.825408 0.556633 0.094138
vn -0.655849 0.753964 -0.037416
vn 0.073040 0.997191 -0.016622
vn -0.036486 0.996865 -0.070203
vn -0.714141 0.678713 -0.171323
vn -0.633977 0.624575 0.456047
vn 0.039494 0.804340 0.592856
vn 0.073040 0.997191 -0.016622
vn -0.655849 0.753964 -0.037416
vn -0.832593 -0.081873 0.547801
vn -0.001430 -0.142722 0.989762
vn 0.039494 0.804340 0.592856
vn -0.633977 0.624575 0.456047
vn -0.603216 -0.707263 0.368659
vn -0.005738 -0.875314 0.483521
vn -0.001430 -0.142722 0.989762
vn -0.832593 -0.081873 0.547801
s off
g polySurface4 Lo:polySurface6
usemtl initialShadingGroup
f 81/1/1 82/2/2 42/3/3 4/4/4
f 78/5/5 79/6/6 10/7/7 19/8/8
f 71/9/9 72/10/10 6/11/11 51/12/12
f 63/13/13 64/14/14 18/15/15 11/16/16
f 10/17/17 44/18/18 45/19/19 19/20/20
f 20/21/21 58/22/22 59/23/23 9/24/24
f 79/6/25 80/25/26 14/26/27 10/7/28
f 14/27/29 43/28/30 44/18/31 10/17/32
f 62/29/33 63/13/34 11/16/35 15/30/36
f 9/24/37 59/23/38 60/31/39 13/32/40
f 80/25/41 81/33/42 4/34/43 14/26/44
f 42/35/45 43/28/46 14/27/47 4/36/48
f 61/37/49 62/29/50 15/30/51 2/38/52
f 13/32/53 60/31/54 41/39/55 3/40/56
f 30/41/57 18/15/58 64/14/59 65/42/60
f 29/43/61 19/20/62 45/19/63 46/44/64
f 77/45/65 78/5/66 19/8/67 29/46/68
f 57/47/69 58/22/70 20/21/71 32/48/72
f 65/42/73 66/49/74 22/50/75 30/41/76
f 29/43/77 46/44/78 47/51/79 23/52/80
f 76/53/81 77/45/82 29/46/83 23/54/84
f 24/55/85 56/56/86 57/47/87 32/48/88
f 66/49/89 67/57/90 26/58/91 22/50/92
f 23/52/93 47/51/94 48/59/95 27/60/96
f 75/61/97 76/53/98 23/54/99 27/62/100
f 28/63/101 55/64/102 56/56/103 24/55/104
f 67/57/105 68/65/106 34/66/107 26/58/108
f 27/60/109 48/59/110 49/67/111 35/68/112
f 74/69/113 75/61/114 27/62/115 35/70/116
f 36/71/117 54/72/118 55/64/119 28/63/120
f 38/73/121 34/66/122 68/65/123 69/74/124
f 39/75/125 35/68/126 49/67/127 50/76/128
f 73/77/129 74/69/130 35/70/131 39/78/132
f 53/79/133 54/72/134 36/71/135 40/80/136
f 8/81/137 38/73/138 69/74/139 70/82/140
f 6/83/141 39/75/142 50/76/143 51/84/144
f 72/85/145 73/77/146 39/78/147 6/86/148
f 52/87/149 53/79/150 40/80/151 5/88/152
f 82/2/153 61/89/154 2/90/155 42/3/156
f 2/38/157 15/30/158 43/28/159 42/35/160
f 44/18/161 43/28/162 15/30/163 11/16/164
f 45/19/165 44/18/166 11/16/167 18/15/168
f 45/19/169 18/15/170 30/41/171 46/44/172
f 47/51/173 46/44/174 30/41/175 22/50/176
f 48/59/177 47/51/178 22/50/179 26/58/180
f 49/67/181 48/59/182 26/58/183 34/66/184
f 49/67/185 34/66/186 38/73/187 50/76/188
f 50/76/189 38/73/190 8/81/191 51/84/192
f 70/91/193 71/9/194 51/12/195 8/92/196
f 7/93/197 37/94/198 53/79/199 52/87/200
f 37/94/201 33/95/202 54/72/203 53/79/204
f 55/64/205 54/72/206 33/95/207 25/96/208
f 56/56/209 55/64/210 25/96/211 21/97/212
f 57/47/213 56/56/214 21/97/215 31/98/216
f 31/98/217 17/99/218 58/22/219 57/47/220
f 59/23/221 58/22/222 17/99/223 12/100/224
f 60/31/225 59/23/226 12/100/227 16/101/228
f 41/39/229 60/31/230 16/101/231 1/102/232
f 16/101/233 62/29/234 61/37/235 1/102/236
f 12/100/237 63/13/238 62/29/239 16/101/240
f 17/99/241 64/14/242 63/13/243 12/100/244
f 64/14/245 17/99/246 31/98/247 65/42/248
f 21/97/249 66/49/250 65/42/251 31/98/252
f 25/96/253 67/57/254 66/49/255 21/97/256
f 33/95/257 68/65/258 67/57/259 25/96/260
f 68/65/261 33/95/262 37/94/263 69/74/264
f 69/74/265 37/94/266 7/93/267 70/82/268
f 52/103/269 71/9/270 70/91/271 7/104/272
f 5/105/273 72/10/274 71/9/275 52/103/276
f 5/88/277 40/80/278 73/77/279 72/85/280
f 40/80/281 36/71/282 74/69/283 73/77/284
f 28/63/285 75/61/286 74/69/287 36/71/288
f 24/55/289 76/53/290 75/61/291 28/63/292
f 32/48/293 77/45/294 76/53/295 24/55/296
f 32/48/297 20/21/298 78/5/299 77/45/300
f 9/24/301 79/6/302 78/5/303 20/21/304
f 13/32/305 80/25/306 79/6/307 9/24/308
f 3/40/309 81/33/310 80/25/311 13/32/312
f 41/106/313 82/2/314 81/1/315 3/107/316
f 1/108/317 61/89/318 82/2/319 41/106/320
