# 3ds Max Wavefront OBJ Exporter v0.97b - (c)2007 guruware
# File Created: 08.06.2015 10:37:39

#
# object Box001
#

v  -0.6531 -0.0190 6.9441
v  0.6531 -0.0190 -6.9441
v  -0.6531 16.3450 6.9441
v  0.6531 16.3450 6.9441
v  -0.6531 16.3450 -6.9441
v  0.6531 16.3450 -6.9441
v  -0.6531 -0.0190 -6.9441
v  0.6531 -0.0190 6.9441
v  0.6531 20.3974 2.7106
v  0.6531 20.3974 -2.7106
v  -0.6531 20.3974 -2.7106
v  -0.6531 20.3974 2.7106
v  -0.6531 19.1850 -4.8273
v  0.6531 19.1850 -4.8273
v  0.6531 19.1850 4.8273
v  -0.6531 19.1850 4.8273
# 16 vertices

vn 0.0000 -1.0000 -0.0000
vn 0.0000 -1.0000 -0.0000
vn 0.0000 -1.0000 -0.0000
vn 0.0000 -1.0000 -0.0000
vn 0.0000 -1.0000 -0.0000
vn 0.0000 -1.0000 -0.0000
vn 0.0000 0.9664 -0.2572
vn 0.0000 0.9664 -0.2572
vn 0.0000 0.9664 0.2572
vn 0.0000 0.9664 0.2572
vn 0.0000 0.9664 0.2572
vn 0.0000 0.9664 -0.2572
vn 0.0000 0.0000 1.0000
vn 0.0000 0.0000 1.0000
vn 0.0000 0.0000 1.0000
vn 0.0000 0.0000 1.0000
vn 0.0000 0.0000 1.0000
vn 0.0000 0.0000 1.0000
vn 1.0000 0.0000 0.0000
vn 1.0000 0.0000 -0.0000
vn 1.0000 0.0000 0.0000
vn 1.0000 0.0000 0.0000
vn 1.0000 0.0000 -0.0000
vn 1.0000 0.0000 0.0000
vn 0.0000 0.0000 -1.0000
vn 0.0000 0.0000 -1.0000
vn 0.0000 0.0000 -1.0000
vn 0.0000 0.0000 -1.0000
vn 0.0000 0.0000 -1.0000
vn 0.0000 0.0000 -1.0000
vn -1.0000 0.0000 -0.0000
vn -1.0000 0.0000 -0.0000
vn -1.0000 0.0000 -0.0000
vn -1.0000 0.0000 -0.0000
vn -1.0000 0.0000 -0.0000
vn -1.0000 0.0000 -0.0000
vn 0.0000 0.7483 -0.6633
vn 0.0000 0.7483 -0.6633
vn 0.0000 0.9664 -0.2572
vn 0.0000 0.9664 -0.2572
vn 0.0000 0.9664 -0.2572
vn 0.0000 0.7483 -0.6633
vn 0.0000 0.7483 0.6633
vn 0.0000 0.7483 0.6633
vn 0.0000 0.9664 0.2572
vn 0.0000 0.9664 0.2572
vn 0.0000 0.9664 0.2572
vn 0.0000 0.7483 0.6633
vn 1.0000 0.0000 0.0000
vn 1.0000 0.0000 0.0000
vn 1.0000 0.0000 -0.0000
vn 1.0000 0.0000 0.0000
vn 1.0000 0.0000 -0.0000
vn 1.0000 0.0000 -0.0000
vn -1.0000 0.0000 -0.0000
vn -1.0000 0.0000 -0.0000
vn -1.0000 0.0000 -0.0000
vn -1.0000 0.0000 -0.0000
vn -1.0000 0.0000 -0.0000
vn -1.0000 0.0000 -0.0000
vn 0.0000 0.5976 -0.8018
vn 0.0000 0.5976 -0.8018
vn 0.0000 0.7483 -0.6633
vn 0.0000 0.7483 -0.6633
vn 0.0000 0.7483 -0.6633
vn 0.0000 0.5976 -0.8018
vn 1.0000 0.0000 0.0000
vn 1.0000 0.0000 0.0000
vn 1.0000 0.0000 0.0000
vn -1.0000 0.0000 -0.0000
vn -1.0000 0.0000 -0.0000
vn -1.0000 0.0000 -0.0000
vn 0.0000 0.5976 0.8018
vn 0.0000 0.5976 0.8018
vn 0.0000 0.7483 0.6633
vn 0.0000 0.7483 0.6633
vn 0.0000 0.7483 0.6633
vn 0.0000 0.5976 0.8018
vn 1.0000 0.0000 -0.0000
vn 1.0000 0.0000 -0.0000
vn 1.0000 0.0000 -0.0000
vn -1.0000 0.0000 -0.0000
vn -1.0000 0.0000 -0.0000
vn -1.0000 0.0000 -0.0000
# 84 vertex normals

vt 0.9124 0.0380 0.0000
vt 0.0207 0.9798 0.0000
vt 0.0207 0.5255 0.0000
vt 0.9124 0.5327 0.0000
vt 0.9813 0.6050 0.0000
vt 0.9348 0.6050 0.0000
vt 0.7617 0.6440 0.0000
vt 0.7151 0.6440 0.0000
vt 0.9348 0.0221 0.0000
vt 0.9813 0.0221 0.0000
vt 0.7863 0.4352 0.0000
vt 0.7863 0.2421 0.0000
vt 0.6885 0.6640 0.0000
vt 0.6885 0.8413 0.0000
vt 0.6489 0.5948 0.0000
vt 0.6489 0.9106 0.0000
vt 0.8329 0.2421 0.0000
vt 0.8329 0.4352 0.0000
vt 0.7863 0.1552 0.0000
vt 0.8329 0.1552 0.0000
vt 0.5560 0.5255 0.0000
vt 0.0207 0.4755 0.0000
vt 0.0207 0.0212 0.0000
vt 0.6885 0.1597 0.0000
vt 0.5560 0.9798 0.0000
vt 0.8658 0.5327 0.0000
vt 0.6885 0.3370 0.0000
vt 0.6489 0.0904 0.0000
vt 0.6489 0.4062 0.0000
vt 0.8658 0.0380 0.0000
vt 0.5560 0.4755 0.0000
vt 0.5560 0.0212 0.0000
vt 0.8329 0.5221 0.0000
vt 0.7863 0.5221 0.0000
vt 0.7863 0.0290 0.0000
vt 0.8329 0.0290 0.0000
vt 0.8329 0.6483 0.0000
vt 0.7863 0.6483 0.0000
vt 0.7151 0.0611 0.0000
vt 0.7617 0.0611 0.0000
# 40 texture coords

g Box001
s 1
f 7/4/1 2/26/2 8/30/3 
f 8/30/4 1/1/5 7/4/6 
f 10/12/7 11/17/8 12/18/9 
f 12/18/10 9/11/11 10/12/12 
s 2
f 1/5/13 8/6/14 4/9/15 
f 4/9/16 3/10/17 1/5/18 
s 4
f 2/3/19 10/13/20 9/14/21 
f 9/14/22 8/2/23 2/3/24 
s 2
f 2/7/25 7/8/26 5/39/27 
f 5/39/28 6/40/29 2/7/30 
s 4
f 1/23/31 12/24/32 11/27/33 
f 11/27/34 7/22/35 1/23/36 
s 1
f 14/19/37 13/20/38 11/17/39 
f 11/17/40 10/12/41 14/19/42 
f 16/33/43 15/34/44 9/11/45 
f 9/11/46 12/18/47 16/33/48 
s 4
f 2/3/49 14/15/50 10/13/51 
f 9/14/52 15/16/53 8/2/54 
f 1/23/55 16/28/56 12/24/57 
f 11/27/58 13/29/59 7/22/60 
s 1
f 6/35/61 5/36/62 13/20/63 
f 13/20/64 14/19/65 6/35/66 
s 4
f 2/3/67 6/21/68 14/15/69 
f 13/29/70 5/31/71 7/22/72 
s 1
f 3/37/73 4/38/74 15/34/75 
f 15/34/76 16/33/77 3/37/78 
s 4
f 15/16/79 4/25/80 8/2/81 
f 1/23/82 3/32/83 16/28/84 
# 28 faces

