# 3ds Max Wavefront OBJ Exporter v0.97b - (c)2007 guruware
# File Created: 04.06.2015 11:44:35

#
# object Line009
#

v  5.1787 0.9328 1.2940
v  5.1920 0.9217 1.2940
v  5.1920 0.9217 1.2883
v  5.1787 0.9328 1.2883
v  4.8981 0.6090 1.3436
v  4.9321 0.5951 1.3436
v  4.9321 0.5951 1.2387
v  4.8981 0.6090 1.2387
v  4.8571 0.1678 1.2982
v  4.9041 0.1698 1.2983
v  4.9041 0.1698 1.2840
v  4.8571 0.1678 1.2841
v  4.9319 -0.3924 1.3408
v  4.9624 -0.3730 1.3408
v  4.9624 -0.3730 1.2414
v  4.9319 -0.3924 1.2414
v  5.2144 -0.6102 1.2940
v  5.2240 -0.5959 1.2940
v  5.2240 -0.5959 1.2883
v  5.2144 -0.6102 1.2883
v  4.8637 0.0002 1.2982
v  4.9102 0.0017 1.2984
v  4.9102 0.0017 1.2839
v  4.8637 0.0002 1.2840
v  5.1904 0.9199 1.2917
v  5.2077 0.9200 1.2917
v  5.2033 -0.5991 1.2917
v  5.2206 -0.5989 1.2917
# 28 vertices

vn 0.0018 0.0034 1.0000
vn 0.0755 0.0908 0.9930
vn 0.0739 0.0920 0.9930
vn 0.0739 0.0920 0.9930
vn 0.0032 0.0033 1.0000
vn 0.0018 0.0034 1.0000
vn 0.9332 -0.3594 -0.0000
vn 0.7825 -0.6227 -0.0000
vn 0.7825 -0.6227 -0.0000
vn 0.7825 -0.6227 -0.0000
vn 0.9332 -0.3594 -0.0000
vn 0.9332 -0.3594 -0.0000
vn 0.0030 0.0059 -1.0000
vn 0.0735 0.0885 -0.9934
vn 0.0722 0.0898 -0.9933
vn 0.0722 0.0898 -0.9933
vn 0.0040 0.0065 -1.0000
vn 0.0030 0.0059 -1.0000
vn -0.9203 0.3912 0.0000
vn -0.7557 0.6549 0.0000
vn -0.7557 0.6549 0.0000
vn -0.7557 0.6549 0.0000
vn -0.9203 0.3912 0.0000
vn -0.9203 0.3912 0.0000
vn -0.0008 -0.0530 0.9986
vn 0.0018 0.0034 1.0000
vn 0.0032 0.0033 1.0000
vn 0.0032 0.0033 1.0000
vn 0.0001 -0.0488 0.9988
vn -0.0008 -0.0530 0.9986
vn 0.9999 -0.0164 -0.0000
vn 0.9332 -0.3594 -0.0000
vn 0.9332 -0.3594 -0.0000
vn 0.9332 -0.3594 -0.0000
vn 0.9999 -0.0164 -0.0000
vn 0.9999 -0.0164 -0.0000
vn -0.0009 -0.0503 -0.9987
vn 0.0030 0.0059 -1.0000
vn 0.0040 0.0065 -1.0000
vn 0.0040 0.0065 -1.0000
vn 0.0004 -0.0549 -0.9985
vn -0.0009 -0.0503 -0.9987
vn -0.9996 0.0287 0.0000
vn -0.9203 0.3912 0.0000
vn -0.9203 0.3912 0.0000
vn -0.9203 0.3912 0.0000
vn -0.9996 0.0287 0.0000
vn -0.9996 0.0287 0.0000
vn 0.0065 -0.0071 1.0000
vn -0.0045 0.0581 0.9983
vn -0.0060 0.0529 0.9986
vn -0.0060 0.0529 0.9986
vn 0.0091 -0.0124 0.9999
vn 0.0065 -0.0071 1.0000
vn 0.9904 0.1380 0.0000
vn 0.9960 0.0890 0.0000
vn 0.9960 0.0890 0.0000
vn 0.9960 0.0890 0.0000
vn 0.9904 0.1380 0.0000
vn 0.9904 0.1380 0.0000
vn 0.0086 -0.0088 -0.9999
vn -0.0042 0.0511 -0.9987
vn -0.0060 0.0555 -0.9984
vn -0.0060 0.0555 -0.9984
vn 0.0024 -0.0026 -1.0000
vn 0.0086 -0.0088 -0.9999
vn -0.9852 -0.1712 -0.0000
vn -0.9942 -0.1078 -0.0000
vn -0.9942 -0.1078 -0.0000
vn -0.9942 -0.1078 -0.0000
vn -0.9852 -0.1712 -0.0000
vn -0.9852 -0.1712 -0.0000
vn 0.1064 -0.0757 0.9914
vn 0.0065 -0.0071 1.0000
vn 0.0091 -0.0124 0.9999
vn 0.0091 -0.0124 0.9999
vn 0.1082 -0.0730 0.9914
vn 0.1064 -0.0757 0.9914
vn 0.6485 0.7612 0.0000
vn 0.6485 0.7612 0.0000
vn 0.6485 0.7612 0.0000
vn 0.6485 0.7612 0.0000
vn 0.6485 0.7612 0.0000
vn 0.6485 0.7612 0.0000
vn 0.1102 -0.0787 -0.9908
vn 0.0086 -0.0088 -0.9999
vn 0.0024 -0.0026 -1.0000
vn 0.0024 -0.0026 -1.0000
vn 0.1127 -0.0761 -0.9907
vn 0.1102 -0.0787 -0.9908
vn -0.6107 -0.7919 -0.0000
vn -0.6107 -0.7919 -0.0000
vn -0.6107 -0.7919 -0.0000
vn -0.6107 -0.7919 -0.0000
vn -0.6107 -0.7919 -0.0000
vn -0.6107 -0.7919 -0.0000
vn 0.6391 0.7691 -0.0000
vn 0.6391 0.7691 -0.0000
vn 0.6391 0.7691 -0.0000
vn 0.6391 0.7691 -0.0000
vn 0.6391 0.7691 0.0000
vn 0.6391 0.7691 -0.0000
vn 0.8288 -0.5595 -0.0000
vn 0.8288 -0.5595 -0.0000
vn 0.8288 -0.5595 -0.0000
vn 0.8288 -0.5595 -0.0000
vn 0.8288 -0.5595 -0.0000
vn 0.8288 -0.5595 -0.0000
vn 0.0001 -0.0488 0.9988
vn -0.0060 0.0529 0.9986
vn -0.0045 0.0581 0.9983
vn -0.0045 0.0581 0.9983
vn -0.0008 -0.0530 0.9986
vn 0.0001 -0.0488 0.9988
vn 0.9999 -0.0164 -0.0000
vn 0.9960 0.0890 0.0000
vn 0.9960 0.0890 0.0000
vn 0.9960 0.0890 0.0000
vn 0.9999 -0.0164 -0.0000
vn 0.9999 -0.0164 -0.0000
vn 0.0004 -0.0549 -0.9985
vn -0.0060 0.0555 -0.9984
vn -0.0042 0.0511 -0.9987
vn -0.0042 0.0511 -0.9987
vn -0.0009 -0.0503 -0.9987
vn 0.0004 -0.0549 -0.9985
vn -0.9996 0.0287 0.0000
vn -0.9942 -0.1078 -0.0000
vn -0.9942 -0.1078 -0.0000
vn -0.9942 -0.1078 -0.0000
vn -0.9996 0.0287 0.0000
vn -0.9996 0.0287 0.0000
vn 0.0000 -0.0000 1.0000
vn 0.0000 -0.0000 1.0000
vn 0.0000 -0.0000 1.0000
vn 0.0000 -0.0000 1.0000
vn 0.0000 -0.0000 1.0000
vn 0.0000 -0.0000 1.0000
# 138 vertex normals

vt 0.9900 0.7022 0.0000
vt 0.7912 0.8880 0.0000
vt 0.5832 0.6366 0.0000
vt 0.9826 0.6707 0.0000
vt 0.7816 0.8667 0.0000
vt 0.9827 0.6941 0.0000
vt 0.0100 0.2046 0.0000
vt 0.7819 0.4977 0.0000
vt 0.5122 0.9245 0.0000
vt 0.5123 0.8946 0.0000
vt 0.2174 0.1730 0.0000
vt 0.7915 0.4765 0.0000
vt 0.4057 0.9242 0.0000
vt 0.1549 0.8903 0.0000
vt 0.6398 0.4103 0.0000
vt 0.9900 0.6626 0.0000
vt 0.1665 0.8705 0.0000
vt 0.4055 0.8947 0.0000
vt 0.4737 0.3805 0.0000
vt 0.5127 0.4694 0.0000
vt 0.0100 0.7162 0.0000
vt 0.0189 0.7098 0.0000
vt 0.2174 0.2397 0.0000
vt 0.5125 0.4395 0.0000
vt 0.9746 0.2822 0.0000
vt 0.0100 0.2739 0.0000
vt 0.0101 0.2630 0.0000
vt 0.9747 0.2712 0.0000
vt 0.0100 0.2082 0.0000
vt 0.4875 0.2018 0.0000
vt 0.4058 0.4690 0.0000
vt 0.1668 0.4928 0.0000
vt 0.8515 0.1182 0.0000
vt 0.6459 0.1497 0.0000
vt 0.6459 0.0831 0.0000
vt 0.8515 0.1146 0.0000
vt 0.4875 0.2109 0.0000
vt 0.5943 0.2018 0.0000
vt 0.1552 0.4730 0.0000
vt 0.4061 0.4395 0.0000
vt 0.3657 0.1209 0.0000
vt 0.3657 0.1119 0.0000
vt 0.2593 0.1209 0.0000
vt 0.0100 0.1480 0.0000
vt 0.8322 0.1748 0.0000
vt 0.8322 0.2379 0.0000
vt 0.0188 0.6533 0.0000
vt 0.0100 0.6468 0.0000
vt 0.0100 0.0848 0.0000
vt 0.2593 0.1119 0.0000
vt 0.5796 0.6366 0.0000
vt 0.5796 0.6281 0.0000
vt 0.4737 0.3769 0.0000
vt 0.6398 0.3471 0.0000
vt 0.5796 0.6721 0.0000
vt 0.5832 0.6721 0.0000
vt 0.2866 0.3471 0.0000
vt 0.4659 0.3769 0.0000
vt 0.4659 0.3805 0.0000
vt 0.2866 0.4103 0.0000
vt 0.5832 0.6281 0.0000
vt 0.5832 0.6812 0.0000
vt 0.5796 0.6812 0.0000
vt 0.5943 0.2109 0.0000
# 64 texture coords

g Line009
s 1
f 6/5/1 2/6/2 1/1/3 
f 1/1/4 5/2/5 6/5/6 
s 2
f 7/23/7 3/29/8 2/7/9 
f 2/7/10 6/11/11 7/23/12 
s 1
f 8/12/13 4/16/14 3/4/15 
f 3/4/16 7/8/17 8/12/18 
s 2
f 5/35/19 1/36/20 4/33/21 
f 4/33/22 8/34/23 5/35/24 
s 1
f 10/10/25 6/5/26 5/2/27 
f 5/2/28 9/9/29 10/10/30 
s 2
f 11/37/31 7/23/32 6/11/33 
f 6/11/34 10/30/35 11/37/36 
s 1
f 12/24/37 8/12/38 7/8/39 
f 7/8/40 11/20/41 12/24/42 
s 2
f 9/42/43 5/35/44 8/34/45 
f 8/34/46 12/41/47 9/42/48 
s 1
f 14/17/49 22/18/50 21/13/51 
f 21/13/52 13/14/53 14/17/54 
s 2
f 15/46/55 23/64/56 22/38/57 
f 22/38/58 14/45/59 15/46/60 
s 1
f 16/39/61 24/40/62 23/31/63 
f 23/31/64 15/32/65 16/39/66 
s 2
f 13/49/67 21/50/68 24/43/69 
f 24/43/70 16/44/71 13/49/72 
s 1
f 18/22/73 14/17/74 13/14/75 
f 13/14/76 17/21/77 18/22/78 
s 4
f 19/53/79 15/54/80 14/15/81 
f 14/15/82 18/19/83 19/53/84 
s 1
f 20/48/85 16/39/86 15/32/87 
f 15/32/88 19/47/89 20/48/90 
s 4
f 17/59/91 13/60/92 16/57/93 
f 16/57/94 20/58/95 17/59/96 
f 3/51/97 4/52/98 1/61/99 
f 1/61/100 2/3/101 3/51/102 
s 2
f 19/55/103 18/56/104 17/62/105 
f 20/63/106 19/55/107 17/62/108 
s 1
f 9/9/109 21/13/110 22/18/111 
f 22/18/112 10/10/113 9/9/114 
s 2
f 10/30/115 22/38/116 23/64/117 
f 23/64/118 11/37/119 10/30/120 
s 1
f 11/20/121 23/31/122 24/40/123 
f 24/40/124 12/24/125 11/20/126 
s 2
f 12/41/127 24/43/128 21/50/129 
f 21/50/130 9/42/131 12/41/132 
s 1
f 28/27/133 26/28/134 25/25/135 
f 25/25/136 27/26/137 28/27/138 
# 46 faces

