# This file uses centimeters as units for non-parametric coordinates.

mtllib Mesh_Pen.mtl
g default
v -331.721619 3.922695 14.924438
v -331.721466 3.930327 -14.808350
v -332.358002 29.576944 -29.707214
v -331.721619 55.368378 -14.793427
v -332.139496 55.799904 13.965881
v -331.957153 29.568342 29.707214
v 441.400024 53.821861 -13.485229
v 440.566223 29.555721 -26.179657
v 441.362854 5.411969 -13.391235
v 441.378296 5.427947 13.525879
v 440.357239 29.582800 26.860229
v 440.948547 54.920990 12.651245
v -318.755890 55.368729 -14.792877
v -318.755829 29.576935 -29.707214
v -318.755859 3.930277 -14.808228
v -318.755798 3.922732 14.924500
v -319.010376 29.568369 29.707153
v -319.206116 55.799927 13.965759
v 431.225281 29.530842 29.033936
v 433.711487 4.054334 14.852051
v 433.711121 4.064089 -14.735474
v 433.559937 29.567650 -28.838165
v 433.713135 55.245434 -14.715881
v 430.376343 55.738953 13.403076
v -441.779297 29.610279 0.056976
v -411.916992 21.226727 4.360626
v -411.790161 21.408007 -4.678589
v -411.790192 29.610277 -9.414154
v -411.790192 37.812542 -4.678558
v -411.896790 37.941307 4.478149
v -411.860931 29.598724 9.513092
v -405.713074 39.206532 4.708099
v -405.457581 38.914021 -5.314514
v -405.457581 29.610277 -10.686035
v -405.457581 20.306541 -5.314514
v -405.762390 19.894642 4.439331
v -405.625122 29.583872 10.764496
v -367.907104 45.441074 9.196899
v -367.900116 45.442291 -9.083618
v -367.901428 29.610277 -18.223969
v -367.895660 13.777489 -9.084076
v -367.896210 13.777590 9.197998
v -368.356201 29.359070 18.228577
v 441.770081 29.556051 -14.255249
v 441.779297 29.513931 13.558167
vt 0.276596 0.186383
vt 0.296253 0.186546
vt 0.296177 0.195117
vt 0.276524 0.194954
vt 0.315883 0.186294
vt 0.315799 0.195284
vt 0.335602 0.186907
vt 0.335516 0.195477
vt 0.354641 0.186829
vt 0.354550 0.195378
vt 0.374880 0.187172
vt 0.374784 0.195729
vt 0.394458 0.187557
vt 0.394362 0.196129
vt 0.311299 0.691378
vt 0.330495 0.691994
vt 0.330455 0.697219
vt 0.311268 0.696262
vt 0.292141 0.691913
vt 0.292234 0.697135
vt 0.272465 0.693111
vt 0.273898 0.698365
vt 0.369035 0.691341
vt 0.388237 0.694293
vt 0.387307 0.699544
vt 0.368614 0.697533
vt 0.348571 0.697477
vt 0.348979 0.690504
vt 0.348395 0.724666
vt 0.340456 0.724666
vt 0.339892 0.708672
vt 0.324209 0.091568
vt 0.336362 0.084973
vt 0.337030 0.090812
vt 0.329446 0.094486
vt 0.323518 0.106270
vt 0.328662 0.103262
vt 0.335844 0.114269
vt 0.335828 0.108329
vt 0.348130 0.108182
vt 0.343515 0.104826
vt 0.349673 0.093097
vt 0.344553 0.095932
vt 0.336533 0.099539
vt 0.348652 0.150285
vt 0.336136 0.151450
vt 0.336689 0.125901
vt 0.343146 0.125222
vt 0.323677 0.149695
vt 0.329801 0.124903
vt 0.312076 0.145120
vt 0.323271 0.122396
vt 0.302112 0.138058
vt 0.317962 0.118793
vt 0.370628 0.139603
vt 0.360413 0.145886
vt 0.350188 0.123060
vt 0.356617 0.119124
vt 0.353509 0.175029
vt 0.335232 0.176868
vt 0.316613 0.173580
vt 0.299124 0.166515
vt 0.284114 0.154694
vt 0.388173 0.157397
vt 0.372200 0.168577
vt 0.322052 0.708678
vt 0.322042 0.724636
vt 0.313180 0.724690
vt 0.339952 0.740741
vt 0.322628 0.741477
vn -0.205661 -0.849107 0.486541
vn -0.205676 -0.849054 -0.486625
vn 0.000432 -0.865267 -0.501312
vn 0.000363 -0.864917 0.501915
vn -0.209396 0.000077 -0.977831
vn 0.000664 0.000344 -1.000000
vn -0.208111 0.840553 -0.500161
vn 0.000405 0.854917 -0.518764
vn -0.209320 0.848494 0.486048
vn 0.000500 0.862932 0.505320
vn -0.205125 0.011186 0.978672
vn 0.000688 0.025325 0.999679
vn 0.003323 0.000345 -0.999994
vn 0.002736 0.842572 -0.538576
vn 0.887694 0.411373 -0.206814
vn 0.608443 -0.000813 -0.793597
vn 0.002778 -0.865671 -0.500606
vn 0.898042 -0.386450 -0.210185
vn 0.002694 -0.873211 0.487335
vn 0.884330 -0.400467 0.239973
vn 0.002874 0.003110 0.999991
vn 0.526134 0.063729 0.848011
vn 0.845395 0.456262 0.277726
vn 0.002189 0.871411 0.490549
vn 0.999873 0.003012 -0.015634
vn -0.193724 -0.841691 -0.504011
vn -0.197599 -0.856835 0.476223
vn -0.264770 -0.832849 0.486065
vn -0.269345 -0.818287 -0.507799
vn -0.196799 -0.000018 -0.980444
vn -0.266046 0.000001 -0.963960
vn -0.194590 0.843985 -0.499824
vn -0.268440 0.822771 -0.500987
vn -0.196477 0.851130 0.486800
vn -0.265115 0.833057 0.485521
vn -0.203068 -0.005122 0.979151
vn -0.259168 -0.006963 0.965807
vn -0.999413 0.004030 0.034009
vn -0.267043 0.828669 0.491931
vn -0.267618 0.829464 -0.490275
vn -0.268070 0.000285 -0.963399
vn -0.264822 -0.834101 -0.483885
vn -0.265303 -0.835276 0.481590
vn -0.266100 0.001536 0.963944
vn 0.999688 0.005063 0.024457
s 1
g Pen
usemtl initialShadingGroup
f 1/1/1 2/2/2 15/3/3 16/4/4
f 2/2/2 3/5/5 14/6/6 15/3/3
f 3/5/5 4/7/7 13/8/8 14/6/6
f 4/7/7 5/9/9 18/10/10 13/8/8
f 5/9/9 6/11/11 17/12/12 18/10/10
f 6/11/11 1/13/1 16/14/4 17/12/12
f 22/15/13 23/16/14 7/17/15 8/18/16
f 21/19/17 22/15/13 8/18/16 9/20/18
f 20/21/19 21/19/17 9/20/18 10/22/20
f 19/23/21 20/24/19 10/25/20 11/26/22
f 19/23/21 11/26/22 12/27/23 24/28/24
f 23/16/14 24/28/24 12/27/23 7/17/15
f 8/29/16 44/30/25 9/31/18
f 18/10/10 17/12/12 19/23/21 24/28/24
f 17/12/12 16/14/4 20/24/19 19/23/21
f 16/4/4 15/3/3 21/19/17 20/21/19
f 15/3/3 14/6/6 22/15/13 21/19/17
f 14/6/6 13/8/8 23/16/14 22/15/13
f 13/8/8 18/10/10 24/28/24 23/16/14
f 35/32/26 36/33/27 26/34/28 27/35/29
f 34/36/30 35/32/26 27/35/29 28/37/31
f 33/38/32 34/36/30 28/37/31 29/39/33
f 32/40/34 33/38/32 29/39/33 30/41/35
f 37/42/36 32/40/34 30/41/35 31/43/37
f 36/33/27 37/42/36 31/43/37 26/34/28
f 27/35/29 26/34/28 25/44/38
f 28/37/31 27/35/29 25/44/38
f 29/39/33 28/37/31 25/44/38
f 30/41/35 29/39/33 25/44/38
f 31/43/37 30/41/35 25/44/38
f 26/34/28 31/43/37 25/44/38
f 38/45/39 39/46/40 33/47/32 32/48/34
f 39/46/40 40/49/41 34/50/30 33/47/32
f 40/49/41 41/51/42 35/52/26 34/50/30
f 41/51/42 42/53/43 36/54/27 35/52/26
f 42/55/43 43/56/44 37/57/36 36/58/27
f 43/56/44 38/45/39 32/48/34 37/57/36
f 5/59/9 4/60/7 39/46/40 38/45/39
f 4/60/7 3/61/5 40/49/41 39/46/40
f 3/61/5 2/62/2 41/51/42 40/49/41
f 2/62/2 1/63/1 42/53/43 41/51/42
f 1/64/1 6/65/11 43/56/44 42/55/43
f 6/65/11 5/59/9 38/45/39 43/56/44
f 10/66/20 45/67/45 11/68/22
f 9/31/18 44/30/25 45/67/45 10/66/20
f 8/29/16 7/69/15 44/30/25
f 45/67/45 44/30/25 7/69/15 12/70/23
f 11/68/22 45/67/45 12/70/23
