# 3ds Max Wavefront OBJ Exporter v0.97b - (c)2007 guruware
# File Created: 08.06.2015 11:25:28

#
# object Plane001
#

v  -3.9001 0.0000 6.3273
v  3.9001 0.0000 6.3273
v  -3.9001 0.0000 -6.3273
v  3.9001 0.0000 -6.3273
# 4 vertices

vn 0.0000 1.0000 -0.0000
vn 0.0000 1.0000 -0.0000
vn 0.0000 1.0000 -0.0000
vn 0.0000 1.0000 -0.0000
vn 0.0000 1.0000 -0.0000
vn 0.0000 1.0000 -0.0000
# 6 vertex normals

vt 0.9287 0.9181 0.0000
vt 0.1056 0.9181 0.0000
vt 0.1056 0.0991 0.0000
vt 0.9287 0.0991 0.0000
# 4 texture coords

g Plane001
s 1
f 1/2/1 2/3/2 4/4/3 
f 4/4/4 3/1/5 1/2/6 
# 2 faces

