# This file uses centimeters as units for non-parametric coordinates.

mtllib Mesh_RockFormation_06.mtl
g default
v -193.850769 386.164856 205.495209
v 187.558975 328.004028 205.495209
v -297.034515 1362.078491 213.851105
v 291.375946 1391.280518 213.851105
v -250.676651 1240.990234 -213.851105
v 242.013931 1270.192139 -213.851105
v -193.850769 519.180603 -205.495209
v 187.558975 461.019775 -205.495209
v 280.903564 849.779907 311.184418
v -8.604635 1437.277954 270.108521
v -375.791351 1402.266113 -0.000000
v 351.665558 1400.937622 -0.000000
v -9.167210 1301.976929 -270.108521
v -372.160034 851.130432 -308.785217
v 280.903564 862.453552 -311.184418
v -0.507901 457.964996 -259.554474
v -224.534470 311.063873 -0.000000
v 244.040314 203.192596 -0.000000
v -0.507901 324.949280 259.554474
v -372.160034 832.864685 308.785217
v -0.684847 851.199097 313.416931
v -8.604634 1567.844116 -0.000002
v -0.684847 863.403564 -425.266266
v -0.507900 92.484161 0.000002
v 361.664276 854.750671 -0.000002
v -484.120544 841.997559 0.000002
v -5.131905 534.523499 339.470581
v -220.262558 836.560547 431.732819
v 107.541588 288.086670 241.690369
v 236.509872 531.321838 247.707123
v 168.120163 851.199097 396.691040
v -1.811699 1170.894165 361.715576
v 272.711792 1142.365845 267.460571
v 176.510605 1460.476196 251.518021
v -294.829895 1143.055420 267.386353
v -178.660675 1418.444580 251.518021
v -349.765869 1455.656860 126.852577
v -8.604635 1607.020020 147.265625
v -206.026001 1547.984985 -0.000000
v 331.893066 1467.880005 126.852577
v 206.299240 1596.780151 -0.000000
v -8.604635 1433.928223 -147.265625
v 275.939941 1278.845459 -126.852577
v 176.510605 1368.805786 -251.518021
v -294.829895 1266.622437 -126.852577
v -178.660675 1326.774292 -251.518021
v -294.829895 1084.970581 -267.386353
v -1.811699 1157.288330 -361.715576
v -220.262558 853.604431 -394.045990
v 272.711792 1084.438110 -267.460571
v 168.120163 863.403564 -396.691040
v -5.131905 651.419983 -339.470581
v 236.509872 649.276794 -247.707123
v 107.541588 421.102417 -241.690369
v -291.360168 657.960083 -249.420364
v -102.178543 465.415161 -241.690369
v -207.998489 430.581909 -121.896019
v -0.507901 236.131210 -141.511459
v -118.539337 114.406639 -0.000000
v 226.720764 325.562195 -121.896019
v 124.928848 57.390480 -0.000000
v -0.507901 103.115494 141.511459
v 226.720764 192.546463 121.896019
v -207.998489 297.566132 121.896019
v 324.705963 501.658905 -0.000000
v 341.414886 848.554016 169.565765
v 341.414886 861.632935 -169.565765
v 352.028046 1111.397827 -0.000000
v -356.033630 572.627197 -0.000000
v -456.027100 851.130432 -168.352509
v -456.027100 832.864685 168.352509
v -403.361481 1121.329224 -0.000000
v -102.178543 332.399475 241.690369
v -291.360168 544.293579 249.420364
v -165.584320 532.832092 316.170776
v 120.885094 539.949280 317.369598
v 160.390976 1170.446777 337.253906
v -160.930908 1165.241211 337.968567
v -192.343338 1583.911255 137.059113
v 191.404922 1629.324585 137.059113
v 191.404922 1448.261475 -137.059113
v -192.343338 1402.848145 -137.059113
v -160.930908 1139.357910 -337.968567
v 160.390976 1144.077148 -337.253906
v 120.885094 655.052002 -317.369598
v -165.584320 650.287720 -316.170776
v -110.358940 254.015503 -131.703735
v 116.235214 201.519638 -131.703735
v 116.235214 68.503868 131.703735
v -110.358940 120.999794 131.703735
v 300.142303 476.409485 131.703735
v 300.142303 609.425232 -131.703735
v 331.619904 1038.949097 -144.573456
v 331.619904 1162.365234 144.573456
v -345.264923 646.532166 -134.687363
v -345.264923 527.221863 134.687363
v -376.014984 1168.750732 144.198898
v -376.014984 1042.461060 -144.198898
vt 0.614835 0.340548
vt 0.655568 0.309729
vt 0.682140 0.386422
vt 0.617389 0.403866
vt 0.699827 0.280594
vt 0.761117 0.368569
vt 0.802345 0.492914
vt 0.700148 0.488855
vt 0.624047 0.486350
vt 0.307931 0.296611
vt 0.355016 0.326541
vt 0.304772 0.400705
vt 0.247624 0.370540
vt 0.388953 0.354797
vt 0.373004 0.411714
vt 0.358233 0.495855
vt 0.295960 0.497141
vt 0.213991 0.486240
vt 0.314096 0.587849
vt 0.239225 0.612031
vt 0.374481 0.566278
vt 0.410061 0.618532
vt 0.371208 0.659878
vt 0.306909 0.716581
vt 0.703622 0.590638
vt 0.632090 0.571663
vt 0.774073 0.624976
vt 0.695014 0.722902
vt 0.642209 0.661447
vt 0.601788 0.621245
vt 0.569492 0.700026
vt 0.554816 0.632017
vt 0.594254 0.780464
vt 0.482509 0.789437
vt 0.492347 0.699253
vt 0.497795 0.623036
vt 0.437841 0.692815
vt 0.406220 0.774790
vt 0.453551 0.626651
vt 0.507936 0.613989
vt 0.508035 0.689956
vt 0.518251 0.785947
vt 0.585559 0.665955
vt 0.630123 0.750304
vt 0.574293 0.605024
vt 0.617308 0.603605
vt 0.642022 0.636855
vt 0.710707 0.691788
vt 0.407999 0.674313
vt 0.423002 0.617203
vt 0.366791 0.752642
vt 0.278705 0.688111
vt 0.346312 0.642767
vt 0.377042 0.614059
vt 0.297695 0.587331
vt 0.362357 0.563523
vt 0.223814 0.613278
vt 0.201563 0.495150
vt 0.300167 0.494195
vt 0.367080 0.493733
vt 0.693284 0.581731
vt 0.761206 0.621981
vt 0.637112 0.552826
vt 0.653304 0.496364
vt 0.714028 0.500823
vt 0.794445 0.506736
vt 0.707877 0.422172
vt 0.770554 0.405465
vt 0.641549 0.433181
vt 0.628731 0.375528
vt 0.664694 0.348381
vt 0.716812 0.324770
vt 0.305833 0.417221
vt 0.368535 0.429607
vt 0.232335 0.396804
vt 0.282499 0.313179
vt 0.326951 0.341709
vt 0.368314 0.371482
vt 0.405493 0.281871
vt 0.416914 0.345116
vt 0.375271 0.234844
vt 0.487932 0.197155
vt 0.493462 0.255110
vt 0.491031 0.322968
vt 0.586808 0.294168
vt 0.621204 0.247604
vt 0.572870 0.353468
vt 0.504568 0.336097
vt 0.504589 0.272710
vt 0.508265 0.214174
vt 0.431851 0.278528
vt 0.404845 0.230468
vt 0.442750 0.333709
vt 0.572619 0.258943
vt 0.561668 0.319973
vt 0.595485 0.209595
vt 0.440817 0.404308
vt 0.507686 0.410484
vt 0.509158 0.491482
vt 0.428769 0.492537
vt 0.575788 0.429806
vt 0.587191 0.494303
vt 0.576212 0.538087
vt 0.508538 0.549839
vt 0.440020 0.562273
vt 0.427601 0.422753
vt 0.492176 0.406006
vt 0.492821 0.489794
vt 0.427915 0.492648
vt 0.557228 0.400699
vt 0.559696 0.486850
vt 0.562636 0.570081
vt 0.492923 0.562493
vt 0.426290 0.550653
vn -0.614159 -0.464321 0.638134
vn -0.338248 -0.422340 0.840962
vn -0.178404 -0.303239 0.936065
vn -0.666097 -0.389364 0.636168
vn -0.048156 -0.394857 0.917480
vn 0.031975 -0.187613 0.981722
vn 0.049927 -0.029371 0.998321
vn -0.183092 -0.027435 0.982713
vn -0.724397 -0.025329 0.688918
vn 0.245377 -0.381415 0.891242
vn 0.210058 -0.221779 0.952202
vn 0.612006 -0.290397 0.735607
vn 0.716317 -0.233906 0.657402
vn 0.752673 -0.060468 0.655611
vn 0.187232 -0.045367 0.981268
vn 0.209402 0.172289 0.962532
vn 0.018935 0.161180 0.986743
vn 0.740358 0.120899 0.661251
vn 0.694982 0.199382 0.690830
vn 0.240759 0.412375 0.878625
vn -0.036814 0.425812 0.904062
vn -0.177654 0.216157 0.960060
vn -0.659423 0.249534 0.709151
vn -0.273043 0.408142 0.871130
vn -0.609138 0.260322 0.749122
vn -0.348626 0.862402 0.367047
vn -0.818869 0.479590 0.315352
vn -0.102931 0.890839 0.442506
vn -0.098858 0.843297 -0.528277
vn -0.363634 0.785207 -0.501219
vn -0.875380 0.381770 -0.296583
vn 0.284644 0.894477 0.344801
vn 0.886262 0.378055 0.267607
vn 0.932218 0.262198 -0.249443
vn 0.345029 0.797958 -0.494184
vn 0.319778 0.631029 -0.706785
vn -0.087127 0.725132 -0.683076
vn 0.856875 0.246390 -0.452833
vn 0.800389 0.295873 -0.521379
vn 0.263980 0.589771 -0.763207
vn -0.048677 0.574071 -0.817358
vn -0.341541 0.632209 -0.695458
vn -0.763505 0.342416 -0.547551
vn -0.321886 0.586605 -0.743158
vn -0.724802 0.384671 -0.571568
vn -0.295222 0.309084 -0.904053
vn -0.666937 0.334170 -0.665977
vn -0.012941 0.309813 -0.950710
vn -0.002971 -0.031182 -0.999509
vn -0.324373 -0.039015 -0.945124
vn -0.710898 -0.033927 -0.702477
vn 0.326170 0.282148 -0.902223
vn 0.774452 0.198330 -0.600741
vn 0.747192 -0.082948 -0.659412
vn 0.359206 -0.048841 -0.931979
vn 0.314447 -0.361253 -0.877849
vn -0.008467 -0.377868 -0.925821
vn 0.693240 -0.303850 -0.653524
vn 0.615558 -0.301272 -0.728233
vn 0.243019 -0.392138 -0.887226
vn -0.051987 -0.410088 -0.910563
vn -0.278912 -0.422823 -0.862223
vn -0.612477 -0.482629 -0.626052
vn -0.339100 -0.436777 -0.833209
vn -0.603774 -0.489648 -0.629048
vn -0.497056 -0.509717 -0.702228
vn -0.735569 -0.440481 -0.514699
vn -0.122680 -0.561570 -0.818284
vn -0.205280 -0.877747 -0.432921
vn -0.611355 -0.722268 -0.323379
vn -0.852460 -0.465143 -0.238651
vn 0.261305 -0.571132 -0.778157
vn 0.763682 -0.329875 -0.554953
vn 0.877508 -0.429276 -0.213779
vn 0.331442 -0.868251 -0.369169
vn 0.290057 -0.782730 0.550636
vn -0.158129 -0.721899 0.673689
vn 0.818074 -0.413439 0.399778
vn -0.547365 -0.671798 0.499078
vn -0.827623 -0.480249 0.290520
vn 0.928759 -0.198775 0.312883
vn 0.978799 -0.189595 -0.077505
vn 0.998702 -0.050739 -0.004539
vn 0.955755 -0.053329 0.289288
vn 0.908333 -0.205370 -0.364354
vn 0.951771 -0.069916 -0.298737
vn 0.948045 0.110221 -0.298432
vn 0.995482 0.057609 -0.075482
vn 0.962075 0.034361 0.270613
vn -0.801164 -0.472949 -0.366681
vn -0.882492 -0.443528 -0.156494
vn -0.996333 -0.063966 -0.056826
vn -0.931131 -0.048744 -0.361413
vn -0.872547 -0.430078 0.231723
vn -0.946941 -0.047089 0.317939
vn -0.916236 0.189561 0.352956
vn -0.965950 0.232640 -0.113225
vn -0.865474 0.321189 -0.384438
s 1
g pCube1
usemtl initialShadingGroup
f 1/1/1 73/2/2 75/3/3 74/4/4
f 73/2/2 19/5/5 27/6/6 75/3/3
f 75/3/3 27/6/6 21/7/7 28/8/8
f 74/4/4 75/3/3 28/8/8 20/9/9
f 19/10/5 29/11/10 76/12/11 27/13/6
f 29/11/10 2/14/12 30/15/13 76/12/11
f 76/12/11 30/15/13 9/16/14 31/17/15
f 27/13/6 76/12/11 31/17/15 21/18/7
f 21/18/7 31/17/15 77/19/16 32/20/17
f 31/17/15 9/16/14 33/21/18 77/19/16
f 77/19/16 33/21/18 4/22/19 34/23/20
f 32/20/17 77/19/16 34/23/20 10/24/21
f 20/9/9 28/8/8 78/25/22 35/26/23
f 28/8/8 21/7/7 32/27/17 78/25/22
f 78/25/22 32/27/17 10/28/21 36/29/24
f 35/26/23 78/25/22 36/29/24 3/30/25
f 3/30/25 36/29/24 79/31/26 37/32/27
f 36/29/24 10/28/21 38/33/28 79/31/26
f 79/31/26 38/33/28 22/34/29 39/35/30
f 37/32/27 79/31/26 39/35/30 11/36/31
f 10/24/21 34/23/20 80/37/32 38/38/28
f 34/23/20 4/22/19 40/39/33 80/37/32
f 80/37/32 40/39/33 12/40/34 41/41/35
f 38/38/28 80/37/32 41/41/35 22/42/29
f 22/42/29 41/41/35 81/43/36 42/44/37
f 41/41/35 12/40/34 43/45/38 81/43/36
f 81/43/36 43/45/38 6/46/39 44/47/40
f 42/44/37 81/43/36 44/47/40 13/48/41
f 11/36/31 39/35/30 82/49/42 45/50/43
f 39/35/30 22/34/29 42/51/37 82/49/42
f 82/49/42 42/51/37 13/52/41 46/53/44
f 45/50/43 82/49/42 46/53/44 5/54/45
f 5/54/45 46/53/44 83/55/46 47/56/47
f 46/53/44 13/52/41 48/57/48 83/55/46
f 83/55/46 48/57/48 23/58/49 49/59/50
f 47/56/47 83/55/46 49/59/50 14/60/51
f 13/48/41 44/47/40 84/61/52 48/62/48
f 44/47/40 6/46/39 50/63/53 84/61/52
f 84/61/52 50/63/53 15/64/54 51/65/55
f 48/62/48 84/61/52 51/65/55 23/66/49
f 23/66/49 51/65/55 85/67/56 52/68/57
f 51/65/55 15/64/54 53/69/58 85/67/56
f 85/67/56 53/69/58 8/70/59 54/71/60
f 52/68/57 85/67/56 54/71/60 16/72/61
f 14/60/51 49/59/50 86/73/62 55/74/63
f 49/59/50 23/58/49 52/75/57 86/73/62
f 86/73/62 52/75/57 16/76/61 56/77/64
f 55/74/63 86/73/62 56/77/64 7/78/65
f 7/78/65 56/77/64 87/79/66 57/80/67
f 56/77/64 16/76/61 58/81/68 87/79/66
f 87/79/66 58/81/68 24/82/69 59/83/70
f 57/80/67 87/79/66 59/83/70 17/84/71
f 16/72/61 54/71/60 88/85/72 58/86/68
f 54/71/60 8/70/59 60/87/73 88/85/72
f 88/85/72 60/87/73 18/88/74 61/89/75
f 58/86/68 88/85/72 61/89/75 24/90/69
f 24/90/69 61/89/75 89/91/76 62/92/77
f 61/89/75 18/88/74 63/93/78 89/91/76
f 89/91/76 63/93/78 2/14/12 29/11/10
f 62/92/77 89/91/76 29/11/10 19/10/5
f 17/84/71 59/83/70 90/94/79 64/95/80
f 59/83/70 24/82/69 62/96/77 90/94/79
f 90/94/79 62/96/77 19/5/5 73/2/2
f 64/95/80 90/94/79 73/2/2 1/1/1
f 2/14/12 63/93/78 91/97/81 30/15/13
f 63/93/78 18/88/74 65/98/82 91/97/81
f 91/97/81 65/98/82 25/99/83 66/100/84
f 30/15/13 91/97/81 66/100/84 9/16/14
f 18/88/74 60/87/73 92/101/85 65/98/82
f 60/87/73 8/70/59 53/69/58 92/101/85
f 92/101/85 53/69/58 15/64/54 67/102/86
f 65/98/82 92/101/85 67/102/86 25/99/83
f 25/99/83 67/102/86 93/103/87 68/104/88
f 67/102/86 15/64/54 50/63/53 93/103/87
f 93/103/87 50/63/53 6/46/39 43/45/38
f 68/104/88 93/103/87 43/45/38 12/40/34
f 9/16/14 66/100/84 94/105/89 33/21/18
f 66/100/84 25/99/83 68/104/88 94/105/89
f 94/105/89 68/104/88 12/40/34 40/39/33
f 33/21/18 94/105/89 40/39/33 4/22/19
f 7/78/65 57/80/67 95/106/90 55/74/63
f 57/80/67 17/84/71 69/107/91 95/106/90
f 95/106/90 69/107/91 26/108/92 70/109/93
f 55/74/63 95/106/90 70/109/93 14/60/51
f 17/84/71 64/95/80 96/110/94 69/107/91
f 64/95/80 1/1/1 74/4/4 96/110/94
f 96/110/94 74/4/4 20/9/9 71/111/95
f 69/107/91 96/110/94 71/111/95 26/108/92
f 26/108/92 71/111/95 97/112/96 72/113/97
f 71/111/95 20/9/9 35/26/23 97/112/96
f 97/112/96 35/26/23 3/30/25 37/32/27
f 72/113/97 97/112/96 37/32/27 11/36/31
f 14/60/51 70/109/93 98/114/98 47/56/47
f 70/109/93 26/108/92 72/113/97 98/114/98
f 98/114/98 72/113/97 11/36/31 45/50/43
f 47/56/47 98/114/98 45/50/43 5/54/45
