# This file uses centimeters as units for non-parametric coordinates.

mtllib Mesh_RockFormation_05.mtl
g default
v -566.330078 20.520020 -182.347168
v -439.199219 20.520020 -97.681885
v -337.529297 20.520020 -43.446533
v -181.150391 20.520020 0.359100
v 19.691406 20.520020 25.540131
v 124.285156 20.520020 -31.768555
v -560.867188 165.872314 -154.089233
v -433.380859 165.872314 -59.563354
v -333.142578 165.872314 -0.857086
v -181.378906 165.872314 48.378498
v 9.089844 165.872314 60.259983
v 124.285156 165.872314 -31.768555
v -357.466797 383.900635 -172.221191
v -299.226563 383.900635 -68.960510
v -260.587891 383.900635 58.654484
v -159.166016 383.900635 158.180542
v 28.941406 383.900635 57.153091
v 124.285156 383.900635 -8.989502
v -379.576172 529.252869 -141.279419
v -322.835938 529.252869 -24.416748
v -239.638672 529.252869 -9.858826
v -131.224609 529.252869 55.284016
v 17.070313 529.252869 63.974998
v 109.447266 529.252869 -37.578003
v -379.419922 601.928955 -141.226074
v -321.326172 601.928955 -17.835999
v -241.144531 601.928955 0.740997
v -131.224609 601.928955 55.284016
v 17.070313 601.928955 63.974998
v 109.447266 601.928955 -37.578003
v -333.898438 747.281250 -172.744629
v -272.173828 747.281250 -80.310181
v -228.761719 747.281250 -33.397888
v -122.455078 747.281250 13.589478
v 7.710938 747.281250 -15.589844
v 95.443359 747.281250 -18.835144
v 285.908203 705.909424 -145.599976
v 278.861328 707.825317 -73.341919
v 261.250000 711.423218 -32.857056
v 207.443359 721.611450 -5.931152
v 117.353516 738.492920 19.338776
v 46.855469 750.547607 -55.413879
v 425.341797 631.019348 -106.780518
v 422.242188 631.883545 -27.699463
v 399.011719 630.870728 14.834656
v 321.435547 625.932861 48.462173
v 179.990234 616.129395 63.451649
v 47.076172 605.221680 -53.652710
v 566.330078 384.017883 -105.293945
v 556.482422 385.810608 -35.115295
v 501.880859 386.700439 -18.001587
v 433.152344 388.779602 57.314068
v 230.789063 388.964539 72.306320
v 47.615234 387.192871 -51.012939
v 559.800781 238.540039 -113.466675
v 560.498047 240.560791 -28.995239
v 517.253906 241.517578 -0.327942
v 418.501953 242.711182 41.073837
v 232.529297 242.987549 45.988865
v 48.984375 241.355225 -91.709595
v 559.785156 165.869873 -113.009277
v 562.867188 168.002197 -23.097534
v 526.058594 169.024170 10.254944
v 418.654297 170.040283 41.636978
v 232.681641 170.316406 46.701153
v 49.136719 168.684082 -90.825073
v 536.330078 20.674316 -117.858521
v 515.130859 22.287598 -54.889038
v 488.769531 23.116943 -24.382202
v 381.248047 24.002441 -0.811371
v 213.769531 24.493408 13.420166
v 79.384766 23.645996 -60.841003
v -290.251953 479.904663 -125.137817
v -191.855469 479.904663 -46.564026
v -103.527344 479.904663 -3.745483
v 47.041016 479.904663 62.262600
v 252.308594 479.904663 39.936546
v 344.835938 479.904663 -93.505493
v -352.478516 625.256897 -92.324097
v -244.441406 625.256897 -2.758148
v -147.458984 625.256897 111.709534
v 17.863281 625.256897 182.347168
v 237.537109 625.256897 145.042847
v 344.835938 625.256897 -93.505493
v -368.035156 843.285156 -92.291992
v -257.587891 843.285156 -5.295776
v -158.441406 843.285156 87.885910
v 10.568359 843.285156 134.078247
v 240.976563 843.285156 133.281799
v 344.835938 843.285156 -51.790283
v -250.253906 988.637451 -100.600708
v -165.382813 988.637451 -5.116028
v -91.226563 988.637451 37.985977
v 36.220703 988.637451 101.270050
v 192.900391 988.637451 86.320938
v 267.019531 988.637451 -108.221313
v -207.494141 1061.313477 -100.600708
v -131.111328 1061.313477 -0.570862
v -68.509766 1061.313477 36.388885
v 41.812500 1061.313477 52.829018
v 178.250000 1061.313477 12.325317
v 242.792969 1061.313477 -116.227539
v -138.679688 1206.666016 -100.600708
v -81.289063 1206.666016 -31.669006
v -43.617188 1206.666016 -0.669495
v 38.535156 1206.666016 9.663666
v 141.062500 1206.666016 -15.551514
v 187.783203 1206.666016 -93.505493
vt 0.410121 0.139698
vt 0.500157 0.193783
vt 0.446072 0.283819
vt 0.356036 0.229734
vt 0.545175 0.220825
vt 0.491091 0.310861
vt 0.635211 0.274909
vt 0.581127 0.364946
vt 0.770266 0.356036
vt 0.716181 0.446072
vt 0.860302 0.410121
vt 0.806217 0.500157
vt 0.364946 0.418873
vt 0.274909 0.364789
vt 0.409964 0.445915
vt 0.500000 0.500000
vt 0.635054 0.581127
vt 0.725091 0.635211
vt 0.310861 0.508909
vt 0.220825 0.454825
vt 0.355879 0.535952
vt 0.445915 0.590036
vt 0.580970 0.671163
vt 0.671006 0.725248
vt 0.283819 0.553927
vt 0.193783 0.499843
vt 0.328837 0.580970
vt 0.418873 0.635054
vt 0.553928 0.716181
vt 0.643964 0.770266
vt 0.229734 0.643964
vt 0.139698 0.589879
vt 0.274752 0.671006
vt 0.364789 0.725091
vt 0.499843 0.806217
vt 0.589879 0.860302
vt 0.549462 0.126470
vt 0.617868 0.167561
vt 0.576777 0.235967
vt 0.508371 0.194876
vt 0.652071 0.188107
vt 0.610980 0.256513
vt 0.720477 0.229198
vt 0.679385 0.297604
vt 0.823085 0.290835
vt 0.781994 0.359241
vt 0.891491 0.331926
vt 0.850400 0.400332
vt 0.515140 0.338576
vt 0.446734 0.297485
vt 0.549343 0.359122
vt 0.617749 0.400213
vt 0.720357 0.461850
vt 0.788763 0.502941
vt 0.474049 0.406982
vt 0.405643 0.365891
vt 0.508251 0.427528
vt 0.576657 0.468619
vt 0.679266 0.530256
vt 0.747672 0.571347
vt 0.453503 0.441185
vt 0.385097 0.400094
vt 0.487706 0.461731
vt 0.556112 0.502822
vt 0.658721 0.564459
vt 0.727126 0.605550
vt 0.412412 0.509591
vt 0.344006 0.468500
vt 0.446615 0.530137
vt 0.515020 0.571228
vt 0.617629 0.632865
vt 0.686035 0.673956
vt 0.311609 0.366701
vt 0.358384 0.394799
vt 0.330286 0.441575
vt 0.283511 0.413477
vt 0.381772 0.408848
vt 0.353674 0.455624
vt 0.428547 0.436946
vt 0.400449 0.483722
vt 0.498711 0.479093
vt 0.470613 0.525869
vt 0.545486 0.507191
vt 0.517388 0.553967
vt 0.288139 0.511738
vt 0.241364 0.483640
vt 0.311527 0.525787
vt 0.358303 0.553885
vt 0.428466 0.596032
vt 0.475241 0.624130
vt 0.260041 0.558514
vt 0.213266 0.530416
vt 0.283429 0.572563
vt 0.330205 0.600660
vt 0.400368 0.642807
vt 0.447143 0.670905
vt 0.245992 0.581901
vt 0.199217 0.553803
vt 0.269380 0.595950
vt 0.316156 0.624048
vt 0.386319 0.666195
vt 0.433094 0.694293
vt 0.217894 0.628677
vt 0.171119 0.600579
vt 0.241282 0.642726
vt 0.288058 0.670824
vt 0.358221 0.712971
vt 0.404997 0.741069
vn -0.567906 -0.162212 0.806951
vn -0.534029 -0.184285 0.825137
vn -0.654285 0.218940 0.723863
vn -0.636612 0.174208 0.751250
vn -0.369935 -0.255344 0.893279
vn -0.560806 -0.067730 0.825172
vn -0.179097 -0.280083 0.943121
vn -0.148630 -0.264536 0.952854
vn 0.199054 -0.203766 0.958570
vn 0.286874 -0.199786 0.936904
vn 0.560288 -0.078053 0.824612
vn 0.583462 -0.069400 0.809170
vn -0.778313 0.223148 0.586885
vn -0.747209 0.312116 0.586739
vn -0.629419 0.109913 0.769253
vn -0.090984 -0.010269 0.995799
vn 0.419866 -0.025483 0.907229
vn 0.626383 0.005990 0.779493
vn -0.793195 -0.099864 0.600724
vn -0.878181 -0.173843 0.445619
vn -0.576495 0.207835 0.790227
vn -0.166206 0.300826 0.939084
vn 0.405938 0.162346 0.899366
vn 0.691929 0.074309 0.718131
vn -0.707936 0.247889 0.661346
vn -0.849830 0.276227 0.448874
vn -0.411767 0.170085 0.895276
vn -0.189687 0.215614 0.957878
vn 0.282616 0.211865 0.935543
vn 0.604998 0.128084 0.785858
vn -0.702786 0.403980 0.585569
vn -0.799768 0.404019 0.444004
vn -0.421376 0.301232 0.855396
vn -0.147830 0.339024 0.929090
vn 0.250200 0.322803 0.912797
vn 0.491044 0.216032 0.843923
vn 0.467021 0.884118 0.015070
vn 0.454896 0.887019 0.079161
vn 0.732903 0.612265 0.296624
vn 0.741572 0.669123 0.048436
vn 0.349828 0.819106 0.454626
vn 0.567380 0.412474 0.712703
vn 0.192588 0.570669 0.798277
vn 0.236792 0.252932 0.938059
vn -0.510287 0.126584 0.850637
vn -0.304092 0.084169 0.948917
vn -0.685795 -0.036469 0.726881
vn -0.627458 -0.045536 0.777318
vn 0.883271 0.304364 0.356645
vn 0.947926 0.311546 0.066153
vn 0.564021 0.148003 0.812389
vn 0.297390 0.042661 0.953803
vn -0.266191 -0.065698 0.961679
vn -0.589027 -0.112998 0.800174
vn 0.911135 0.050885 0.408955
vn 0.999585 0.000059 0.028812
vn 0.486884 0.063579 0.871150
vn 0.199357 -0.054688 0.978400
vn -0.318053 -0.120483 0.940386
vn -0.582168 -0.119966 0.804170
vn 0.921408 -0.172238 0.348340
vn 0.984366 -0.160756 0.071975
vn 0.404730 -0.182236 0.896094
vn 0.138607 -0.173706 0.974995
vn -0.272883 -0.102789 0.956540
vn -0.573645 -0.014782 0.818971
vn 0.893987 -0.298583 0.334119
vn 0.960726 -0.250220 0.119981
vn 0.359615 -0.323022 0.875405
vn 0.112981 -0.275805 0.954551
vn -0.303895 -0.139706 0.942407
vn -0.553966 -0.031020 0.831962
vn -0.575086 -0.413221 0.706062
vn -0.561308 -0.479473 0.674566
vn -0.650420 -0.210575 0.729802
vn -0.619197 -0.180984 0.764094
vn -0.405281 -0.605791 0.684664
vn -0.489360 -0.223685 0.842907
vn -0.073370 -0.633065 0.770614
vn -0.099675 -0.204145 0.973853
vn 0.596729 -0.388290 0.702244
vn 0.512487 -0.169932 0.841713
vn 0.873995 -0.125339 0.469493
vn 0.887082 -0.073011 0.455801
vn -0.662072 0.172794 0.729248
vn -0.639995 0.133952 0.756613
vn -0.507058 0.192800 0.840072
vn -0.121579 0.206730 0.970815
vn 0.579748 0.195024 0.791112
vn 0.886075 0.167497 0.432223
vn -0.606931 0.406269 0.683067
vn -0.633229 0.436983 0.638802
vn -0.406929 0.357893 0.840429
vn -0.093344 0.378166 0.921020
vn 0.489980 0.478067 0.728952
vn 0.807277 0.461124 0.368332
vn -0.655467 0.324334 0.682034
vn -0.725702 0.361376 0.585460
vn -0.327010 0.303798 0.894858
vn 0.037500 0.403559 0.914185
vn 0.609321 0.430428 0.665927
vn 0.842464 0.351857 0.407984
vn -0.661726 0.348625 0.663762
vn -0.731331 0.360397 0.579024
vn -0.287725 0.297243 0.910418
vn 0.085904 0.272445 0.958329
vn 0.571487 0.290711 0.767391
vn 0.846052 0.276409 0.455844
s 1
g polySurface21
usemtl initialShadingGroup
f 1/1/1 2/2/2 8/3/3 7/4/4
f 2/2/2 3/5/5 9/6/6 8/3/3
f 3/5/5 4/7/7 10/8/8 9/6/6
f 4/7/7 5/9/9 11/10/10 10/8/8
f 5/9/9 6/11/11 12/12/12 11/10/10
f 7/4/4 8/3/3 14/13/13 13/14/14
f 8/3/3 9/6/6 15/15/15 14/13/13
f 9/6/6 10/8/8 16/16/16 15/15/15
f 10/8/8 11/10/10 17/17/17 16/16/16
f 11/10/10 12/12/12 18/18/18 17/17/17
f 13/14/14 14/13/13 20/19/19 19/20/20
f 14/13/13 15/15/15 21/21/21 20/19/19
f 15/15/15 16/16/16 22/22/22 21/21/21
f 16/16/16 17/17/17 23/23/23 22/22/22
f 17/17/17 18/18/18 24/24/24 23/23/23
f 19/20/20 20/19/19 26/25/25 25/26/26
f 20/19/19 21/21/21 27/27/27 26/25/25
f 21/21/21 22/22/22 28/28/28 27/27/27
f 22/22/22 23/23/23 29/29/29 28/28/28
f 23/23/23 24/24/24 30/30/30 29/29/29
f 25/26/26 26/25/25 32/31/31 31/32/32
f 26/25/25 27/27/27 33/33/33 32/31/31
f 27/27/27 28/28/28 34/34/34 33/33/33
f 28/28/28 29/29/29 35/35/35 34/34/34
f 29/29/29 30/30/30 36/36/36 35/35/35
s 2
f 37/37/37 38/38/38 44/39/39 43/40/40
f 38/38/38 39/41/41 45/42/42 44/39/39
f 39/41/41 40/43/43 46/44/44 45/42/42
f 40/43/43 41/45/45 47/46/46 46/44/44
f 41/45/45 42/47/47 48/48/48 47/46/46
f 43/40/40 44/39/39 50/49/49 49/50/50
f 44/39/39 45/42/42 51/51/51 50/49/49
f 45/42/42 46/44/44 52/52/52 51/51/51
f 46/44/44 47/46/46 53/53/53 52/52/52
f 47/46/46 48/48/48 54/54/54 53/53/53
f 49/50/50 50/49/49 56/55/55 55/56/56
f 50/49/49 51/51/51 57/57/57 56/55/55
f 51/51/51 52/52/52 58/58/58 57/57/57
f 52/52/52 53/53/53 59/59/59 58/58/58
f 53/53/53 54/54/54 60/60/60 59/59/59
f 55/56/56 56/55/55 62/61/61 61/62/62
f 56/55/55 57/57/57 63/63/63 62/61/61
f 57/57/57 58/58/58 64/64/64 63/63/63
f 58/58/58 59/59/59 65/65/65 64/64/64
f 59/59/59 60/60/60 66/66/66 65/65/65
f 61/62/62 62/61/61 68/67/67 67/68/68
f 62/61/61 63/63/63 69/69/69 68/67/67
f 63/63/63 64/64/64 70/70/70 69/69/69
f 64/64/64 65/65/65 71/71/71 70/70/70
f 65/65/65 66/66/66 72/72/72 71/71/71
s 3
f 73/73/73 74/74/74 80/75/75 79/76/76
f 74/74/74 75/77/77 81/78/78 80/75/75
f 75/77/77 76/79/79 82/80/80 81/78/78
f 76/79/79 77/81/81 83/82/82 82/80/80
f 77/81/81 78/83/83 84/84/84 83/82/82
f 79/76/76 80/75/75 86/85/85 85/86/86
f 80/75/75 81/78/78 87/87/87 86/85/85
f 81/78/78 82/80/80 88/88/88 87/87/87
f 82/80/80 83/82/82 89/89/89 88/88/88
f 83/82/82 84/84/84 90/90/90 89/89/89
f 85/86/86 86/85/85 92/91/91 91/92/92
f 86/85/85 87/87/87 93/93/93 92/91/91
f 87/87/87 88/88/88 94/94/94 93/93/93
f 88/88/88 89/89/89 95/95/95 94/94/94
f 89/89/89 90/90/90 96/96/96 95/95/95
f 91/92/92 92/91/91 98/97/97 97/98/98
f 92/91/91 93/93/93 99/99/99 98/97/97
f 93/93/93 94/94/94 100/100/100 99/99/99
f 94/94/94 95/95/95 101/101/101 100/100/100
f 95/95/95 96/96/96 102/102/102 101/101/101
f 97/98/98 98/97/97 104/103/103 103/104/104
f 98/97/97 99/99/99 105/105/105 104/103/103
f 99/99/99 100/100/100 106/106/106 105/105/105
f 100/100/100 101/101/101 107/107/107 106/106/106
f 101/101/101 102/102/102 108/108/108 107/107/107
