# This file uses centimeters as units for non-parametric coordinates.

mtllib mesh_box_01.mtl
g default
v -0.500000 0.000000 0.500000
v 0.500000 0.000000 0.500000
v -0.500000 1.000000 0.500000
v 0.500000 1.000000 0.500000
v -0.500000 1.000000 -0.500000
v 0.500000 1.000000 -0.500000
v -0.500000 0.000000 -0.500000
v 0.500000 0.000000 -0.500000
vt 0.337237 0.669789
vt 0.659600 0.669789
vt 0.659600 0.992153
vt 0.337237 0.992153
vt 0.327047 0.377724
vt 0.004684 0.377724
vt 0.004684 0.055361
vt 0.327047 0.055361
vt 0.659600 0.377724
vt 0.337237 0.377724
vt 0.337237 0.055361
vt 0.659600 0.055361
vt 0.669789 0.055361
vt 0.992152 0.055361
vt 0.992153 0.377724
vt 0.669789 0.377724
vt 0.669789 0.669789
vt 0.992153 0.669789
vt 0.992153 0.992153
vt 0.669789 0.992153
vt 0.004684 0.669790
vt 0.327047 0.669790
vt 0.327047 0.992153
vt 0.004683 0.992153
vn 0.000000 0.000000 1.000000
vn 0.000000 0.000000 1.000000
vn 0.000000 0.000000 1.000000
vn 0.000000 0.000000 1.000000
vn 0.000000 1.000000 0.000000
vn 0.000000 1.000000 0.000000
vn 0.000000 1.000000 0.000000
vn 0.000000 1.000000 0.000000
vn 0.000000 0.000000 -1.000000
vn 0.000000 0.000000 -1.000000
vn 0.000000 0.000000 -1.000000
vn 0.000000 0.000000 -1.000000
vn 0.000000 -1.000000 0.000000
vn 0.000000 -1.000000 0.000000
vn 0.000000 -1.000000 0.000000
vn 0.000000 -1.000000 0.000000
vn 1.000000 0.000000 0.000000
vn 1.000000 0.000000 0.000000
vn 1.000000 0.000000 0.000000
vn 1.000000 0.000000 0.000000
vn -1.000000 0.000000 0.000000
vn -1.000000 0.000000 0.000000
vn -1.000000 0.000000 0.000000
vn -1.000000 0.000000 0.000000
s off
g mesh_box_01:pCube1
usemtl blinn1SG
f 1/1/1 2/2/2 4/3/3 3/4/4
f 3/5/5 4/6/6 6/7/7 5/8/8
f 5/9/9 6/10/10 8/11/11 7/12/12
f 7/13/13 8/14/14 2/15/15 1/16/16
f 2/17/17 8/18/18 6/19/19 4/20/20
f 7/21/21 1/22/22 3/23/23 5/24/24
