# This file uses centimeters as units for non-parametric coordinates.

mtllib Mesh_Button.mtl
g default
v 849.514771 59.467487 -275.698761
v 799.367432 120.205490 -259.271759
v 722.774292 60.206387 -525.088989
v 681.280579 121.342804 -494.886414
v 524.673523 59.843094 -722.306824
v 494.576782 121.293961 -681.188721
v 275.734497 59.578487 -849.284302
v 259.805298 119.456482 -799.540649
v 0.063010 59.379025 -892.431519
v -0.071176 119.744637 -840.153381
v -276.116180 59.813927 -849.684509
v -260.025757 121.501488 -799.751526
v -524.831299 60.173866 -722.227173
v -494.331207 120.648804 -679.910889
v -722.518066 59.730618 -524.956238
v -679.935059 120.891190 -494.603485
v -850.346497 59.404690 -276.537109
v -800.631775 121.324623 -260.356110
v -892.486145 59.837635 -0.046775
v -841.017151 119.343307 0.511014
v -849.442261 59.869164 276.075653
v -798.961548 120.252357 259.179962
v -722.792786 59.316486 525.246338
v -680.519775 121.869370 494.330139
v -524.819702 60.384937 722.624573
v -494.392792 122.215126 680.750793
v -275.750000 59.976593 849.323059
v -259.022156 120.317444 799.138123
v 0.132144 59.548183 892.508545
v -0.379630 119.529442 841.015686
v 276.291687 60.014236 849.591614
v 260.543518 121.448250 800.221497
v 525.216919 59.535286 722.529663
v 494.660492 120.990295 680.677124
v 722.298584 59.429314 524.888672
v 680.265015 120.445206 494.541748
v 849.796204 59.887928 276.547089
v 799.852417 121.920662 260.006561
v 892.315186 59.328987 -0.169543
v 839.967163 119.530373 -0.405146
v 595.857849 114.300476 -432.456818
v 701.255676 112.523987 -227.705627
v 432.399048 114.293114 -595.829895
v 227.405304 112.651413 -700.661621
v 0.364153 113.800026 -735.958618
v -227.833664 115.288208 -700.160889
v -433.350342 113.513321 -595.378906
v -595.508179 113.414444 -433.339233
v -699.528137 114.867577 -227.774033
v -735.595642 113.651093 0.524879
v -700.345276 112.831375 227.454697
v -596.029419 114.527985 432.365601
v -432.525787 114.525887 596.243042
v -227.435379 112.673065 701.087830
v -0.444259 113.834259 736.172058
v 227.937515 115.061523 700.016235
v 433.220612 113.369385 595.418701
v 595.249146 113.393066 433.164825
v 699.645691 114.770622 227.741196
v 736.908936 113.807709 -0.518179
v -0.000065 85.307121 -0.000131
v 856.234253 0.000003 278.425598
v 728.086670 -0.000002 528.919922
v 528.988037 -0.000012 728.316040
v 278.207458 -0.000003 856.262817
v 0.000000 0.000000 900.083801
v -278.207458 0.000003 856.262817
v -528.988037 0.000012 728.316040
v -728.086670 0.000002 528.919922
v -856.234253 -0.000003 278.425598
v -900.103394 -0.000004 0.041589
v -856.405823 -0.000001 -278.263306
v -728.058716 0.000091 -528.749756
v -528.721436 -0.000001 -727.850708
v -278.051697 0.000001 -856.258728
v 0.000000 0.000000 -899.876221
v 278.051697 -0.000001 -856.258728
v 528.721436 0.000001 -727.850708
v 728.058716 -0.000091 -528.749756
v 856.405823 0.000001 -278.263306
v 900.103394 0.000004 0.041589
v -849.514771 -59.467487 -275.698761
v -799.367432 -120.205490 -259.271759
v -722.774292 -60.206387 -525.088989
v -681.280579 -121.342804 -494.886414
v -524.673523 -59.843094 -722.306824
v -494.576782 -121.293961 -681.188721
v -275.734497 -59.578487 -849.284302
v -259.805298 -119.456482 -799.540649
v -0.063010 -59.379025 -892.431519
v 0.071176 -119.744637 -840.153381
v 276.116180 -59.813927 -849.684509
v 260.025757 -121.501488 -799.751526
v 524.831299 -60.173866 -722.227173
v 494.331207 -120.648804 -679.910889
v 722.518066 -59.730618 -524.956238
v 679.935059 -120.891190 -494.603485
v 850.346497 -59.404690 -276.537109
v 800.631775 -121.324623 -260.356110
v 892.486145 -59.837635 -0.046775
v 841.017151 -119.343307 0.511014
v 849.442261 -59.869164 276.075653
v 798.961548 -120.252357 259.179962
v 722.792786 -59.316486 525.246338
v 680.519775 -121.869370 494.330139
v 524.819702 -60.384937 722.624573
v 494.392792 -122.215126 680.750793
v 275.750000 -59.976593 849.323059
v 259.022156 -120.317444 799.138123
v -0.132144 -59.548183 892.508545
v 0.379630 -119.529442 841.015686
v -276.291687 -60.014236 849.591614
v -260.543518 -121.448250 800.221497
v -525.216919 -59.535286 722.529663
v -494.660492 -120.990295 680.677124
v -722.298584 -59.429314 524.888672
v -680.265015 -120.445206 494.541748
v -849.796204 -59.887928 276.547089
v -799.852417 -121.920662 260.006561
v -892.315186 -59.328987 -0.169543
v -839.967163 -119.530373 -0.405146
v -595.857849 -114.300476 -432.456818
v -701.255676 -112.523987 -227.705627
v -432.399048 -114.293114 -595.829895
v -227.405304 -112.651413 -700.661621
v -0.364153 -113.800026 -735.958618
v 227.833664 -115.288208 -700.160889
v 433.350342 -113.513321 -595.378906
v 595.508179 -113.414444 -433.339233
v 699.528137 -114.867577 -227.774033
v 735.595642 -113.651093 0.524879
v 700.345276 -112.831375 227.454697
v 596.029419 -114.527985 432.365601
v 432.525787 -114.525887 596.243042
v 227.435379 -112.673065 701.087830
v 0.444259 -113.834259 736.172058
v -227.937515 -115.061523 700.016235
v -433.220612 -113.369385 595.418701
v -595.249146 -113.393066 433.164825
v -699.645691 -114.770622 227.741196
v -736.908936 -113.807709 -0.518179
v 0.000065 -85.307121 -0.000131
vt 0.894695 0.619781
vt 0.860168 0.609216
vt 0.876201 0.492860
vt 0.912029 0.492142
vt 0.838512 0.736116
vt 0.809197 0.715603
vt 0.748927 0.829129
vt 0.727371 0.800568
vt 0.634874 0.889588
vt 0.623398 0.855826
vt 0.508014 0.912172
vt 0.507283 0.876319
vt 0.380080 0.894986
vt 0.390623 0.860268
vt 0.264171 0.838236
vt 0.284648 0.808828
vt 0.170972 0.749032
vt 0.199927 0.727453
vt 0.109694 0.635445
vt 0.144030 0.623661
vt 0.088055 0.508109
vt 0.123371 0.507265
vt 0.105502 0.380266
vt 0.140005 0.390979
vt 0.161177 0.263777
vt 0.191136 0.284781
vt 0.251042 0.170957
vt 0.272742 0.199839
vt 0.365086 0.110564
vt 0.376934 0.144563
vt 0.492049 0.087978
vt 0.492479 0.123483
vt 0.619981 0.105214
vt 0.609591 0.139701
vt 0.736153 0.161544
vt 0.715419 0.191041
vt 0.828992 0.251107
vt 0.800245 0.272699
vt 0.889998 0.364734
vt 0.855593 0.376670
vt 0.770412 0.688364
vt 0.815867 0.595838
vt 0.698712 0.762931
vt 0.607934 0.811747
vt 0.506621 0.829558
vt 0.404175 0.815430
vt 0.311265 0.770357
vt 0.237293 0.699243
vt 0.188957 0.608142
vt 0.170681 0.506302
vt 0.184532 0.404432
vt 0.229508 0.311858
vt 0.301247 0.237106
vt 0.392053 0.188285
vt 0.493327 0.170536
vt 0.595848 0.184828
vt 0.688638 0.229835
vt 0.762600 0.300989
vt 0.811074 0.392044
vt 0.829926 0.493849
vt 0.500003 0.500105
vt 0.850193 0.235012
vt 0.915307 0.355971
vt 0.751162 0.139517
vt 0.627560 0.079460
vt 0.491314 0.061284
vt 0.356199 0.085198
vt 0.234645 0.149482
vt 0.139306 0.248791
vt 0.079828 0.372596
vt 0.061221 0.508581
vt 0.084589 0.644095
vt 0.149642 0.765126
vt 0.248883 0.860413
vt 0.372480 0.920637
vt 0.508583 0.938783
vt 0.643637 0.914807
vt 0.765113 0.850457
vt 0.860643 0.751407
vt 0.920176 0.627501
vt 0.938655 0.491525
vt 0.894695 0.619781
vt 0.860168 0.609216
vt 0.876201 0.492860
vt 0.912029 0.492142
vt 0.838512 0.736116
vt 0.809197 0.715603
vt 0.748927 0.829129
vt 0.727371 0.800568
vt 0.634874 0.889588
vt 0.623398 0.855826
vt 0.508014 0.912172
vt 0.507283 0.876319
vt 0.380080 0.894986
vt 0.390623 0.860268
vt 0.264171 0.838236
vt 0.284648 0.808828
vt 0.170972 0.749032
vt 0.199927 0.727453
vt 0.109694 0.635445
vt 0.144030 0.623661
vt 0.088055 0.508109
vt 0.123371 0.507265
vt 0.105502 0.380266
vt 0.140005 0.390979
vt 0.161177 0.263777
vt 0.191136 0.284781
vt 0.251042 0.170957
vt 0.272742 0.199839
vt 0.365086 0.110564
vt 0.376934 0.144563
vt 0.492049 0.087978
vt 0.492479 0.123483
vt 0.619981 0.105214
vt 0.609591 0.139701
vt 0.736153 0.161544
vt 0.715419 0.191041
vt 0.828992 0.251107
vt 0.800245 0.272699
vt 0.889998 0.364734
vt 0.855593 0.376670
vt 0.770412 0.688364
vt 0.815867 0.595838
vt 0.698712 0.762931
vt 0.607934 0.811747
vt 0.506621 0.829558
vt 0.404175 0.815430
vt 0.311265 0.770357
vt 0.237293 0.699243
vt 0.188957 0.608142
vt 0.170681 0.506302
vt 0.184532 0.404432
vt 0.229508 0.311858
vt 0.301247 0.237106
vt 0.392053 0.188285
vt 0.493327 0.170536
vt 0.595848 0.184828
vt 0.688638 0.229835
vt 0.762600 0.300989
vt 0.811074 0.392044
vt 0.829926 0.493849
vt 0.500003 0.500105
vt 0.850193 0.235012
vt 0.915307 0.355971
vt 0.751162 0.139517
vt 0.627560 0.079460
vt 0.491314 0.061284
vt 0.356199 0.085198
vt 0.234645 0.149482
vt 0.139306 0.248791
vt 0.079828 0.372596
vt 0.061221 0.508581
vt 0.084589 0.644095
vt 0.149642 0.765126
vt 0.248883 0.860413
vt 0.372480 0.920637
vt 0.508583 0.938783
vt 0.643637 0.914807
vt 0.765113 0.850457
vt 0.860643 0.751407
vt 0.920176 0.627501
vt 0.938655 0.491525
vn 0.859908 0.428509 -0.277378
vn 0.368341 0.922408 -0.116140
vn 0.388971 0.921246 -0.002868
vn 0.902098 0.431531 -0.000722
vn 0.733975 0.420877 -0.533051
vn 0.314526 0.922008 -0.225774
vn 0.532543 0.420306 -0.734671
vn 0.224794 0.922121 -0.314898
vn 0.278203 0.427896 -0.859946
vn 0.117195 0.922267 -0.368360
vn 0.000806 0.430458 -0.902610
vn 0.002861 0.921623 -0.388077
vn -0.278792 0.427424 -0.859991
vn -0.118972 0.921278 -0.370259
vn -0.532483 0.425270 -0.731852
vn -0.228814 0.921964 -0.312453
vn -0.731618 0.424172 -0.533679
vn -0.311802 0.922180 -0.228831
vn -0.860921 0.425040 -0.279565
vn -0.369012 0.921814 -0.118696
vn -0.903397 0.428803 0.001077
vn -0.386217 0.922404 0.002638
vn -0.859152 0.429118 0.278776
vn -0.366624 0.923046 0.116505
vn -0.733144 0.423524 0.532097
vn -0.316340 0.921302 0.226122
vn -0.531637 0.424314 0.733021
vn -0.226111 0.921795 0.314908
vn -0.278269 0.428672 0.859539
vn -0.115735 0.922968 0.367064
vn -0.000262 0.428219 0.903675
vn -0.002596 0.921575 0.388192
vn 0.278985 0.424777 0.861239
vn 0.118829 0.921530 0.369678
vn 0.533765 0.423296 0.732063
vn 0.229919 0.921561 0.312831
vn 0.732027 0.424843 0.532584
vn 0.313187 0.921547 0.229488
vn 0.859508 0.428536 0.278575
vn 0.369398 0.921683 0.118517
vn -0.036194 0.998872 0.030727
vn -0.042359 0.998984 0.015416
vn -0.030405 0.998900 0.035690
vn -0.014944 0.999029 0.041445
vn 0.005455 0.999005 0.044269
vn 0.014154 0.998922 0.044209
vn 0.024099 0.998940 0.039222
vn 0.038941 0.998929 0.024976
vn 0.043943 0.998930 0.014387
vn 0.044194 0.999015 0.004038
vn 0.042201 0.998976 -0.016292
vn 0.036920 0.998826 -0.031371
vn 0.031780 0.998805 -0.037140
vn 0.016154 0.998961 -0.042614
vn -0.004711 0.998996 -0.044546
vn -0.014079 0.998920 -0.044282
vn -0.024468 0.998927 -0.039313
vn -0.039131 0.998924 -0.024881
vn -0.044734 0.998899 -0.014159
vn -0.045168 0.998968 -0.004730
vn 0.000099 1.000000 -0.000013
vn 0.803067 0.117521 0.584185
vn 0.944254 0.120783 0.306261
vn 0.583381 0.117014 0.803726
vn 0.305721 0.119183 0.944632
vn -0.000675 0.123149 0.992388
vn -0.306918 0.122002 0.943884
vn -0.583717 0.115674 0.803675
vn -0.803839 0.112201 0.584170
vn -0.944776 0.117201 0.306042
vn -0.992750 0.120185 0.001756
vn -0.944986 0.114871 -0.306278
vn -0.802727 0.112136 -0.585709
vn -0.584251 0.114330 -0.803479
vn -0.306865 0.118156 -0.944390
vn 0.000078 0.122199 -0.992506
vn 0.307015 0.120761 -0.944012
vn 0.584220 0.113898 -0.803564
vn 0.803307 0.112063 -0.584927
vn 0.944143 0.119528 -0.307096
vn 0.992237 0.124364 0.000080
vn -0.859908 -0.428509 -0.277378
vn -0.368341 -0.922408 -0.116140
vn -0.388971 -0.921246 -0.002868
vn -0.902098 -0.431531 -0.000722
vn -0.733975 -0.420877 -0.533051
vn -0.314526 -0.922008 -0.225774
vn -0.532543 -0.420306 -0.734671
vn -0.224794 -0.922121 -0.314898
vn -0.278203 -0.427896 -0.859946
vn -0.117195 -0.922267 -0.368360
vn -0.000806 -0.430458 -0.902610
vn -0.002861 -0.921623 -0.388077
vn 0.278792 -0.427424 -0.859991
vn 0.118972 -0.921278 -0.370259
vn 0.532483 -0.425270 -0.731852
vn 0.228814 -0.921964 -0.312453
vn 0.731618 -0.424172 -0.533679
vn 0.311802 -0.922180 -0.228831
vn 0.860921 -0.425040 -0.279565
vn 0.369012 -0.921814 -0.118696
vn 0.903397 -0.428803 0.001077
vn 0.386217 -0.922404 0.002638
vn 0.859152 -0.429118 0.278776
vn 0.366624 -0.923046 0.116505
vn 0.733144 -0.423524 0.532097
vn 0.316340 -0.921302 0.226122
vn 0.531637 -0.424314 0.733021
vn 0.226111 -0.921795 0.314908
vn 0.278269 -0.428672 0.859539
vn 0.115735 -0.922968 0.367064
vn 0.000262 -0.428219 0.903675
vn 0.002596 -0.921575 0.388192
vn -0.278985 -0.424777 0.861239
vn -0.118829 -0.921530 0.369678
vn -0.533765 -0.423296 0.732063
vn -0.229919 -0.921561 0.312831
vn -0.732027 -0.424843 0.532584
vn -0.313187 -0.921547 0.229488
vn -0.859508 -0.428536 0.278575
vn -0.369398 -0.921683 0.118517
vn 0.036194 -0.998872 0.030727
vn 0.042359 -0.998984 0.015416
vn 0.030405 -0.998900 0.035690
vn 0.014944 -0.999029 0.041445
vn -0.005455 -0.999005 0.044269
vn -0.014154 -0.998922 0.044209
vn -0.024099 -0.998940 0.039222
vn -0.038941 -0.998929 0.024976
vn -0.043943 -0.998930 0.014387
vn -0.044194 -0.999015 0.004038
vn -0.042201 -0.998976 -0.016292
vn -0.036920 -0.998826 -0.031371
vn -0.031780 -0.998805 -0.037140
vn -0.016154 -0.998961 -0.042614
vn 0.004711 -0.998996 -0.044546
vn 0.014079 -0.998920 -0.044282
vn 0.024468 -0.998927 -0.039313
vn 0.039131 -0.998924 -0.024881
vn 0.044734 -0.998899 -0.014159
vn 0.045168 -0.998968 -0.004730
vn -0.000099 -1.000000 -0.000013
s 1
g Mesh_Button_Lo:pCylinder2
usemtl initialShadingGroup
f 1/1/1 2/2/2 40/3/3 39/4/4
f 2/2/2 1/1/1 3/5/5 4/6/6
f 4/6/6 3/5/5 5/7/7 6/8/8
f 6/8/8 5/7/7 7/9/9 8/10/10
f 8/10/10 7/9/9 9/11/11 10/12/12
f 10/12/12 9/11/11 11/13/13 12/14/14
f 12/14/14 11/13/13 13/15/15 14/16/16
f 14/16/16 13/15/15 15/17/17 16/18/18
f 16/18/18 15/17/17 17/19/19 18/20/20
f 18/20/20 17/19/19 19/21/21 20/22/22
f 20/22/22 19/21/21 21/23/23 22/24/24
f 22/24/24 21/23/23 23/25/25 24/26/26
f 24/26/26 23/25/25 25/27/27 26/28/28
f 26/28/28 25/27/27 27/29/29 28/30/30
f 28/30/30 27/29/29 29/31/31 30/32/32
f 30/32/32 29/31/31 31/33/33 32/34/34
f 32/34/34 31/33/33 33/35/35 34/36/36
f 34/36/36 33/35/35 35/37/37 36/38/38
f 36/38/38 35/37/37 37/39/39 38/40/40
f 38/40/40 37/39/39 39/4/4 40/3/3
f 2/2/2 4/6/6 41/41/41 42/42/42
f 4/6/6 6/8/8 43/43/43 41/41/41
f 6/8/8 8/10/10 44/44/44 43/43/43
f 8/10/10 10/12/12 45/45/45 44/44/44
f 10/12/12 12/14/14 46/46/46 45/45/45
f 12/14/14 14/16/16 47/47/47 46/46/46
f 14/16/16 16/18/18 48/48/48 47/47/47
f 16/18/18 18/20/20 49/49/49 48/48/48
f 18/20/20 20/22/22 50/50/50 49/49/49
f 20/22/22 22/24/24 51/51/51 50/50/50
f 22/24/24 24/26/26 52/52/52 51/51/51
f 24/26/26 26/28/28 53/53/53 52/52/52
f 26/28/28 28/30/30 54/54/54 53/53/53
f 28/30/30 30/32/32 55/55/55 54/54/54
f 30/32/32 32/34/34 56/56/56 55/55/55
f 32/34/34 34/36/36 57/57/57 56/56/56
f 34/36/36 36/38/38 58/58/58 57/57/57
f 36/38/38 38/40/40 59/59/59 58/58/58
f 38/40/40 40/3/3 60/60/60 59/59/59
f 40/3/3 2/2/2 42/42/42 60/60/60
f 42/42/42 41/41/41 61/61/61
f 61/61/61 41/41/41 43/43/43
f 61/61/61 43/43/43 44/44/44
f 61/61/61 44/44/44 45/45/45
f 61/61/61 45/45/45 46/46/46
f 61/61/61 46/46/46 47/47/47
f 61/61/61 47/47/47 48/48/48
f 61/61/61 48/48/48 49/49/49
f 61/61/61 49/49/49 50/50/50
f 61/61/61 50/50/50 51/51/51
f 61/61/61 51/51/51 52/52/52
f 61/61/61 52/52/52 53/53/53
f 61/61/61 53/53/53 54/54/54
f 61/61/61 54/54/54 55/55/55
f 61/61/61 55/55/55 56/56/56
f 61/61/61 56/56/56 57/57/57
f 61/61/61 57/57/57 58/58/58
f 61/61/61 58/58/58 59/59/59
f 61/61/61 59/59/59 60/60/60
f 61/61/61 60/60/60 42/42/42
f 63/62/62 62/63/63 37/39/39 35/37/37
f 64/64/64 63/62/62 35/37/37 33/35/35
f 65/65/65 64/64/64 33/35/35 31/33/33
f 66/66/66 65/65/65 31/33/33 29/31/31
f 67/67/67 66/66/66 29/31/31 27/29/29
f 68/68/68 67/67/67 27/29/29 25/27/27
f 69/69/69 68/68/68 25/27/27 23/25/25
f 70/70/70 69/69/69 23/25/25 21/23/23
f 71/71/71 70/70/70 21/23/23 19/21/21
f 72/72/72 71/71/71 19/21/21 17/19/19
f 73/73/73 72/72/72 17/19/19 15/17/17
f 74/74/74 73/73/73 15/17/17 13/15/15
f 75/75/75 74/74/74 13/15/15 11/13/13
f 76/76/76 75/75/75 11/13/13 9/11/11
f 77/77/77 76/76/76 9/11/11 7/9/9
f 78/78/78 77/77/77 7/9/9 5/7/7
f 79/79/79 78/78/78 5/7/7 3/5/5
f 80/80/80 79/79/79 3/5/5 1/1/1
f 81/81/81 80/80/80 1/1/1 39/4/4
f 62/63/63 81/81/81 39/4/4 37/39/39
f 82/82/82 83/83/83 121/84/84 120/85/85
f 83/83/83 82/82/82 84/86/86 85/87/87
f 85/87/87 84/86/86 86/88/88 87/89/89
f 87/89/89 86/88/88 88/90/90 89/91/91
f 89/91/91 88/90/90 90/92/92 91/93/93
f 91/93/93 90/92/92 92/94/94 93/95/95
f 93/95/95 92/94/94 94/96/96 95/97/97
f 95/97/97 94/96/96 96/98/98 97/99/99
f 97/99/99 96/98/98 98/100/100 99/101/101
f 99/101/101 98/100/100 100/102/102 101/103/103
f 101/103/103 100/102/102 102/104/104 103/105/105
f 103/105/105 102/104/104 104/106/106 105/107/107
f 105/107/107 104/106/106 106/108/108 107/109/109
f 107/109/109 106/108/108 108/110/110 109/111/111
f 109/111/111 108/110/110 110/112/112 111/113/113
f 111/113/113 110/112/112 112/114/114 113/115/115
f 113/115/115 112/114/114 114/116/116 115/117/117
f 115/117/117 114/116/116 116/118/118 117/119/119
f 117/119/119 116/118/118 118/120/120 119/121/121
f 119/121/121 118/120/120 120/85/85 121/84/84
f 83/83/83 85/87/87 122/122/122 123/123/123
f 85/87/87 87/89/89 124/124/124 122/122/122
f 87/89/89 89/91/91 125/125/125 124/124/124
f 89/91/91 91/93/93 126/126/126 125/125/125
f 91/93/93 93/95/95 127/127/127 126/126/126
f 93/95/95 95/97/97 128/128/128 127/127/127
f 95/97/97 97/99/99 129/129/129 128/128/128
f 97/99/99 99/101/101 130/130/130 129/129/129
f 99/101/101 101/103/103 131/131/131 130/130/130
f 101/103/103 103/105/105 132/132/132 131/131/131
f 103/105/105 105/107/107 133/133/133 132/132/132
f 105/107/107 107/109/109 134/134/134 133/133/133
f 107/109/109 109/111/111 135/135/135 134/134/134
f 109/111/111 111/113/113 136/136/136 135/135/135
f 111/113/113 113/115/115 137/137/137 136/136/136
f 113/115/115 115/117/117 138/138/138 137/137/137
f 115/117/117 117/119/119 139/139/139 138/138/138
f 117/119/119 119/121/121 140/140/140 139/139/139
f 119/121/121 121/84/84 141/141/141 140/140/140
f 121/84/84 83/83/83 123/123/123 141/141/141
f 123/123/123 122/122/122 142/142/142
f 142/142/142 122/122/122 124/124/124
f 142/142/142 124/124/124 125/125/125
f 142/142/142 125/125/125 126/126/126
f 142/142/142 126/126/126 127/127/127
f 142/142/142 127/127/127 128/128/128
f 142/142/142 128/128/128 129/129/129
f 142/142/142 129/129/129 130/130/130
f 142/142/142 130/130/130 131/131/131
f 142/142/142 131/131/131 132/132/132
f 142/142/142 132/132/132 133/133/133
f 142/142/142 133/133/133 134/134/134
f 142/142/142 134/134/134 135/135/135
f 142/142/142 135/135/135 136/136/136
f 142/142/142 136/136/136 137/137/137
f 142/142/142 137/137/137 138/138/138
f 142/142/142 138/138/138 139/139/139
f 142/142/142 139/139/139 140/140/140
f 142/142/142 140/140/140 141/141/141
f 142/142/142 141/141/141 123/123/123
f 69/143/69 70/144/70 118/120/120 116/118/118
f 68/145/68 69/143/69 116/118/118 114/116/116
f 67/146/67 68/145/68 114/116/116 112/114/114
f 66/147/66 67/146/67 112/114/114 110/112/112
f 65/148/65 66/147/66 110/112/112 108/110/110
f 64/149/64 65/148/65 108/110/110 106/108/108
f 63/150/62 64/149/64 106/108/108 104/106/106
f 62/151/63 63/150/62 104/106/106 102/104/104
f 81/152/81 62/151/63 102/104/104 100/102/102
f 80/153/80 81/152/81 100/102/102 98/100/100
f 79/154/79 80/153/80 98/100/100 96/98/98
f 78/155/78 79/154/79 96/98/98 94/96/96
f 77/156/77 78/155/78 94/96/96 92/94/94
f 76/157/76 77/156/77 92/94/94 90/92/92
f 75/158/75 76/157/76 90/92/92 88/90/90
f 74/159/74 75/158/75 88/90/90 86/88/88
f 73/160/73 74/159/74 86/88/88 84/86/86
f 72/161/72 73/160/73 84/86/86 82/82/82
f 71/162/71 72/161/72 82/82/82 120/85/85
f 70/144/70 71/162/71 120/85/85 118/120/120
