# This file uses centimeters as units for non-parametric coordinates.

mtllib Mesh_Jar_003.mtl
g default
v 39.589844 -65.090157 -39.589836
v 0.000031 -65.092789 -55.988029
v 0.000031 -58.238419 -56.194214
v 39.735321 -58.238373 -39.735306
v -39.589172 -65.095245 -39.589199
v -39.735291 -58.238510 -39.735306
v -55.987366 -65.096184 0.000076
v -56.194153 -58.238541 0.000084
v -39.589172 -65.095032 39.589317
v -39.735291 -58.238503 39.735435
v 0.000031 -65.092598 55.988045
v 0.000031 -58.238449 56.194221
v 39.589813 -65.090218 39.589928
v 39.735321 -58.238380 39.735435
v 55.988647 -65.089180 0.000076
v 56.194214 -58.238358 0.000084
v 0.000031 -65.241272 -55.961868
v 39.571014 -65.241272 -39.571003
v 0.020508 -66.324959 0.000084
v -39.570984 -65.241272 -39.571003
v -55.961792 -65.241272 0.000076
v -39.570984 -65.241272 39.571098
v 0.000031 -65.241272 55.961845
v 39.571014 -65.241272 39.571098
v 55.961853 -65.241272 0.000076
v 55.831573 41.851990 0.000076
v 39.478760 41.852997 39.478874
v 0.000031 41.855682 55.830879
v -39.477966 41.858307 39.478172
v -55.830078 41.859436 0.000084
v -39.477966 41.858307 -39.478035
v 0.000031 41.855591 -55.830902
v 39.478729 41.853058 -39.478741
v 33.358490 53.817474 33.358604
v 47.178558 53.814484 0.000084
v 0.000031 53.824738 47.169853
v -33.349854 53.831772 33.350044
v -47.161255 53.834778 0.000084
v -33.349854 53.831757 -33.349907
v 0.000031 53.824768 -47.169746
v 33.358490 53.817459 -33.358475
v 56.030182 40.083435 0.000084
v 39.619324 40.083435 39.619453
v 0.000031 40.083435 56.030190
v -39.619263 40.083435 39.619453
v -56.030151 40.083435 0.000084
v -39.619263 40.083435 -39.619320
v 0.000031 40.083435 -56.030190
v 39.619324 40.083435 -39.619320
v 47.813416 53.065796 0.000084
v 33.807465 53.068726 33.807564
v 0.000031 53.075897 47.804848
v -33.798889 53.082977 33.799019
v -47.796265 53.085953 0.000084
v -33.798889 53.082977 -33.798897
v 0.000031 53.075928 -47.804771
v 33.807404 53.068756 -33.807411
v -18.612793 65.876953 19.087288
v 0.035889 66.007614 25.814156
v 0.035736 66.324951 0.000008
v -25.185242 66.000763 -0.000542
v 18.684540 65.892929 19.087090
v 25.257507 66.015060 0.000549
v 18.684509 65.892929 -19.087082
v 0.035889 66.007614 -25.814140
v -18.612793 65.876938 -19.087273
v 0.053497 63.875885 48.399513
v 35.235535 63.348785 36.011909
v 28.636536 64.894272 29.271194
v 0.036011 65.198853 39.488304
v -35.071228 63.244522 36.036858
v -28.564209 64.888641 29.271828
v -28.564209 64.888641 -29.271767
v 0.035980 65.198868 -39.488243
v 0.053528 63.875946 -48.399391
v -35.071106 63.244583 -36.036827
v 28.636536 64.894272 -29.271149
v 35.235291 63.348999 -36.011639
v 47.338959 63.942596 0.008835
v 38.617401 65.206802 0.000771
v -47.187866 63.833557 0.009796
v -38.543518 65.191895 0.000771
v -36.889709 59.786728 37.794395
v 0.085846 59.805847 52.073387
v -50.685486 59.808289 -0.033569
v -36.889709 59.786713 -37.794319
v 37.156677 59.787262 37.920845
v 51.073761 59.807938 -0.033653
v 37.156677 59.787277 -37.920765
v 0.085876 59.805847 -52.073318
v -34.207214 53.155792 35.060921
v 0.079529 53.155792 48.305428
v 34.464294 53.155792 35.196175
v 34.464233 53.155792 -35.196186
v 0.079498 53.155792 -48.305382
v -34.207275 53.155792 -35.060852
v 47.392212 53.155792 -0.037422
v -47.003845 53.155792 -0.037415
v 48.724762 55.500305 0.039757
v 35.794403 56.378387 36.570107
v 0.066711 55.625061 49.742516
v -35.584656 56.472473 36.466331
v -48.412170 55.633240 -0.039711
v -35.584656 56.472427 -36.466251
v 0.066742 55.625214 -49.742561
v 35.794403 56.378265 -36.569992
vt 0.529782 0.027208
vt 0.618857 0.025607
vt 0.617328 0.039359
vt 0.530803 0.040199
vt 0.701473 0.031427
vt 0.700786 0.044649
vt 0.028576 0.039277
vt 0.110289 0.023778
vt 0.112622 0.038287
vt 0.031402 0.051706
vt 0.198332 0.025405
vt 0.198063 0.038454
vt 0.282559 0.025446
vt 0.282175 0.038639
vt 0.365194 0.026852
vt 0.364917 0.039985
vt 0.446544 0.028649
vt 0.447068 0.041450
vt 0.257934 0.888360
vt 0.226643 0.964926
vt 0.149866 0.888911
vt 0.225920 0.812094
vt 0.149355 0.780803
vt 0.073089 0.812817
vt 0.041798 0.889382
vt 0.073811 0.965648
vt 0.150376 0.996939
vt 0.446749 0.229180
vt 0.365580 0.228912
vt 0.284817 0.228352
vt 0.204507 0.228472
vt 0.124468 0.230786
vt 0.044163 0.239458
vt 0.689929 0.237747
vt 0.608500 0.231157
vt 0.527802 0.229146
vt 0.530014 0.026966
vt 0.618892 0.025307
vt 0.701474 0.031140
vt 0.028525 0.039003
vt 0.110234 0.023467
vt 0.198130 0.025202
vt 0.198543 0.025208
vt 0.282568 0.025156
vt 0.364981 0.026646
vt 0.365410 0.026645
vt 0.446532 0.028361
vt 0.529537 0.026978
vt 0.365578 0.232347
vt 0.446728 0.232609
vt 0.446352 0.258368
vt 0.365312 0.258144
vt 0.284838 0.231795
vt 0.284738 0.257666
vt 0.204609 0.231911
vt 0.205152 0.257852
vt 0.124801 0.234184
vt 0.127438 0.260179
vt 0.044780 0.243006
vt 0.054714 0.269038
vt 0.608222 0.234541
vt 0.689333 0.241317
vt 0.679708 0.266809
vt 0.605812 0.259981
vt 0.527716 0.232577
vt 0.526861 0.258361
vt 0.446345 0.260190
vt 0.365304 0.259966
vt 0.284738 0.259491
vt 0.205191 0.259681
vt 0.127601 0.262014
vt 0.055428 0.270810
vt 0.679040 0.268595
vt 0.605681 0.261812
vt 0.526832 0.260188
vt 0.667169 0.842114
vt 0.678787 0.878458
vt 0.629591 0.877567
vt 0.630632 0.829429
vt 0.666028 0.914495
vt 0.628551 0.925709
vt 0.592021 0.913020
vt 0.580398 0.876677
vt 0.593149 0.840637
vt 0.721028 0.879254
vt 0.699219 0.948234
vt 0.685828 0.934630
vt 0.704331 0.878932
vt 0.701858 0.809833
vt 0.687861 0.822754
vt 0.573346 0.820500
vt 0.554854 0.876206
vt 0.538159 0.875958
vt 0.559881 0.807042
vt 0.571336 0.932381
vt 0.557404 0.945450
vt 0.627914 0.967127
vt 0.628179 0.950733
vt 0.631298 0.788136
vt 0.631004 0.804413
vt 0.731281 0.879571
vt 0.708103 0.803754
vt 0.715780 0.803558
vt 0.739636 0.879606
vt 0.631472 0.778133
vt 0.631555 0.769754
vt 0.708524 0.795939
vt 0.553932 0.800679
vt 0.553952 0.793000
vt 0.705481 0.954835
vt 0.713535 0.955369
vt 0.627571 0.977574
vt 0.705528 0.962725
vt 0.627605 0.986222
vt 0.550833 0.951751
vt 0.550332 0.959787
vt 0.527906 0.875750
vt 0.519550 0.875602
vt 0.546113 0.800076
vt 0.542930 0.951858
vt 0.723391 0.803324
vt 0.744760 0.879678
vt 0.721026 0.955889
vt 0.535536 0.952069
vt 0.514427 0.875549
vt 0.538404 0.799519
vt 0.705521 0.970129
vt 0.627394 0.991094
vt 0.550005 0.967283
vt 0.553952 0.785379
vt 0.631624 0.764603
vt 0.708872 0.788220
vn 0.706712 -0.033004 -0.706731
vn -0.000020 -0.033006 -0.999455
vn -0.000006 -0.000387 -1.000000
vn 0.707105 -0.000383 -0.707109
vn -0.706731 -0.033009 -0.706712
vn -0.707110 -0.000390 -0.707103
vn -0.999455 -0.033011 -0.000001
vn -1.000000 -0.000392 -0.000000
vn -0.706730 -0.033012 0.706712
vn -0.707109 -0.000390 0.707104
vn -0.000019 -0.033011 0.999455
vn -0.000005 -0.000387 1.000000
vn 0.706711 -0.033007 0.706732
vn 0.707104 -0.000383 0.707110
vn 0.999455 -0.033005 -0.000000
vn 1.000000 -0.000382 0.000000
vn 0.000024 -0.999644 -0.026698
vn 0.018971 -0.999641 -0.018948
vn 0.000004 -1.000000 0.000000
vn -0.018789 -0.999646 -0.018811
vn -0.026545 -0.999648 0.000001
vn -0.018794 -0.999646 0.018817
vn 0.000022 -0.999643 0.026705
vn 0.018971 -0.999640 0.018949
vn 0.026860 -0.999639 -0.000000
vn 0.999994 0.003565 -0.000000
vn 0.707099 0.003567 0.707105
vn -0.000005 0.003571 0.999994
vn -0.707105 0.003575 0.707100
vn -0.999994 0.003577 -0.000000
vn -0.707106 0.003575 -0.707099
vn -0.000005 0.003571 -0.999994
vn 0.707101 0.003567 -0.707104
vn 0.602826 0.522593 0.602907
vn 0.852595 0.522573 -0.000001
vn 0.811230 0.584727 0.000000
vn 0.573561 0.584764 0.573654
vn -0.000080 0.522641 0.852553
vn -0.000091 0.584854 0.811139
vn -0.602864 0.522690 0.602786
vn -0.573561 0.584944 0.573470
vn -0.852511 0.522709 -0.000000
vn -0.811048 0.584980 0.000000
vn -0.602864 0.522691 -0.602785
vn -0.573561 0.584944 -0.573470
vn -0.000080 0.522643 -0.852552
vn -0.000091 0.584855 -0.811138
vn 0.602826 0.522595 -0.602906
vn 0.573560 0.584765 -0.573654
vn 0.762703 0.646749 0.000005
vn 0.539284 0.646754 0.539335
vn -0.000028 0.646753 0.762700
vn -0.539309 0.646764 0.539298
vn -0.762680 0.646775 0.000001
vn -0.539304 0.646776 -0.539289
vn -0.000031 0.646766 -0.762688
vn 0.539289 0.646752 -0.539332
vn -0.031622 0.999034 0.030517
vn -0.000240 0.999293 0.037598
vn -0.000356 1.000000 -0.000000
vn -0.038314 0.999266 -0.000001
vn 0.031311 0.999039 0.030673
vn 0.038117 0.999273 0.000000
vn 0.031312 0.999039 -0.030672
vn -0.000240 0.999293 -0.037598
vn -0.031623 0.999034 -0.030518
vn -0.000746 0.880032 0.474913
vn 0.349851 0.871996 0.342384
vn 0.086114 0.992649 0.085049
vn -0.001072 0.993196 0.116451
vn -0.352620 0.869432 0.346044
vn -0.090905 0.992007 0.087511
vn -0.090929 0.992005 -0.087511
vn -0.001073 0.993197 -0.116445
vn -0.000745 0.880031 -0.474916
vn -0.352281 0.869647 -0.345850
vn 0.086130 0.992648 -0.085044
vn 0.349513 0.872205 -0.342197
vn 0.476400 0.879228 0.000611
vn 0.115129 0.993351 -0.000016
vn -0.482697 0.875787 0.000650
vn -0.121836 0.992550 -0.000020
vn 0.002514 0.114021 0.993475
vn -0.710304 0.116642 0.694164
vn -0.621343 -0.498012 0.604911
vn -0.002247 -0.492020 0.870581
vn -0.994123 0.108253 -0.000808
vn -0.875210 -0.483743 -0.000211
vn -0.709881 0.118021 -0.694363
vn -0.620952 -0.497866 -0.605432
vn 0.710480 0.126452 0.692263
vn 0.619199 -0.498242 0.606916
vn 0.992956 0.118446 -0.002813
vn 0.874775 -0.484514 0.003947
vn 0.710499 0.125524 -0.692413
vn 0.619064 -0.498643 -0.606725
vn 0.002517 0.114037 -0.993473
vn -0.002245 -0.492017 -0.870583
vn -0.617913 -0.509883 0.598500
vn -0.003862 -0.503707 0.863866
vn 0.612455 -0.511235 0.602941
vn 0.613922 -0.507889 -0.604275
vn -0.003869 -0.503705 -0.863867
vn -0.617390 -0.509936 -0.598994
vn 0.869195 -0.494444 -0.005021
vn -0.869038 -0.494746 0.000112
s 1
g polySurface103
usemtl GlassJars:phongE1SG
f 1/1/1 2/2/2 3/3/3 4/4/4
f 2/2/2 5/5/5 6/6/6 3/3/3
f 5/7/5 7/8/7 8/9/8 6/10/6
f 7/8/7 9/11/9 10/12/10 8/9/8
f 9/11/9 11/13/11 12/14/12 10/12/10
f 11/13/11 13/15/13 14/16/14 12/14/12
f 13/15/13 15/17/15 16/18/16 14/16/14
f 15/17/15 1/1/1 4/4/4 16/18/16
f 17/19/17 18/20/18 19/21/19
f 20/22/20 17/19/17 19/21/19
f 21/23/21 20/22/20 19/21/19
f 22/24/22 21/23/21 19/21/19
f 23/25/23 22/24/22 19/21/19
f 24/26/24 23/25/23 19/21/19
f 25/27/25 24/26/24 19/21/19
f 18/20/18 25/27/25 19/21/19
f 14/16/14 16/18/16 42/28/26 43/29/27
f 12/14/12 14/16/14 43/29/27 44/30/28
f 10/12/10 12/14/12 44/30/28 45/31/29
f 8/9/8 10/12/10 45/31/29 46/32/30
f 6/10/6 8/9/8 46/32/30 47/33/31
f 3/3/3 6/6/6 47/34/31 48/35/32
f 4/4/4 3/3/3 48/35/32 49/36/33
f 16/18/16 4/4/4 49/36/33 42/28/26
f 2/2/2 1/1/1 18/37/18 17/38/17
f 5/5/5 2/2/2 17/38/17 20/39/20
f 7/8/7 5/7/5 20/40/20 21/41/21
f 9/11/9 7/8/7 21/41/21 22/42/22
f 11/13/11 9/11/9 22/43/22 23/44/23
f 13/15/13 11/13/11 23/44/23 24/45/24
f 15/17/15 13/15/13 24/46/24 25/47/25
f 1/1/1 15/17/15 25/47/25 18/48/18
f 27/49/34 26/50/35 50/51/36 51/52/37
f 28/53/38 27/49/34 51/52/37 52/54/39
f 29/55/40 28/53/38 52/54/39 53/56/41
f 30/57/42 29/55/40 53/56/41 54/58/43
f 31/59/44 30/57/42 54/58/43 55/60/45
f 32/61/46 31/62/44 55/63/45 56/64/47
f 33/65/48 32/61/46 56/64/47 57/66/49
f 26/50/35 33/65/48 57/66/49 50/51/36
f 43/29/27 42/28/26 26/50/35 27/49/34
f 44/30/28 43/29/27 27/49/34 28/53/38
f 45/31/29 44/30/28 28/53/38 29/55/40
f 46/32/30 45/31/29 29/55/40 30/57/42
f 47/33/31 46/32/30 30/57/42 31/59/44
f 48/35/32 47/34/31 31/62/44 32/61/46
f 49/36/33 48/35/32 32/61/46 33/65/48
f 42/28/26 49/36/33 33/65/48 26/50/35
f 51/52/37 50/51/36 35/67/50 34/68/51
f 52/54/39 51/52/37 34/68/51 36/69/52
f 53/56/41 52/54/39 36/69/52 37/70/53
f 54/58/43 53/56/41 37/70/53 38/71/54
f 55/60/45 54/58/43 38/71/54 39/72/55
f 56/64/47 55/63/45 39/73/55 40/74/56
f 57/66/49 56/64/47 40/74/56 41/75/57
f 50/51/36 57/66/49 41/75/57 35/67/50
s 2
f 58/76/58 59/77/59 60/78/60 61/79/61
f 59/77/59 62/80/62 63/81/63 60/78/60
f 60/78/60 63/81/63 64/82/64 65/83/65
f 61/79/61 60/78/60 65/83/65 66/84/66
f 67/85/67 68/86/68 69/87/69 70/88/70
f 71/89/71 67/85/67 70/88/70 72/90/72
f 73/91/73 74/92/74 75/93/75 76/94/76
f 74/92/74 77/95/77 78/96/78 75/93/75
f 79/97/79 78/96/78 77/95/77 80/98/80
f 68/86/68 79/97/79 80/98/80 69/87/69
f 81/99/81 71/89/71 72/90/72 82/100/82
f 76/94/76 81/99/81 82/100/82 73/91/73
f 84/101/83 83/102/84 102/103/85 101/104/86
f 83/102/84 85/105/87 103/106/88 102/107/85
f 85/105/87 86/108/89 104/109/90 103/106/88
f 87/110/91 84/101/83 101/104/86 100/111/92
f 88/112/93 87/110/91 100/113/92 99/114/94
f 89/115/95 88/112/93 99/114/94 106/116/96
f 86/108/89 90/117/97 105/118/98 104/119/90
f 90/117/97 89/115/95 106/120/96 105/118/98
f 91/121/99 92/122/100 101/104/86 102/103/85
f 92/122/100 93/123/101 100/111/92 101/104/86
f 105/118/98 106/120/96 94/124/102 95/125/103
f 104/119/90 105/118/98 95/125/103 96/126/104
f 93/127/101 97/128/105 99/114/94 100/113/92
f 97/128/105 94/129/102 106/116/96 99/114/94
f 96/130/104 98/131/106 103/106/88 104/109/90
f 98/131/106 91/132/99 102/107/85 103/106/88
f 67/85/67 84/101/83 87/110/91 68/86/68
f 71/89/71 83/102/84 84/101/83 67/85/67
f 81/99/81 85/105/87 83/102/84 71/89/71
f 76/94/76 86/108/89 85/105/87 81/99/81
f 75/93/75 90/117/97 86/108/89 76/94/76
f 78/96/78 89/115/95 90/117/97 75/93/75
f 79/97/79 88/112/93 89/115/95 78/96/78
f 68/86/68 87/110/91 88/112/93 79/97/79
f 72/90/72 70/88/70 59/77/59 58/76/58
f 82/100/82 72/90/72 58/76/58 61/79/61
f 70/88/70 69/87/69 62/80/62 59/77/59
f 69/87/69 80/98/80 63/81/63 62/80/62
f 80/98/80 77/95/77 64/82/64 63/81/63
f 77/95/77 74/92/74 65/83/65 64/82/64
f 74/92/74 73/91/73 66/84/66 65/83/65
f 73/91/73 82/100/82 61/79/61 66/84/66
