# Blender v2.72 (sub 0) OBJ File: 'untitled5.blend'
# www.blender.org
o Plane_Plane.002
v 0.784586 0.190767 0.050489
v 0.811675 -0.180625 -0.204909
v 0.735524 -0.674894 -0.178384
v 0.265485 -0.775468 0.099565
v 0.095490 -0.180585 0.221175
v -0.027770 0.171960 -0.067450
v -0.131494 -0.375277 -0.226361
v -0.223260 -0.820507 -0.134893
v -0.495671 -0.617123 0.202310
v -0.624462 -0.024328 0.236342
v -0.748341 0.174764 -0.204952
v -0.828103 -0.447952 -0.239863
v -0.790868 -1.013131 -0.240339
v -0.787240 -1.662063 -0.197013
v 0.832167 -0.303933 0.259017
v 0.844773 -1.793680 0.277120
v 0.845037 -1.018723 0.275764
v 0.478128 0.177513 -0.010465
v 0.808681 -0.000542 0.271873
v 1.116451 0.198277 0.105306
v 0.811056 0.076733 -0.203950
v 0.788776 -0.432243 -0.195569
v 0.504956 -0.224167 -0.239083
v 1.137325 -0.100915 -0.176935
v 0.530178 -0.796408 -0.040586
v 0.490653 -0.649392 -0.165073
v 0.949486 -0.497388 -0.016564
v 0.136607 -0.498928 0.207257
v 0.035010 -0.603015 -0.067591
v 0.519915 -0.722197 0.163654
v 0.011376 0.118610 0.189362
v -0.209180 -0.124550 0.189193
v 0.326818 -0.210589 0.169326
v -0.067721 -0.092152 -0.259429
v -0.337064 0.202535 -0.099806
v 0.289596 0.208928 -0.060419
v -0.140872 -0.613966 -0.203960
v -0.429887 -0.370551 -0.217563
v 0.204832 -0.355076 -0.219696
v -0.383140 -0.832597 0.030165
v -0.497451 -0.749900 -0.118317
v 0.050794 -0.795636 -0.088947
v -0.541136 -0.318951 0.223090
v -0.800909 -0.454120 0.033194
v -0.308998 -0.593517 0.209623
v -0.658930 0.230054 0.093582
v -0.920228 0.090141 0.236624
v -0.351136 -0.062103 0.193624
v -0.815446 -0.149286 -0.259705
v -1.081700 0.174790 -0.232669
v -0.465340 0.152269 -0.200146
v -0.827326 -0.739106 -0.238313
v -1.110022 -0.400257 -0.195202
v -0.538802 -0.426251 -0.200518
v -0.780738 -1.309860 -0.197013
v -1.099879 -1.010578 -0.196974
v -0.554598 -0.999219 -0.218052
v -0.788015 -1.863368 -0.197013
v -1.113265 -1.628089 -0.197013
v -0.556736 -1.634169 -0.197013
v 0.908180 -0.651251 0.265917
v 1.152842 -0.342447 0.195533
v 0.507937 -0.271205 0.245890
v 0.835184 -1.981459 0.240545
v 1.172363 -1.032460 0.227010
v 0.544956 -1.783555 0.191728
v 1.146052 -1.783398 0.295115
v 0.534966 -0.986283 0.216432
v 0.815733 -1.424143 0.302074
v 0.539446 0.043980 0.246045
v 1.140107 -0.054902 0.251630
v 0.489602 0.015459 -0.239355
v 1.128967 0.157216 -0.171677
v 0.527142 -0.432970 -0.215747
v 1.075408 -0.324813 -0.132562
v 0.249119 -0.776801 -0.128295
v 0.779640 -0.639584 0.121673
v -0.088633 -0.371350 0.095664
v 0.319611 -0.468374 0.151843
v -0.287907 0.176634 0.156725
v 0.279743 0.092555 0.191984
v -0.387852 -0.088945 -0.236988
v 0.266970 -0.071689 -0.236362
v -0.456008 -0.554719 -0.213992
v 0.096051 -0.551212 -0.161187
v -0.648643 -0.681540 -0.095859
v -0.104875 -0.846893 0.157108
v -0.842153 -0.215108 0.116023
v -0.329458 -0.334174 0.185116
v -0.988393 0.264117 0.034214
v -0.394271 0.207116 0.109229
v -1.141775 -0.152738 -0.227132
v -0.523249 -0.175744 -0.253143
v -1.125251 -0.706598 -0.188498
v -0.543163 -0.725358 -0.205693
v -1.083615 -1.316756 -0.197013
v -0.561715 -1.305284 -0.197013
v -1.110358 -1.936033 -0.197013
v -0.562741 -1.910189 -0.197013
v 0.579690 -0.614962 0.189636
v 1.159275 -0.680546 0.206583
v 0.549875 -1.969009 0.212399
v 1.144533 -2.054165 0.262652
v 1.148583 -1.423637 0.263201
v 0.563107 -1.383616 0.226562
v 0.785315 0.175869 0.047982
v 0.809747 -0.179803 -0.189930
v 0.729453 -0.665086 -0.168602
v 0.269584 -0.763649 0.091065
v 0.096012 -0.179604 0.206092
v -0.028465 0.158033 -0.061591
v -0.131874 -0.373533 -0.211342
v -0.223165 -0.808697 -0.125446
v -0.490390 -0.610747 0.189652
v -0.624053 -0.026468 0.221376
v -0.749288 0.164587 -0.193804
v -0.827719 -0.447109 -0.224767
v -0.790685 -1.012564 -0.225227
v -0.787240 -1.662063 -0.181889
v 0.831932 -0.303089 0.243918
v 0.846634 -1.792908 0.262130
v 0.845552 -1.019579 0.260673
v 0.478704 0.162434 -0.009448
v 0.808736 -0.005969 0.257756
v 1.117159 0.184089 0.100116
v 0.810665 0.068509 -0.191263
v 0.784723 -0.428526 -0.181480
v 0.503371 -0.223652 -0.224051
v 1.135393 -0.100216 -0.161951
v 0.527487 -0.781802 -0.037727
v 0.490082 -0.642254 -0.151751
v 0.940173 -0.487902 -0.009351
v 0.140685 -0.493645 0.193685
v 0.044234 -0.592357 -0.073076
v 0.517120 -0.710354 0.154672
v 0.011187 0.109209 0.177516
v -0.206498 -0.124000 0.174318
v 0.323988 -0.210506 0.154469
v -0.067913 -0.095497 -0.244681
v -0.338487 0.189699 -0.091935
v 0.289923 0.194467 -0.056001
v -0.142051 -0.610047 -0.189400
v -0.429495 -0.369477 -0.202482
v 0.203725 -0.352970 -0.204760
v -0.378345 -0.818789 0.026280
v -0.493430 -0.737897 -0.110040
v 0.048103 -0.785056 -0.078479
v -0.539023 -0.317027 0.208238
v -0.792638 -0.448065 0.022073
v -0.307503 -0.588735 0.195352
v -0.660516 0.216191 0.087748
v -0.919640 0.084380 0.222652
v -0.353189 -0.064735 0.178873
v -0.815327 -0.149313 -0.244581
v -1.082239 0.166926 -0.219761
v -0.466502 0.141143 -0.189967
v -0.826917 -0.739210 -0.223195
v -1.107819 -0.399363 -0.180265
v -0.540304 -0.425207 -0.185505
v -0.780677 -1.309176 -0.181904
v -1.098170 -1.010055 -0.181956
v -0.555803 -0.998709 -0.202984
v -0.788015 -1.863368 -0.181889
v -1.113265 -1.628089 -0.181889
v -0.556736 -1.634169 -0.181889
v 0.907627 -0.651581 0.250806
v 1.150275 -0.342143 0.180631
v 0.509494 -0.270349 0.230870
v 0.837857 -1.980420 0.225575
v 1.169960 -1.033199 0.212096
v 0.548756 -1.782679 0.177115
v 1.146065 -1.782782 0.280003
v 0.538179 -0.987221 0.201683
v 0.817205 -1.424253 0.287022
v 0.540349 0.036199 0.233108
v 1.139040 -0.058465 0.236970
v 0.488773 0.008521 -0.225942
v 1.129150 0.147228 -0.160321
v 0.526342 -0.431312 -0.200735
v 1.070685 -0.321075 -0.118689
v 0.253552 -0.762562 -0.125778
v 0.772039 -0.626590 0.120210
v -0.081542 -0.365451 0.083678
v 0.317744 -0.466705 0.136928
v -0.288812 0.164246 0.148095
v 0.278925 0.084146 0.179439
v -0.387708 -0.091908 -0.222157
v 0.266727 -0.076151 -0.221913
v -0.455306 -0.551565 -0.199216
v 0.093764 -0.547276 -0.146763
v -0.639970 -0.670187 -0.100823
v -0.104001 -0.832363 0.153002
v -0.836786 -0.211098 0.102464
v -0.331213 -0.334251 0.170094
v -0.989861 0.249164 0.032480
v -0.396003 0.194755 0.100688
v -1.140679 -0.152534 -0.212049
v -0.524082 -0.175953 -0.238043
v -1.122871 -0.706530 -0.173562
v -0.544891 -0.725621 -0.190670
v -1.083099 -1.316207 -0.181907
v -0.562122 -1.304471 -0.181916
v -1.110358 -1.936033 -0.181889
v -0.562741 -1.910189 -0.181889
v 0.582275 -0.614671 0.174737
v 1.156259 -0.681136 0.191774
v 0.553718 -1.968388 0.194623
v 1.145276 -2.052316 0.244563
v 1.147309 -1.424251 0.248143
v 0.566952 -1.383449 0.211936
v -0.675378 -1.886002 -0.197013
v -0.909726 -1.862422 -0.197013
v -0.675378 -1.886002 -0.181889
v -0.909726 -1.862422 -0.181889
v 0.695538 -1.957378 0.227837
v 0.981111 -2.028955 0.248719
v 0.698433 -1.956600 0.212965
v 0.982540 -2.027666 0.233718
vt 0.242053 0.480059
vt 0.242053 0.984089
vt 0.213050 0.984089
vt 0.213050 0.480059
vt 0.213050 0.014039
vt 0.242053 0.014039
vt 0.269692 0.014039
vt 0.269692 0.480059
vt 0.269692 0.984088
vt 0.294529 0.480059
vt 0.294529 0.984089
vt 0.294529 0.014039
vt 0.317552 0.014039
vt 0.317552 0.480059
vt 0.317552 0.984089
vt 0.341126 0.480059
vt 0.341126 0.984089
vt 0.341126 0.014039
vt 0.367816 0.014039
vt 0.367816 0.480059
vt 0.367816 0.984089
vt 0.396024 0.480059
vt 0.396024 0.984089
vt 0.396024 0.014039
vt 0.427450 0.014039
vt 0.427450 0.480059
vt 0.427450 0.984089
vt 0.456037 0.480059
vt 0.456037 0.984089
vt 0.456037 0.014039
vt 0.486698 0.014039
vt 0.486698 0.480059
vt 0.486698 0.984089
vt 0.513178 0.480059
vt 0.513178 0.984089
vt 0.513178 0.014039
vt 0.545615 0.014039
vt 0.545615 0.480059
vt 0.545615 0.984089
vt 0.574142 0.480060
vt 0.574142 0.984089
vt 0.574142 0.014039
vt 0.595757 0.014039
vt 0.595757 0.480060
vt 0.595757 0.984089
vt 0.619187 0.480060
vt 0.619187 0.984089
vt 0.619187 0.014039
vt 0.641967 0.014039
vt 0.641967 0.480060
vt 0.641967 0.984089
vt 0.672530 0.480060
vt 0.672530 0.984089
vt 0.672530 0.014039
vt 0.699474 0.014039
vt 0.699474 0.480060
vt 0.699474 0.984089
vt 0.729605 0.480060
vt 0.729605 0.984089
vt 0.729605 0.014039
vt 0.757690 0.014039
vt 0.757690 0.480060
vt 0.757690 0.984089
vt 0.788420 0.480060
vt 0.788420 0.984089
vt 0.788420 0.014039
vt 0.821470 0.014039
vt 0.821470 0.480060
vt 0.821470 0.984090
vt 0.848010 0.480060
vt 0.848010 0.984089
vt 0.848010 0.014039
vt 0.877492 0.014039
vt 0.877492 0.480060
vt 0.877492 0.984090
vt 0.905621 0.480060
vt 0.905621 0.984090
vt 0.905621 0.014040
vt 0.935641 0.014040
vt 0.935641 0.480060
vt 0.935641 0.984090
vt 0.968303 0.480060
vt 0.968303 0.984090
vt 0.968303 0.014039
vt 0.999598 0.014039
vt 0.999598 0.480060
vt 0.999598 0.732075
vt 0.182996 0.480059
vt 0.182996 0.014039
vt 0.182996 0.984089
vt 0.148504 0.984089
vt 0.148504 0.480059
vt 0.148504 0.014038
vt 0.035636 0.480059
vt 0.035636 0.014038
vt 0.072920 0.014038
vt 0.072920 0.480059
vt 0.072920 0.984088
vt 0.035636 0.984088
vt 0.002468 0.984089
vt 0.002468 0.480059
vt 0.002468 0.247049
vt 0.112333 0.480059
vt 0.112333 0.014039
vt 0.112333 0.984088
vt 0.999598 0.247050
vt 0.999598 0.984090
vt 0.002468 0.732074
vt 0.002468 0.014038
vn -0.048200 0.985000 0.165800
vn -0.038100 0.997000 -0.067200
vn -0.059700 0.514500 0.855400
vn -0.003600 0.358800 0.933400
vn 0.070500 0.235600 0.969300
vn -0.046800 0.938100 0.343200
vn -0.012100 0.660400 -0.750800
vn 0.025800 0.543700 -0.838800
vn 0.054800 0.458700 -0.886900
vn 0.127400 -0.054300 -0.990300
vn 0.104800 -0.034100 -0.993900
vn 0.127700 -0.046200 -0.990700
vn 0.312300 -0.247100 -0.917300
vn 0.268000 -0.245800 -0.931500
vn 0.052900 -0.109600 -0.992600
vn 0.401400 -0.648500 -0.646700
vn 0.037700 -0.472000 -0.880800
vn 0.615800 -0.627200 -0.476900
vn 0.502600 -0.859100 0.096700
vn 0.177900 -0.965700 -0.189000
vn -0.293100 -0.941500 -0.166400
vn -0.271000 -0.781500 0.562000
vn -0.609900 -0.704600 0.362700
vn 0.184800 -0.783000 0.593900
vn 0.123400 -0.110300 0.986200
vn -0.269600 -0.349300 0.897400
vn -0.468800 -0.390000 0.792500
vn -0.034500 -0.064900 0.997300
vn -0.177300 -0.036400 0.983500
vn 0.187100 -0.005500 0.982300
vn 0.054100 0.556000 0.829400
vn 0.012500 0.621500 0.783300
vn 0.059900 0.819000 0.570600
vn 0.045900 0.920700 -0.387400
vn 0.094100 0.848700 -0.520400
vn -0.021700 0.956100 -0.292100
vn 0.016000 0.295000 -0.955400
vn 0.012700 0.221100 -0.975200
vn -0.009600 0.195900 -0.980600
vn 0.025100 -0.115300 -0.993000
vn -0.025900 -0.071000 -0.997100
vn 0.073200 -0.139300 -0.987500
vn 0.151200 -0.260200 -0.953600
vn 0.077900 -0.259100 -0.962700
vn -0.046500 -0.208500 -0.976900
vn -0.006300 -0.780800 -0.624700
vn -0.265900 -0.793600 -0.547200
vn 0.177900 -0.699600 -0.692100
vn -0.057800 -0.960700 0.271500
vn -0.317000 -0.912900 0.256900
vn -0.573400 -0.750600 0.328300
vn -0.349200 -0.421500 0.836900
vn -0.546900 -0.400300 0.735300
vn -0.098900 -0.316200 0.943500
vn 0.116000 0.005100 0.993200
vn -0.139700 -0.127200 0.982000
vn -0.354900 -0.265100 0.896500
vn -0.027000 0.141500 0.989600
vn -0.038800 0.380900 0.923800
vn 0.135800 0.174000 0.975300
vn 0.114500 0.817300 0.564700
vn 0.104900 0.916600 0.385700
vn 0.097100 0.988600 0.114700
vn 0.062600 0.672900 -0.737100
vn 0.035600 0.520000 -0.853400
vn 0.076900 0.735600 -0.673000
vn 0.055100 0.013800 -0.998400
vn -0.007900 0.001800 -0.999900
vn -0.072400 -0.013500 -0.997300
vn -0.025400 -0.055700 -0.998100
vn -0.145700 -0.059100 -0.987600
vn 0.099300 -0.069000 -0.992700
vn 0.114300 0.017400 -0.993300
vn -0.027000 0.006900 -0.999600
vn -0.157300 -0.004500 -0.987500
vn -0.012100 -0.037500 -0.999200
vn -0.113000 -0.034600 -0.993000
vn 0.079700 -0.033700 -0.996200
vn 0.026900 -0.053800 -0.998200
vn -0.004000 -0.045200 -0.999000
vn -0.034100 -0.036300 -0.998800
vn 0.000000 0.000000 -1.000000
vn 0.015500 -0.055800 0.998300
vn 0.169700 -0.020100 0.985300
vn -0.102900 -0.056600 0.993100
vn -0.170900 -0.019200 0.985100
vn 0.036600 0.021800 0.999100
vn 0.199400 0.039000 0.979100
vn -0.124400 -0.078200 0.989100
vn -0.010100 -0.052400 0.998600
vn 0.084200 0.040600 0.995600
vn -0.097300 0.007300 0.995200
vn -0.254200 -0.011100 0.967100
vn -0.278700 0.009200 0.960300
vn -0.218400 0.007100 0.975800
vn -0.117300 -0.184100 0.975900
vn -0.112200 -0.182900 0.976700
vn -0.034100 0.056600 0.997800
vn 0.158900 0.048900 0.986100
vn -0.212500 0.062000 0.975200
vn -0.096200 -0.205500 0.973900
vn -0.077700 -0.144300 0.986500
vn 0.048200 -0.984700 -0.167100
vn 0.002500 -0.355100 -0.934800
vn 0.058700 -0.511200 -0.857500
vn 0.038800 -0.997000 0.067400
vn 0.047000 -0.937800 -0.344100
vn -0.071000 -0.232500 -0.970000
vn -0.025500 -0.539900 0.841300
vn 0.011900 -0.656600 0.754100
vn -0.054100 -0.454600 0.889000
vn -0.127500 0.058900 0.990100
vn -0.104400 0.037600 0.993800
vn -0.127700 0.052900 0.990400
vn -0.268500 0.245500 0.931400
vn -0.308400 0.244600 0.919300
vn -0.048700 0.103900 0.993400
vn -0.402200 0.647800 0.646900
vn -0.037300 0.460500 0.886900
vn -0.616200 0.627300 0.476300
vn -0.181000 0.964800 0.190900
vn -0.505000 0.856800 -0.104700
vn 0.296900 0.939700 0.169800
vn 0.274400 0.780400 -0.561800
vn 0.615000 0.702900 -0.357400
vn -0.187100 0.779700 -0.597500
vn 0.270400 0.348500 -0.897400
vn -0.125800 0.100500 -0.987000
vn 0.468300 0.390500 -0.792600
vn 0.033400 0.070200 -0.996900
vn 0.173900 0.043400 -0.983800
vn -0.192200 0.006600 -0.981300
vn -0.013100 -0.618100 -0.786000
vn -0.054700 -0.554200 -0.830600
vn -0.060300 -0.819600 -0.569700
vn -0.045000 -0.919400 0.390700
vn -0.091800 -0.846600 0.524300
vn 0.021500 -0.954800 0.296400
vn -0.011900 -0.217200 0.976000
vn -0.015700 -0.290700 0.956700
vn 0.010700 -0.192500 0.981200
vn -0.024900 0.116500 0.992900
vn 0.026100 0.071400 0.997100
vn -0.072800 0.141200 0.987300
vn -0.079600 0.254300 0.963800
vn -0.151600 0.257700 0.954300
vn 0.045000 0.203000 0.978100
vn 0.003600 0.778900 0.627100
vn 0.262000 0.788000 0.557200
vn -0.179400 0.695200 0.696000
vn 0.320000 0.912100 -0.256200
vn 0.057800 0.961500 -0.268700
vn 0.578400 0.743000 -0.336600
vn 0.349700 0.418500 -0.838200
vn 0.548100 0.399100 -0.735100
vn 0.100100 0.310900 -0.945200
vn 0.139300 0.127500 -0.982000
vn -0.119800 -0.009600 -0.992800
vn 0.353900 0.271000 -0.895200
vn 0.025600 -0.136000 -0.990400
vn 0.037000 -0.378800 -0.924700
vn -0.138400 -0.169600 -0.975700
vn -0.105000 -0.915600 -0.388100
vn -0.116200 -0.814800 -0.567900
vn -0.096500 -0.988700 -0.115100
vn -0.060500 -0.670000 0.739900
vn -0.033600 -0.516600 0.855600
vn -0.074500 -0.733300 0.675900
vn 0.009100 0.002300 0.999900
vn -0.054100 -0.009800 0.998500
vn 0.073600 0.016900 0.997100
vn 0.025400 0.055900 0.998100
vn 0.146100 0.059400 0.987500
vn -0.099700 0.069400 0.992600
vn 0.027000 -0.006900 0.999600
vn -0.114800 -0.017400 0.993200
vn 0.157800 0.004500 0.987500
vn 0.012100 0.037500 0.999200
vn 0.113100 0.034600 0.993000
vn -0.080000 0.033800 0.996200
vn 0.004000 0.045300 0.999000
vn -0.026900 0.053800 0.998200
vn 0.034100 0.036300 0.998800
vn 0.000000 0.000000 1.000000
vn -0.016000 0.058300 -0.998200
vn -0.170600 0.022100 -0.985100
vn 0.102600 0.059600 -0.992900
vn -0.036500 -0.021900 -0.999100
vn 0.171700 0.019500 -0.985000
vn -0.200300 -0.039000 -0.978900
vn 0.124400 0.079600 -0.989000
vn 0.097300 -0.007200 -0.995200
vn -0.084800 -0.040700 -0.995600
vn 0.009700 0.058100 -0.998300
vn 0.279600 -0.001000 -0.960100
vn 0.254900 0.011100 -0.966900
vn 0.117300 0.184700 -0.975800
vn 0.111200 0.192200 -0.975000
vn 0.069400 0.146800 -0.986700
vn 0.034000 -0.056500 -0.997800
vn -0.159800 -0.049100 -0.985900
vn 0.213200 -0.061800 -0.975000
vn 0.225100 -0.000900 -0.974300
vn 0.097400 0.174900 -0.979800
s 1
f 1/1/1 18/2/2 70/3/3 19/4/4
f 1/1/1 19/4/4 71/5/5 20/6/6
f 1/1/1 20/6/6 73/7/7 21/8/8
f 1/1/1 21/8/8 72/9/9 18/2/2
f 2/10/10 23/11/11 72/9/9 21/8/8
f 2/10/10 21/8/8 73/7/7 24/12/12
f 2/10/10 24/12/12 75/13/13 22/14/14
f 2/10/10 22/14/14 74/15/15 23/11/11
f 3/16/16 26/17/17 74/15/15 22/14/14
f 3/16/16 22/14/14 75/13/13 27/18/18
f 3/16/16 27/18/18 77/19/19 25/20/20
f 3/16/16 25/20/20 76/21/21 26/17/17
f 4/22/22 29/23/23 76/21/21 25/20/20
f 4/22/22 25/20/20 77/19/19 30/24/24
f 4/22/22 30/24/24 79/25/25 28/26/26
f 4/22/22 28/26/26 78/27/27 29/23/23
f 5/28/28 32/29/29 78/27/27 28/26/26
f 5/28/28 28/26/26 79/25/25 33/30/30
f 5/28/28 33/30/30 81/31/31 31/32/32
f 5/28/28 31/32/32 80/33/33 32/29/29
f 6/34/34 35/35/35 80/33/33 31/32/32
f 6/34/34 31/32/32 81/31/31 36/36/36
f 6/34/34 36/36/36 83/37/37 34/38/38
f 6/34/34 34/38/38 82/39/39 35/35/35
f 7/40/40 38/41/41 82/39/39 34/38/38
f 7/40/40 34/38/38 83/37/37 39/42/42
f 7/40/40 39/42/42 85/43/43 37/44/44
f 7/40/40 37/44/44 84/45/45 38/41/41
f 8/46/46 41/47/47 84/45/45 37/44/44
f 8/46/46 37/44/44 85/43/43 42/48/48
f 8/46/46 42/48/48 87/49/49 40/50/50
f 8/46/46 40/50/50 86/51/51 41/47/47
f 9/52/52 44/53/53 86/51/51 40/50/50
f 9/52/52 40/50/50 87/49/49 45/54/54
f 9/52/52 45/54/54 89/55/55 43/56/56
f 9/52/52 43/56/56 88/57/57 44/53/53
f 10/58/58 47/59/59 88/57/57 43/56/56
f 10/58/58 43/56/56 89/55/55 48/60/60
f 10/58/58 48/60/60 91/61/61 46/62/62
f 10/58/58 46/62/62 90/63/63 47/59/59
f 11/64/64 50/65/65 90/63/63 46/62/62
f 11/64/64 46/62/62 91/61/61 51/66/66
f 11/64/64 51/66/66 93/67/67 49/68/68
f 11/64/64 49/68/68 92/69/69 50/65/65
f 12/70/70 53/71/71 92/69/69 49/68/68
f 12/70/70 49/68/68 93/67/67 54/72/72
f 12/70/70 54/72/72 95/73/73 52/74/74
f 12/70/70 52/74/74 94/75/75 53/71/71
f 13/76/76 56/77/77 94/75/75 52/74/74
f 13/76/76 52/74/74 95/73/73 57/78/78
f 13/76/76 57/78/78 97/79/79 55/80/80
f 13/76/76 55/80/80 96/81/81 56/77/77
f 14/82/82 59/83/82 96/81/81 55/80/80
f 14/82/82 55/80/80 97/79/79 60/84/82
f 14/82/82 60/84/82 99/85/82
f 14/82/82 58/86/82 212/87/82
f 15/88/83 62/89/84 71/5/5 19/4/4
f 15/88/83 19/4/4 70/3/3 63/90/85
f 15/88/83 63/90/85 100/91/86 61/92/87
f 15/88/83 61/92/87 101/93/88 62/89/84
f 16/94/89 67/95/90 104/96/91 69/97/92
f 16/94/89 69/97/92 105/98/93 66/99/94
f 16/94/89 66/99/94 102/100/95
f 16/94/89 64/101/96 216/102/97
f 17/103/98 65/104/99 101/93/88 61/92/87
f 17/103/98 61/92/87 100/91/86 68/105/100
f 17/103/98 68/105/100 105/98/93 69/97/92
f 17/103/98 69/97/92 104/96/91 65/104/99
f 211/106/82 58/86/82 14/82/82
f 211/106/82 14/82/82 99/85/82
f 98/107/82 14/82/82 212/87/82
f 98/107/82 59/83/82 14/82/82
f 215/108/101 64/101/96 16/94/89
f 215/108/101 16/94/89 102/100/95
f 103/109/102 67/95/90 16/94/89
f 16/94/89 216/102/97 103/109/102
s 2
f 106/1/103 124/4/104 175/3/105 123/2/106
f 106/1/103 125/6/107 176/5/108 124/4/104
f 106/1/103 126/8/109 178/7/110 125/6/107
f 106/1/103 123/2/106 177/9/111 126/8/109
f 107/10/112 126/8/109 177/9/111 128/11/113
f 107/10/112 129/12/114 178/7/110 126/8/109
f 107/10/112 127/14/115 180/13/116 129/12/114
f 107/10/112 128/11/113 179/15/117 127/14/115
f 108/16/118 127/14/115 179/15/117 131/17/119
f 108/16/118 132/18/120 180/13/116 127/14/115
f 108/16/118 130/20/121 182/19/122 132/18/120
f 108/16/118 131/17/119 181/21/123 130/20/121
f 109/22/124 130/20/121 181/21/123 134/23/125
f 109/22/124 135/24/126 182/19/122 130/20/121
f 109/22/124 133/26/127 184/25/128 135/24/126
f 109/22/124 134/23/125 183/27/129 133/26/127
f 110/28/130 133/26/127 183/27/129 137/29/131
f 110/28/130 138/30/132 184/25/128 133/26/127
f 110/28/130 136/32/133 186/31/134 138/30/132
f 110/28/130 137/29/131 185/33/135 136/32/133
f 111/34/136 136/32/133 185/33/135 140/35/137
f 111/34/136 141/36/138 186/31/134 136/32/133
f 111/34/136 139/38/139 188/37/140 141/36/138
f 111/34/136 140/35/137 187/39/141 139/38/139
f 112/40/142 139/38/139 187/39/141 143/41/143
f 112/40/142 144/42/144 188/37/140 139/38/139
f 112/40/142 142/44/145 190/43/146 144/42/144
f 112/40/142 143/41/143 189/45/147 142/44/145
f 113/46/148 142/44/145 189/45/147 146/47/149
f 113/46/148 147/48/150 190/43/146 142/44/145
f 113/46/148 145/50/151 192/49/152 147/48/150
f 113/46/148 146/47/149 191/51/153 145/50/151
f 114/52/154 145/50/151 191/51/153 149/53/155
f 114/52/154 150/54/156 192/49/152 145/50/151
f 114/52/154 148/56/157 194/55/158 150/54/156
f 114/52/154 149/53/155 193/57/159 148/56/157
f 115/58/160 148/56/157 193/57/159 152/59/161
f 115/58/160 153/60/162 194/55/158 148/56/157
f 115/58/160 151/62/163 196/61/164 153/60/162
f 115/58/160 152/59/161 195/63/165 151/62/163
f 116/64/166 151/62/163 195/63/165 155/65/167
f 116/64/166 156/66/168 196/61/164 151/62/163
f 116/64/166 154/68/169 198/67/170 156/66/168
f 116/64/166 155/65/167 197/69/171 154/68/169
f 117/70/172 154/68/169 197/69/171 158/71/173
f 117/70/172 159/72/174 198/67/170 154/68/169
f 117/70/172 157/74/175 200/73/176 159/72/174
f 117/70/172 158/71/173 199/75/177 157/74/175
f 118/76/178 157/74/175 199/75/177 161/77/179
f 118/76/178 162/78/180 200/73/176 157/74/175
f 118/76/178 160/80/181 202/79/182 162/78/180
f 118/76/178 161/77/179 201/81/183 160/80/181
f 119/82/184 160/80/181 201/81/183 164/83/184
f 119/82/184 165/84/184 202/79/182 160/80/181
f 119/82/184 163/86/184 213/106/184
f 119/82/184 164/83/184 203/107/184
f 120/88/185 124/4/104 176/5/108 167/89/186
f 120/88/185 168/90/187 175/3/105 124/4/104
f 120/88/185 166/92/188 205/91/189 168/90/187
f 120/88/185 167/89/186 206/93/190 166/92/188
f 121/94/191 174/97/192 209/96/193 172/95/194
f 121/94/191 171/99/195 210/98/196 174/97/192
f 121/94/191 169/101/197 217/108/198
f 121/94/191 172/95/194 208/109/199
f 122/103/200 166/92/188 206/93/190 170/104/201
f 122/103/200 173/105/202 205/91/189 166/92/188
f 122/103/200 174/97/192 210/98/196 173/105/202
f 122/103/200 170/104/201 209/96/193 174/97/192
f 204/85/184 119/82/184 213/106/184
f 204/85/184 165/84/184 119/82/184
f 214/87/184 119/82/184 203/107/184
f 214/87/184 163/86/184 119/82/184
f 207/100/203 171/99/195 121/94/191
f 207/100/203 121/94/191 217/108/198
f 218/102/204 121/94/191 208/109/199
f 218/102/204 169/101/197 121/94/191
