# This file uses centimeters as units for non-parametric coordinates.

mtllib Mesh_PostStamp_003.mtl
g default
v -498.742135 0.000000 -298.113124
v -498.742135 -0.000000 298.113124
v 498.742165 -0.000000 298.113124
v 498.742165 0.000000 -298.113124
vt 0.000000 0.348941
vt 0.499576 0.348941
vt 0.499576 0.647552
vt 0.000000 0.647552
vn 0.000000 1.000000 0.000000
vn 0.000000 1.000000 0.000000
vn 0.000000 1.000000 0.000000
vn 0.000000 1.000000 0.000000
s off
g polySurface6 polySurface3 polySurface1 pPlane1
usemtl phong1SG
f 2/1/1 3/2/2 4/3/3 1/4/4
