# This file uses centimeters as units for non-parametric coordinates.

mtllib Mesh_PostStamp_006.mtl
g default
v 499.589013 0.000000 348.358221
v -499.589013 0.000000 348.358221
v 499.589013 0.000000 -348.358310
v -499.589013 0.000000 -348.358310
vt 0.499576 0.000000
vt 1.000000 0.000000
vt 1.000000 0.348941
vt 0.499576 0.348941
vn 0.000000 1.000000 0.000000
vn 0.000000 1.000000 0.000000
vn 0.000000 1.000000 0.000000
vn 0.000000 1.000000 0.000000
s off
g polySurface9 polySurface7 polySurface5 polySurface3 polySurface1 pPlane1
usemtl phong1SG
f 2/1/1 1/2/2 3/3/3 4/4/4
