# This file uses centimeters as units for non-parametric coordinates.

mtllib Mesh_PostStamp_005.mtl
g default
v -498.742135 0.000000 348.358281
v -498.742135 0.000000 -348.358251
v 498.742165 0.000000 348.358281
v 498.742165 0.000000 -348.358251
vt 0.000000 0.000000
vt 0.499576 0.000000
vt 0.499576 0.348941
vt 0.000000 0.348941
vn 0.000000 1.000000 0.000000
vn 0.000000 1.000000 0.000000
vn 0.000000 1.000000 0.000000
vn 0.000000 1.000000 0.000000
s off
g polySurface10 polySurface7 polySurface5 polySurface3 polySurface1 pPlane1
usemtl phong1SG
f 1/1/1 3/2/2 4/3/3 2/4/4
