# This file uses centimeters as units for non-parametric coordinates.

mtllib Mesh_Stone_Event.mtl
g default
v -167.021057 58.859787 168.880524
v 174.020630 90.012482 183.290253
v -115.608521 336.096954 108.899567
v 163.227051 372.001831 175.594025
v -191.604431 327.988586 -149.373077
v 144.278809 309.326721 -113.641083
v -216.601013 54.144287 -188.679291
v 175.930481 86.611237 -154.369293
v 234.073380 149.903625 107.837799
v 207.416138 293.889954 101.412567
v 110.112488 462.707642 93.738983
v -32.229370 504.676453 79.091766
v 84.875488 364.695221 -53.427979
v -108.940796 396.832764 -74.660065
v -262.387817 299.173920 -116.624207
v 218.074890 292.304047 -69.904724
v 92.765045 280.020325 -218.099457
v -119.263916 294.248871 -232.322754
v 137.597351 112.693657 -263.654755
v -146.523682 106.701012 -265.126923
v 8.506561 205.705780 268.300873
v 34.673309 469.801880 23.802094
v -7.870331 206.347794 -291.400299
v -3.548889 21.959518 13.228180
v 289.242767 221.846588 16.235199
v -289.242798 201.175766 -21.755737
v 22.390717 107.094826 291.400299
v -79.940674 182.087738 236.782745
v 114.241486 68.319931 216.777740
v 183.358398 144.992386 195.496552
v 129.842407 212.331711 273.380402
v 26.328613 291.151184 242.052643
v 197.255310 303.285522 190.634735
v 108.354401 379.732788 176.757843
v -140.660889 257.890350 120.891083
v -67.153198 358.561035 119.193146
v -168.239563 343.265381 55.469025
v 22.050537 519.074036 95.362457
v -94.881042 478.142853 2.909637
v 181.986816 382.945801 104.700043
v 98.717651 418.345154 24.567780
v -11.865662 383.274628 -64.534027
v 156.661835 323.980286 -41.535522
v 85.284180 314.202911 -152.327606
v -212.015015 356.569336 -85.391724
v -116.388000 341.620056 -168.169189
v -221.475891 298.619476 -185.950592
v -8.688965 293.730499 -259.186646
v -143.506226 205.710907 -264.326660
v 171.121582 270.819733 -139.234192
v 115.325287 207.746078 -249.144043
v -5.250488 104.719284 -281.722839
v 162.772034 141.527100 -151.463318
v 122.449036 39.539581 -196.967194
v -245.403137 121.701569 -219.202545
v -135.287231 25.594925 -224.208710
v -225.916016 52.948547 -105.536987
v -5.627258 20.147186 -102.166656
v -119.790955 7.762360 10.827423
v 192.404053 73.160004 -83.217590
v 112.452637 15.264572 13.710297
v 2.765594 25.192093 123.879669
v 196.708069 72.966156 115.368256
v -201.000183 48.405563 111.618500
v 266.618164 136.993683 15.791229
v 224.861145 221.715836 101.959930
v 246.796967 214.864487 -81.550323
v 251.247833 309.434784 25.725067
v -284.137634 124.558891 -3.760468
v -289.144348 210.799591 -121.055450
v -244.958618 192.117111 79.204926
v -243.969482 273.858856 -23.884186
v -86.576172 117.445313 240.817596
v 8.365723 49.835129 223.983490
v -241.019836 115.317245 87.003693
v -173.362122 168.715149 151.828949
v -111.772461 6.242798 127.245453
v 183.861267 227.918015 191.310516
v 112.386230 28.572815 124.016388
v 23.329468 382.072266 181.485138
v 130.176422 125.748817 275.528107
v 117.289246 297.144043 231.065155
v -206.206299 371.431488 -12.783752
v 174.753662 355.493958 32.398712
v -60.132446 265.473846 198.288422
v -22.724487 323.118103 -197.480133
v -214.039429 257.546753 58.869476
v -286.565369 122.465141 -112.178741
v -242.119324 213.599136 -218.927551
v 180.165833 208.951523 -160.053284
v 229.964355 142.827667 -84.607635
v -3.996582 19.320038 -220.238251
v 108.735474 26.463806 -93.473358
v -127.203918 7.725143 -106.407501
v -226.249268 46.009857 7.618683
v 210.689056 61.122314 13.751617
v -95.222778 38.338409 223.083710
v -177.694214 116.068817 160.334930
vt 0.658281 0.077275
vt 0.679463 0.136585
vt 0.627481 0.150329
vt 0.618376 0.070974
vt 0.685661 0.211058
vt 0.632727 0.223915
vt 0.569591 0.214645
vt 0.583348 0.154532
vt 0.580723 0.072985
vt 0.675172 0.293088
vt 0.621602 0.288675
vt 0.658296 0.344193
vt 0.615959 0.350466
vt 0.552773 0.350135
vt 0.568962 0.291104
vt 0.509727 0.290206
vt 0.513196 0.227938
vt 0.498166 0.348660
vt 0.450316 0.323548
vt 0.444816 0.285567
vt 0.443217 0.224370
vt 0.520544 0.161015
vt 0.510400 0.087337
vt 0.441116 0.144410
vt 0.455854 0.109122
vt 0.946691 0.336601
vt 0.910151 0.348521
vt 0.853467 0.282284
vt 0.974935 0.288981
vt 0.826688 0.378462
vt 0.823089 0.288042
vt 0.809378 0.240239
vt 0.887748 0.236880
vt 0.982071 0.227024
vt 0.759237 0.367838
vt 0.769025 0.289928
vt 0.718540 0.356398
vt 0.703602 0.298598
vt 0.697609 0.234880
vt 0.760410 0.233880
vt 0.765683 0.170522
vt 0.836704 0.165278
vt 0.708594 0.172402
vt 0.722349 0.121028
vt 0.767057 0.096181
vt 0.849745 0.069818
vt 0.906760 0.169988
vt 0.984066 0.170400
vt 0.918984 0.098984
vt 0.975242 0.117624
vt 0.672832 0.417065
vt 0.675976 0.470907
vt 0.623665 0.472143
vt 0.638147 0.400236
vt 0.657700 0.540332
vt 0.614738 0.542883
vt 0.556466 0.541029
vt 0.560152 0.454480
vt 0.572832 0.385004
vt 0.659754 0.628345
vt 0.613030 0.615025
vt 0.658656 0.679029
vt 0.621538 0.689804
vt 0.573075 0.693578
vt 0.561824 0.622388
vt 0.503124 0.631958
vt 0.491501 0.544132
vt 0.520043 0.700310
vt 0.479543 0.700941
vt 0.447202 0.649256
vt 0.422456 0.553772
vt 0.493381 0.451794
vt 0.505773 0.379599
vt 0.431307 0.455994
vt 0.449547 0.390947
vt 0.695008 0.417333
vt 0.753136 0.395207
vt 0.759163 0.473567
vt 0.687505 0.472490
vt 0.841359 0.398498
vt 0.840142 0.476740
vt 0.840120 0.552997
vt 0.762620 0.550549
vt 0.687708 0.548435
vt 0.926968 0.414996
vt 0.916397 0.483934
vt 0.975257 0.442204
vt 0.980514 0.491397
vt 0.987306 0.558306
vt 0.915996 0.554896
vt 0.915158 0.627429
vt 0.843315 0.626932
vt 0.977826 0.627402
vt 0.964205 0.674831
vt 0.919793 0.693434
vt 0.847186 0.695514
vt 0.767902 0.626355
vt 0.703037 0.618788
vt 0.777202 0.692895
vt 0.722981 0.660474
vt 0.439441 0.734801
vt 0.488339 0.723837
vt 0.496563 0.779123
vt 0.431508 0.773027
vt 0.561712 0.714825
vt 0.559373 0.773764
vt 0.559489 0.824541
vt 0.495025 0.828442
vt 0.431343 0.831874
vt 0.634866 0.722375
vt 0.630157 0.774740
vt 0.685894 0.736201
vt 0.693139 0.775360
vt 0.688837 0.825686
vt 0.623364 0.822712
vt 0.618935 0.876020
vt 0.553786 0.880803
vt 0.674314 0.870710
vt 0.664681 0.906413
vt 0.615633 0.923769
vt 0.557049 0.936965
vt 0.495724 0.879549
vt 0.437002 0.886460
vt 0.500824 0.942030
vt 0.449574 0.939666
vt 0.725596 0.719423
vt 0.782721 0.715946
vt 0.780189 0.775166
vt 0.706987 0.770902
vt 0.863441 0.714841
vt 0.848951 0.776587
vt 0.838154 0.825361
vt 0.775403 0.832009
vt 0.704913 0.836421
vt 0.938287 0.722431
vt 0.913011 0.770113
vt 0.983980 0.730863
vt 0.976806 0.771176
vt 0.973471 0.809315
vt 0.906891 0.820405
vt 0.903495 0.869674
vt 0.844165 0.880170
vt 0.965921 0.878860
vt 0.963068 0.934768
vt 0.912259 0.933026
vt 0.855952 0.948092
vt 0.780575 0.890925
vt 0.727616 0.900316
vt 0.803309 0.940198
vt 0.749956 0.934203
vn -0.653701 -0.436547 0.618143
vn -0.238042 -0.737109 0.632460
vn -0.478305 -0.087640 0.873810
vn -0.709275 0.009707 0.704865
vn 0.059758 -0.847455 0.527494
vn -0.057401 -0.279445 0.958444
vn -0.215191 0.273494 0.937494
vn -0.546381 0.295730 0.783589
vn -0.658429 0.304061 0.688489
vn 0.313176 -0.818668 0.481356
vn 0.413920 -0.241451 0.877708
vn 0.680451 -0.587724 0.437684
vn 0.849264 -0.133866 0.510715
vn 0.842528 0.088573 0.531321
vn 0.369932 0.197654 0.907790
vn 0.230122 0.415385 0.880057
vn -0.242484 0.475124 0.845848
vn 0.800328 0.276866 0.531808
vn 0.598048 0.568205 0.565228
vn 0.241100 0.602362 0.760941
vn -0.230446 0.541955 0.808195
vn -0.557062 0.449830 0.698094
vn -0.607025 0.422218 0.673241
vn -0.538417 0.424988 0.727663
vn -0.566639 0.394780 0.723235
vn -0.492213 0.749773 0.442229
vn -0.682663 0.441107 0.582577
vn -0.065182 0.870775 0.487342
vn 0.289251 0.736840 -0.611065
vn -0.435886 0.887467 -0.149684
vn -0.756324 0.633996 0.161317
vn 0.518405 0.816131 0.255317
vn 0.766339 0.638194 0.073710
vn 0.624125 0.719563 -0.304462
vn 0.505165 0.676347 -0.536062
vn 0.365947 0.779810 -0.507917
vn 0.201239 0.786668 -0.583658
vn 0.452197 0.793587 -0.407110
vn 0.432853 0.814874 -0.385510
vn 0.309986 0.855073 -0.415643
vn 0.129742 0.879761 -0.457370
vn -0.108729 0.824292 -0.555626
vn -0.610692 0.747066 -0.262578
vn -0.076772 0.866282 -0.493621
vn -0.326775 0.817140 -0.474868
vn -0.229956 0.568683 -0.789759
vn -0.550891 0.537277 -0.638633
vn 0.079602 0.602088 -0.794452
vn 0.036444 0.171535 -0.984504
vn -0.281434 0.171196 -0.944186
vn -0.665820 0.193979 -0.720455
vn 0.449276 0.605639 -0.656775
vn 0.638795 0.533068 -0.554778
vn 0.799608 0.146511 -0.582376
vn 0.531168 0.207541 -0.821455
vn 0.498514 -0.257176 -0.827855
vn 0.050203 -0.303243 -0.951590
vn 0.865788 -0.105313 -0.489203
vn 0.820491 -0.468192 -0.328011
vn 0.375963 -0.821793 -0.428145
vn 0.074757 -0.877019 -0.474604
vn -0.253758 -0.263026 -0.930819
vn -0.717296 -0.231571 -0.657161
vn -0.179003 -0.841636 -0.509516
vn -0.576438 -0.732040 -0.363093
vn -0.134322 -0.990010 -0.042872
vn -0.594218 -0.801158 -0.071065
vn 0.065621 -0.997053 -0.039731
vn 0.063194 -0.997975 0.007264
vn -0.117505 -0.993001 0.011898
vn -0.602397 -0.794674 0.074910
vn 0.239247 -0.967326 -0.083909
vn 0.678655 -0.690445 -0.250425
vn 0.661712 -0.749733 -0.006054
vn 0.208427 -0.978018 0.006216
vn 0.221652 -0.953398 0.204701
vn 0.091517 -0.983983 0.152978
vn 0.661775 -0.697459 0.274962
vn -0.103719 -0.982574 0.154240
vn -0.627216 -0.724242 0.286483
vn 0.887933 -0.204944 0.411792
vn 0.934603 -0.355009 0.022066
vn 0.992614 0.117304 0.030942
vn 0.883468 0.082418 0.461185
vn 0.839720 -0.310613 -0.445409
vn 0.860344 0.081400 -0.503173
vn 0.669462 0.590528 -0.450663
vn 0.826005 0.563632 -0.005981
vn 0.898606 0.300162 0.320017
vn -0.931698 -0.327206 -0.157719
vn -0.931800 -0.317209 0.176430
vn -0.951245 0.212225 0.223817
vn -0.966864 0.170838 -0.189709
vn -0.861140 -0.202641 0.466235
vn -0.777207 0.288199 0.559366
vn -0.711554 0.426927 0.558055
vn -0.854419 0.427402 0.295458
vn -0.862725 0.484389 -0.145165
s 1
g Stone_Event
usemtl initialShadingGroup
f 1/1/1 97/2/2 73/3/3 98/4/4
f 97/2/2 74/5/5 27/6/6 73/3/3
f 73/3/3 27/6/6 21/7/7 28/8/8
f 98/4/4 73/3/3 28/8/8 76/9/9
f 74/5/5 29/10/10 81/11/11 27/6/6
f 29/10/10 2/12/12 30/13/13 81/11/11
f 81/11/11 30/13/13 78/14/14 31/15/15
f 27/6/6 81/11/11 31/15/15 21/7/7
f 21/7/7 31/15/15 82/16/16 32/17/17
f 31/15/15 78/14/14 33/18/18 82/16/16
f 82/16/16 33/18/18 4/19/19 34/20/20
f 32/17/17 82/16/16 34/20/20 80/21/21
f 76/9/9 28/8/8 85/22/22 35/23/23
f 28/8/8 21/7/7 32/17/17 85/22/22
f 85/22/22 32/17/17 80/21/21 36/24/24
f 35/23/23 85/22/22 36/24/24 3/25/25
f 3/26/25 36/27/24 12/28/26 37/29/27
f 36/27/24 80/30/21 38/31/28 12/28/26
f 12/28/26 38/31/28 22/32/29 39/33/30
f 37/29/27 12/28/26 39/33/30 83/34/31
f 80/30/21 34/35/20 11/36/32 38/31/28
f 34/35/20 4/37/19 40/38/33 11/36/32
f 11/36/32 40/38/33 84/39/34 41/40/35
f 38/31/28 11/36/32 41/40/35 22/32/29
f 22/32/29 41/40/35 13/41/36 42/42/37
f 41/40/35 84/39/34 43/43/38 13/41/36
f 13/41/36 43/43/38 6/44/39 44/45/40
f 42/42/37 13/41/36 44/45/40 86/46/41
f 83/34/31 39/33/30 14/47/42 45/48/43
f 39/33/30 22/32/29 42/42/37 14/47/42
f 14/47/42 42/42/37 86/46/41 46/49/44
f 45/48/43 14/47/42 46/49/44 5/50/45
f 5/51/45 46/52/44 18/53/46 47/54/47
f 46/52/44 86/55/41 48/56/48 18/53/46
f 18/53/46 48/56/48 23/57/49 49/58/50
f 47/54/47 18/53/46 49/58/50 89/59/51
f 86/55/41 44/60/40 17/61/52 48/56/48
f 44/60/40 6/62/39 50/63/53 17/61/52
f 17/61/52 50/63/53 90/64/54 51/65/55
f 48/56/48 17/61/52 51/65/55 23/57/49
f 23/57/49 51/65/55 19/66/56 52/67/57
f 51/65/55 90/64/54 53/68/58 19/66/56
f 19/66/56 53/68/58 8/69/59 54/70/60
f 52/67/57 19/66/56 54/70/60 92/71/61
f 89/59/51 49/58/50 20/72/62 55/73/63
f 49/58/50 23/57/49 52/67/57 20/72/62
f 20/72/62 52/67/57 92/71/61 56/74/64
f 55/73/63 20/72/62 56/74/64 7/75/65
f 7/76/65 56/77/64 94/78/66 57/79/67
f 56/77/64 92/80/61 58/81/68 94/78/66
f 94/78/66 58/81/68 24/82/69 59/83/70
f 57/79/67 94/78/66 59/83/70 95/84/71
f 92/80/61 54/85/60 93/86/72 58/81/68
f 54/85/60 8/87/59 60/88/73 93/86/72
f 93/86/72 60/88/73 96/89/74 61/90/75
f 58/81/68 93/86/72 61/90/75 24/82/69
f 24/82/69 61/90/75 79/91/76 62/92/77
f 61/90/75 96/89/74 63/93/78 79/91/76
f 79/91/76 63/93/78 2/94/12 29/95/10
f 62/92/77 79/91/76 29/95/10 74/96/5
f 95/84/71 59/83/70 77/97/79 64/98/80
f 59/83/70 24/82/69 62/92/77 77/97/79
f 77/97/79 62/92/77 74/96/5 97/99/2
f 64/98/80 77/97/79 97/99/2 1/100/1
f 2/101/12 63/102/78 9/103/81 30/104/13
f 63/102/78 96/105/74 65/106/82 9/103/81
f 9/103/81 65/106/82 25/107/83 66/108/84
f 30/104/13 9/103/81 66/108/84 78/109/14
f 96/105/74 60/110/73 91/111/85 65/106/82
f 60/110/73 8/112/59 53/113/58 91/111/85
f 91/111/85 53/113/58 90/114/54 67/115/86
f 65/106/82 91/111/85 67/115/86 25/107/83
f 25/107/83 67/115/86 16/116/87 68/117/88
f 67/115/86 90/114/54 50/118/53 16/116/87
f 16/116/87 50/118/53 6/119/39 43/120/38
f 68/117/88 16/116/87 43/120/38 84/121/34
f 78/109/14 66/108/84 10/122/89 33/123/18
f 66/108/84 25/107/83 68/117/88 10/122/89
f 10/122/89 68/117/88 84/121/34 40/124/33
f 33/123/18 10/122/89 40/124/33 4/125/19
f 7/126/65 57/127/67 88/128/90 55/129/63
f 57/127/67 95/130/71 69/131/91 88/128/90
f 88/128/90 69/131/91 26/132/92 70/133/93
f 55/129/63 88/128/90 70/133/93 89/134/51
f 95/130/71 64/135/80 75/136/94 69/131/91
f 64/135/80 1/137/1 98/138/4 75/136/94
f 75/136/94 98/138/4 76/139/9 71/140/95
f 69/131/91 75/136/94 71/140/95 26/132/92
f 26/132/92 71/140/95 87/141/96 72/142/97
f 71/140/95 76/139/9 35/143/23 87/141/96
f 87/141/96 35/143/23 3/144/25 37/145/27
f 72/142/97 87/141/96 37/145/27 83/146/31
f 89/134/51 70/133/93 15/147/98 47/148/47
f 70/133/93 26/132/92 72/142/97 15/147/98
f 15/147/98 72/142/97 83/146/31 45/149/43
f 47/148/47 15/147/98 45/149/43 5/150/45
