# This file uses centimeters as units for non-parametric coordinates.

mtllib Mesh_Window_002.mtl
g default
v -367.725252 -367.559705 -13.631760
v 366.322205 -367.559705 -13.631760
v -367.725252 366.487916 -13.631760
v 366.322205 366.487916 -13.631760
vt 0.038938 0.035398
vt 0.607830 0.035398
vt 0.607830 0.604290
vt 0.038938 0.604290
vn 0.000000 0.000000 1.000000
vn 0.000000 0.000000 1.000000
vn 0.000000 0.000000 1.000000
vn 0.000000 0.000000 1.000000
s off
g polySurface1 Mesh_Window_001:polySurface27
usemtl initialShadingGroup
f 1/1/1 2/2/2 4/3/3 3/4/4
