# This file uses centimeters as units for non-parametric coordinates.

mtllib Mesh_Window_004.mtl
g default
v -571.146667 78.262718 38.676086
v 571.258118 78.435661 38.592346
v -571.113098 1220.805664 38.256287
v 571.106567 1220.856079 38.273621
v -576.610229 1226.360596 -43.299500
v 576.664490 1226.379028 -43.299500
v -577.126282 72.656425 -43.299500
v 577.126343 72.817787 -43.299500
v -452.454895 196.805908 43.299255
v 452.477020 196.792114 43.291687
v 452.494751 1102.920898 42.948669
v -452.471832 1102.926758 42.941711
v -447.514099 206.987244 -39.579956
v 447.536743 206.827179 -39.580261
v 447.507477 1092.717285 -39.580139
v -447.629211 1092.701294 -39.580444
v 198.049866 1238.101929 -52.564819
v 200.321625 1251.662598 57.036194
v 252.816772 1408.263550 50.822815
v 255.304108 1415.612549 -57.504211
v -198.217468 1238.094971 -52.564880
v -200.297226 1251.665161 57.033020
v -252.831497 1408.241333 50.815125
v -255.238068 1415.604492 -57.504211
v 594.343140 453.761017 -52.564819
v 600.924866 449.393219 57.342957
v 758.599487 396.811493 51.112610
v 766.255188 394.282593 -57.504211
v 594.330139 845.934937 -52.564758
v 600.932739 850.526611 57.190979
v 758.532349 902.548645 50.971497
v 766.050964 904.951721 -57.504211
v -198.102524 61.728844 -52.564575
v -200.290009 48.272041 57.501404
v -252.793976 -109.078766 51.327942
v -255.490417 -116.529510 -57.504211
v 198.126709 61.657845 -52.564697
v 200.313568 48.265724 57.498108
v 252.936142 -109.002205 51.290833
v 255.484665 -116.457947 -57.504211
v -594.433777 845.991577 -52.564819
v -600.908752 850.537842 57.188293
v -758.494751 902.427368 50.993225
v -766.008850 904.863831 -57.504211
v -594.382874 453.895599 -52.564697
v -600.901184 449.407990 57.346497
v -758.509583 396.636108 51.179016
v -766.237000 394.131378 -57.504211
v 617.728638 850.229980 -0.000122
v 525.471375 1031.295044 -0.000122
v 381.777252 1174.989014 -0.000122
v 200.712173 1267.246338 -0.000122
v 0.000000 1299.035889 -0.000122
v -200.712173 1267.246338 -0.000122
v -381.777191 1174.989014 -0.000122
v -525.471191 1031.294922 -0.000122
v -617.728394 850.229858 -0.000122
v -649.518066 649.517761 -0.000122
v -617.728394 448.805664 -0.000122
v -525.471130 267.740662 -0.000122
v -381.777100 124.046692 -0.000122
v -200.712112 31.789429 -0.000122
v -0.000019 -0.000183 -0.000122
v 200.712051 31.789490 -0.000122
v 381.777039 124.046692 -0.000122
v 525.471008 267.740692 -0.000122
v 617.728210 448.805695 -0.000122
v 649.517883 649.517761 -0.000122
v 0.000000 649.517761 -0.000122
vt 0.047860 0.908700
vt 0.588528 0.908708
vt 0.591158 0.947409
vt 0.045257 0.947393
vt 0.045257 0.655307
vt 0.591621 0.655385
vt 0.588838 0.694239
vt 0.048082 0.694201
vt 0.911188 0.401651
vt 0.950052 0.399021
vt 0.949633 0.945057
vt 0.910933 0.942414
vt 0.655427 0.399497
vt 0.694335 0.402125
vt 0.694496 0.942946
vt 0.655805 0.945601
vt 0.532617 0.750311
vt 0.104269 0.750352
vt 0.854764 0.886570
vt 0.854899 0.457655
vt 0.104017 0.852856
vt 0.532382 0.852841
vt 0.750576 0.458221
vt 0.750682 0.887132
vt 0.530283 0.789826
vt 0.106612 0.789877
vt 0.815627 0.881743
vt 0.815603 0.462408
vt 0.106307 0.813496
vt 0.530019 0.813479
vt 0.789876 0.463046
vt 0.789812 0.882298
vt 0.388782 0.813485
vt 0.389594 0.852846
vt 0.408305 0.908705
vt 0.409191 0.947404
vt 0.247544 0.813490
vt 0.246805 0.852851
vt 0.228083 0.908703
vt 0.227224 0.947398
vt 0.815611 0.602186
vt 0.854854 0.600627
vt 0.911103 0.581905
vt 0.949912 0.581033
vt 0.815619 0.741965
vt 0.854809 0.743598
vt 0.911018 0.762160
vt 0.949773 0.763045
vt 0.247836 0.789860
vt 0.247052 0.750338
vt 0.228334 0.694214
vt 0.227378 0.655333
vt 0.389059 0.789843
vt 0.389834 0.750325
vt 0.408586 0.694226
vt 0.409500 0.655359
vt 0.789833 0.742547
vt 0.750647 0.744162
vt 0.694442 0.762672
vt 0.655679 0.763566
vt 0.789855 0.602797
vt 0.750611 0.601191
vt 0.694389 0.582399
vt 0.655553 0.581532
vt 0.600451 0.408611
vt 0.558874 0.490210
vt 0.322065 0.306450
vt 0.494117 0.554967
vt 0.412518 0.596544
vt 0.322065 0.610870
vt 0.231612 0.596544
vt 0.150014 0.554967
vt 0.085257 0.490210
vt 0.043680 0.408611
vt 0.029354 0.318158
vt 0.043680 0.227705
vt 0.085257 0.146107
vt 0.150014 0.081349
vt 0.231612 0.039773
vt 0.322065 0.025446
vt 0.412518 0.039773
vt 0.494117 0.081349
vt 0.558874 0.146106
vt 0.600451 0.227705
vt 0.614777 0.318158
vn -0.513294 0.511759 0.688935
vn -0.141116 0.622334 0.769927
vn -0.201750 0.976580 0.074760
vn -0.704506 0.703015 0.097169
vn 0.201863 -0.976475 0.075812
vn 0.703631 -0.703858 0.097400
vn 0.511630 -0.513584 0.688816
vn 0.141068 -0.622232 0.770018
vn 0.620517 0.140952 0.771421
vn 0.976472 0.201702 0.076284
vn 0.704571 0.702976 0.096974
vn 0.512996 0.512046 0.688944
vn -0.704042 -0.703418 0.097610
vn -0.511440 -0.513869 0.688744
vn -0.620409 -0.140414 0.771607
vn -0.976388 -0.201568 0.077692
vn -0.157963 0.166949 0.973230
vn -0.060757 0.371376 0.926493
vn -0.158143 -0.166047 0.973355
vn -0.376672 -0.064663 0.924087
vn 0.158243 -0.166247 0.973304
vn 0.060883 -0.370822 0.926706
vn 0.157974 0.167039 0.973212
vn 0.376953 0.065538 0.923911
vn -0.711888 0.690719 0.126978
vn -0.200406 0.971612 0.125726
vn -0.713601 -0.688745 0.128080
vn -0.977493 -0.197579 0.073957
vn 0.714083 -0.688362 0.127446
vn 0.200931 -0.971275 0.127485
vn 0.712311 0.690402 0.126329
vn 0.977460 0.198105 0.072983
vn -0.060985 -0.370675 0.926758
vn -0.200655 -0.971294 0.127771
vn 0.141001 0.622366 0.769922
vn 0.201827 0.976559 0.074826
vn -0.376766 0.065288 0.924005
vn -0.977416 0.198171 0.073386
vn 0.620442 -0.140388 0.771585
vn 0.976419 -0.201588 0.077252
vn 0.060924 0.371356 0.926490
vn 0.200612 0.971523 0.126091
vn -0.140721 -0.622253 0.770065
vn -0.201869 -0.976456 0.076044
vn 0.377078 -0.064631 0.923924
vn 0.977576 -0.197560 0.072910
vn -0.620618 0.140911 0.771347
vn -0.976474 0.201642 0.076412
vn 0.000000 0.000000 1.000000
vn 0.000000 0.000000 1.000000
vn 0.000000 0.000000 1.000000
vn 0.000000 0.000000 1.000000
vn 0.000000 0.000000 1.000000
vn 0.000000 0.000000 1.000000
vn 0.000000 0.000000 1.000000
vn 0.000000 0.000000 1.000000
vn 0.000000 0.000000 1.000000
vn 0.000000 0.000000 1.000000
vn 0.000000 0.000000 1.000000
vn 0.000000 0.000000 1.000000
vn 0.000000 0.000000 1.000000
vn 0.000000 0.000000 1.000000
vn 0.000000 0.000000 1.000000
vn 0.000000 0.000000 1.000000
vn 0.000000 0.000000 1.000000
vn 0.000000 0.000000 1.000000
vn 0.000000 0.000000 1.000000
vn 0.000000 0.000000 1.000000
vn 0.000000 0.000000 1.000000
s 1
g polySurface2
usemtl initialShadingGroup
f 3/1/1 23/39/2 24/40/3 5/4/4
f 40/56/5 8/6/6 2/7/7 39/55/8
f 31/47/9 32/48/10 6/11/11 4/12/12
f 7/13/13 1/14/14 47/63/15 48/64/16
f 39/55/8 2/7/7 10/17/17 38/54/18
f 31/47/9 4/12/12 11/19/19 30/46/20
f 23/39/2 3/1/1 12/21/21 22/38/22
f 47/63/15 1/14/14 9/23/23 46/62/24
f 38/54/18 10/17/17 14/25/25 37/53/26
f 30/46/20 11/19/19 15/27/27 29/45/28
f 22/38/22 12/21/21 16/29/29 21/37/30
f 46/62/24 9/23/23 13/31/31 45/61/32
f 11/22/19 18/34/33 17/33/34 15/30/27
f 4/2/12 19/35/35 18/34/33 11/22/19
f 20/36/36 19/35/35 4/2/12 6/3/11
f 18/34/33 22/38/22 21/37/30 17/33/34
f 19/35/35 23/39/2 22/38/22 18/34/33
f 24/40/3 23/39/2 19/35/35 20/36/36
f 10/20/17 26/42/37 25/41/38 14/28/25
f 2/9/7 27/43/39 26/42/37 10/20/17
f 2/9/7 8/10/6 28/44/40 27/43/39
f 26/42/37 30/46/20 29/45/28 25/41/38
f 27/43/39 31/47/9 30/46/20 26/42/37
f 27/43/39 28/44/40 32/48/10 31/47/9
f 9/18/23 34/50/41 33/49/42 13/26/31
f 1/8/14 35/51/43 34/50/41 9/18/23
f 7/5/13 36/52/44 35/51/43 1/8/14
f 34/50/41 38/54/18 37/53/26 33/49/42
f 35/51/43 39/55/8 38/54/18 34/50/41
f 36/52/44 40/56/5 39/55/8 35/51/43
f 12/24/21 42/58/45 41/57/46 16/32/29
f 3/15/1 43/59/47 42/58/45 12/24/21
f 44/60/48 43/59/47 3/15/1 5/16/4
f 42/58/45 46/62/24 45/61/32 41/57/46
f 43/59/47 47/63/15 46/62/24 42/58/45
f 48/64/16 47/63/15 43/59/47 44/60/48
s 5
f 49/65/49 50/66/50 69/67/51
f 50/66/50 51/68/52 69/67/51
f 51/68/52 52/69/53 69/67/51
f 52/69/53 53/70/54 69/67/51
f 53/70/54 54/71/55 69/67/51
f 54/71/55 55/72/56 69/67/51
f 55/72/56 56/73/57 69/67/51
f 56/73/57 57/74/58 69/67/51
f 57/74/58 58/75/59 69/67/51
f 58/75/59 59/76/60 69/67/51
f 59/76/60 60/77/61 69/67/51
f 60/77/61 61/78/62 69/67/51
f 61/78/62 62/79/63 69/67/51
f 62/79/63 63/80/64 69/67/51
f 63/80/64 64/81/65 69/67/51
f 64/81/65 65/82/66 69/67/51
f 65/82/66 66/83/67 69/67/51
f 66/83/67 67/84/68 69/67/51
f 67/84/68 68/85/69 69/67/51
f 68/85/69 49/65/49 69/67/51
