# This file uses centimeters as units for non-parametric coordinates.

mtllib Mesh_Window_003.mtl
g default
v -470.566602 -470.655787 31.865239
v 470.658335 -470.513308 31.796280
v -470.538952 470.683003 31.519425
v 470.533476 470.724478 31.533694
v -475.068018 475.259670 -35.674251
v 475.112638 475.274797 -35.674251
v -475.493177 -475.274797 -35.674251
v 475.493123 -475.141860 -35.674251
v -372.776659 -372.988290 35.674251
v 372.794848 -372.999675 35.668111
v 372.809459 373.557879 35.385454
v -372.790619 373.562758 35.379714
v -368.705959 -364.599910 -32.609735
v 368.724555 -364.731790 -32.610020
v 368.700456 365.151229 -32.609905
v -368.800782 365.138000 -32.610135
vt 0.047860 0.908700
vt 0.588528 0.908708
vt 0.591158 0.947409
vt 0.045257 0.947393
vt 0.045257 0.655307
vt 0.591621 0.655385
vt 0.588838 0.694239
vt 0.048082 0.694201
vt 0.911188 0.401651
vt 0.950052 0.399021
vt 0.949633 0.945057
vt 0.910933 0.942414
vt 0.655427 0.399497
vt 0.694335 0.402125
vt 0.694496 0.942946
vt 0.655805 0.945601
vt 0.532617 0.750311
vt 0.104269 0.750352
vt 0.854764 0.886570
vt 0.854899 0.457655
vt 0.104017 0.852856
vt 0.532382 0.852841
vt 0.750576 0.458221
vt 0.750682 0.887132
vt 0.530283 0.789826
vt 0.106612 0.789877
vt 0.815627 0.881743
vt 0.815603 0.462408
vt 0.106307 0.813496
vt 0.530019 0.813479
vt 0.789876 0.463046
vt 0.789812 0.882298
vn -0.513294 0.511759 0.688935
vn 0.512996 0.512046 0.688944
vn 0.704571 0.702976 0.096974
vn -0.704506 0.703015 0.097169
vn -0.704042 -0.703418 0.097610
vn 0.703631 -0.703858 0.097400
vn 0.511630 -0.513584 0.688816
vn -0.511440 -0.513869 0.688744
vn 0.511630 -0.513584 0.688816
vn 0.703631 -0.703858 0.097400
vn 0.704571 0.702976 0.096974
vn 0.512996 0.512046 0.688944
vn -0.704042 -0.703418 0.097610
vn -0.511440 -0.513869 0.688744
vn -0.513294 0.511759 0.688935
vn -0.704506 0.703015 0.097169
vn -0.511440 -0.513869 0.688744
vn 0.511630 -0.513584 0.688816
vn -0.157963 0.166949 0.973230
vn 0.157974 0.167039 0.973212
vn 0.511630 -0.513584 0.688816
vn 0.512996 0.512046 0.688944
vn -0.158143 -0.166047 0.973355
vn -0.157963 0.166949 0.973230
vn 0.512996 0.512046 0.688944
vn -0.513294 0.511759 0.688935
vn 0.158243 -0.166247 0.973304
vn -0.158143 -0.166047 0.973355
vn -0.513294 0.511759 0.688935
vn -0.511440 -0.513869 0.688744
vn 0.157974 0.167039 0.973212
vn 0.158243 -0.166247 0.973304
vn 0.157974 0.167039 0.973212
vn -0.157963 0.166949 0.973230
vn -0.711888 0.690719 0.126978
vn 0.712311 0.690402 0.126329
vn -0.157963 0.166949 0.973230
vn -0.158143 -0.166047 0.973355
vn -0.713601 -0.688745 0.128080
vn -0.711888 0.690719 0.126978
vn -0.158143 -0.166047 0.973355
vn 0.158243 -0.166247 0.973304
vn 0.714083 -0.688362 0.127446
vn -0.713601 -0.688745 0.128080
vn 0.158243 -0.166247 0.973304
vn 0.157974 0.167039 0.973212
vn 0.712311 0.690402 0.126329
vn 0.714083 -0.688362 0.127446
s off
g polySurface2 Mesh_Window_001:polySurface27
usemtl initialShadingGroup
f 3/1/1 4/2/2 6/3/3 5/4/4
f 7/5/5 8/6/6 2/7/7 1/8/8
f 2/9/9 8/10/10 6/11/11 4/12/12
f 7/13/13 1/14/14 3/15/15 5/16/16
f 1/8/17 2/7/18 10/17/19 9/18/20
f 2/9/21 4/12/22 11/19/23 10/20/24
f 4/2/25 3/1/26 12/21/27 11/22/28
f 3/15/29 1/14/30 9/23/31 12/24/32
f 9/18/33 10/17/34 14/25/35 13/26/36
f 10/20/37 11/19/38 15/27/39 14/28/40
f 11/22/41 12/21/42 16/29/43 15/30/44
f 12/24/45 9/23/46 13/31/47 16/32/48
