# This file uses centimeters as units for non-parametric coordinates.

mtllib Beam.mtl
g default
v -0.884180 -13.234845 0.950664
v 0.954446 -13.206711 0.900672
v -0.918356 13.267887 0.905120
v 0.931735 13.280758 0.946787
v -0.930582 13.274348 -0.911875
v 0.941041 13.217920 -0.914011
v -0.971333 -13.173573 -0.957640
v 0.953709 -13.226877 -0.927640
v 0.979942 13.228959 -0.800600
v -0.976808 13.269315 -0.836102
v -0.967664 -13.244065 -0.879763
v 0.979448 -13.251921 -0.849052
v 0.966478 13.284569 0.846654
v -0.965018 13.276768 0.822954
v -0.947661 -13.251823 0.849540
v 0.980564 -13.240864 0.834758
v 0.854736 13.297606 0.989457
v 0.902048 13.305394 0.900624
v 0.891493 13.287571 -0.867804
v 0.838496 13.276147 -0.960041
v 0.908849 -13.227178 -0.942393
v 0.906823 -13.299872 -0.863523
v 0.888746 -13.283140 0.859487
v 0.860815 -13.187994 0.959185
v -0.806967 13.288629 0.975590
v -0.853333 13.296256 0.896255
v -0.854220 13.305494 -0.876752
v -0.811695 13.286657 -0.996781
v -0.859594 -13.292447 -1.006843
v -0.865491 -13.305494 -0.884952
v -0.856976 -13.305000 0.898398
v -0.824170 -13.290440 0.976436
v -1.008477 -7.940345 -0.870368
v -1.008896 -7.945601 0.803979
v -0.943917 -7.945942 0.987105
v -0.822452 -7.972630 1.010004
v 0.860286 -7.891588 1.005826
v 0.999314 -7.908804 0.908650
v 0.983583 -7.935825 0.836311
v 1.000764 -7.954474 -0.838373
v 1.005411 -7.935463 -0.926351
v 0.894149 -7.922773 -1.006946
v -0.850014 -7.976610 -1.003680
v -1.007448 -7.884372 -0.950000
v -0.945639 -2.632692 -0.856422
v -1.000091 -2.638213 0.866692
v -0.900749 -2.634733 0.992602
v -0.817430 -2.659264 1.007595
v 0.856924 -2.594152 1.007459
v 1.003301 -2.612434 0.918450
v 0.993845 -2.630785 0.829234
v 1.006498 -2.658519 -0.827712
v 1.008898 -2.649631 -0.927616
v 0.879239 -2.624253 -1.010864
v -0.841490 -2.660616 -0.996670
v -0.946352 -2.591500 -0.938509
v -1.003561 2.664620 -0.837323
v -0.988153 2.666049 0.820893
v -0.921371 2.663005 0.972939
v -0.815238 2.656565 1.002783
v 0.856724 2.705442 1.010864
v 0.980288 2.686586 0.962977
v 1.007345 2.674012 0.842638
v 0.994029 2.636875 -0.822649
v 0.942385 2.639749 -0.912814
v 0.823178 2.677344 -0.927487
v -0.827298 2.656975 -0.985956
v -0.953383 2.673425 -0.974636
v -0.989501 7.967277 -0.835344
v -0.992967 7.972510 0.840685
v -0.933250 7.968120 0.929739
v -0.805744 7.972294 1.001043
v 0.846046 8.002919 0.973343
v 0.881468 8.008402 0.922890
v 0.885339 7.940504 0.852529
v 0.986314 7.932774 -0.812927
v 0.935412 7.926883 -0.890608
v 0.835833 7.972654 -0.907498
v -0.821075 7.970849 -0.999569
v -1.004546 7.995742 -0.944776
vt 0.015983 0.790011
vt 0.021302 0.790145
vt 0.019301 0.983286
vt 0.014509 0.982497
vt 0.832874 0.191128
vt 0.828586 0.193512
vt 0.830320 0.190638
vt 0.834495 0.188048
vt 0.220394 0.983376
vt 0.215075 0.983821
vt 0.214736 0.790505
vt 0.221701 0.791440
vt 0.770328 0.019613
vt 0.768619 0.023466
vt 0.765747 0.024689
vt 0.766092 0.021385
vt 0.083789 0.791355
vt 0.086371 0.788890
vt 0.086716 0.983787
vt 0.082867 0.983635
vt 0.286732 0.791203
vt 0.290636 0.791085
vt 0.287457 0.983885
vt 0.284013 0.984160
vt 0.836086 0.127656
vt 0.831462 0.126102
vt 0.829992 0.121655
vt 0.834436 0.124801
vt 0.225730 0.790437
vt 0.223626 0.983212
vt 0.836756 0.016259
vt 0.838009 0.022438
vt 0.833545 0.022302
vt 0.833320 0.017968
vt 0.146561 0.981788
vt 0.147251 0.788836
vt 0.150638 0.788636
vt 0.150919 0.981400
vt 0.768083 0.192971
vt 0.765126 0.191453
vt 0.763994 0.187684
vt 0.766420 0.189696
vt 0.767924 0.125343
vt 0.763998 0.127668
vt 0.769886 0.121987
vt 0.765172 0.123212
vt 0.154312 0.790321
vt 0.155004 0.983528
vt 0.833588 0.086831
vt 0.837467 0.086997
vt 0.836709 0.088837
vt 0.833156 0.089986
vt 0.770885 0.086988
vt 0.771746 0.090652
vt 0.765850 0.086222
vt 0.768530 0.089905
vt 0.079664 0.984219
vt 0.081538 0.791157
vt 0.228008 0.018381
vt 0.290986 0.017762
vt 0.290600 0.211287
vt 0.229685 0.211305
vt 0.295340 0.018332
vt 0.297673 0.211282
vt 0.019657 0.017080
vt 0.022079 0.015106
vt 0.018307 0.209069
vt 0.013796 0.209988
vt 0.079471 0.212736
vt 0.083358 0.019960
vt 0.085643 0.212164
vt 0.087395 0.019334
vt 0.089991 0.018109
vt 0.088338 0.211191
vt 0.149213 0.210815
vt 0.151431 0.018202
vt 0.152410 0.211527
vt 0.154442 0.019136
vt 0.156165 0.019126
vt 0.157400 0.212000
vt 0.220722 0.016642
vt 0.220743 0.209977
vt 0.226787 0.213333
vt 0.225182 0.020963
vt 0.290631 0.404950
vt 0.227845 0.404615
vt 0.296468 0.405139
vt 0.017748 0.403068
vt 0.014665 0.403962
vt 0.078723 0.405493
vt 0.084963 0.404833
vt 0.088230 0.404164
vt 0.148549 0.403162
vt 0.152187 0.403482
vt 0.157793 0.404425
vt 0.220488 0.403538
vt 0.224838 0.406089
vt 0.287602 0.598105
vt 0.227239 0.597622
vt 0.293648 0.598042
vt 0.018321 0.596865
vt 0.014310 0.597132
vt 0.079175 0.598211
vt 0.083985 0.597488
vt 0.088467 0.597032
vt 0.149034 0.595782
vt 0.152816 0.595900
vt 0.157170 0.597317
vt 0.217317 0.597246
vt 0.221915 0.597904
vn -0.681400 0.003369 0.731903
vn -0.029560 0.002474 0.999560
vn -0.032388 0.021809 0.999237
vn -0.668814 0.012130 0.743331
vn -0.668814 0.012130 0.743331
vn -0.032388 0.021809 0.999237
vn -0.008021 0.999967 0.001338
vn -0.998958 0.033611 0.030859
vn -0.682319 0.020268 -0.730773
vn -0.000829 0.019269 -0.999814
vn 0.011021 -0.001626 -0.999938
vn -0.684780 0.003976 -0.728739
vn -0.998785 -0.032005 0.037469
vn -0.015437 -0.999488 0.028045
vn -0.001007 -0.029090 0.999576
vn -0.687624 -0.014462 0.725923
vn 0.845939 -0.000134 0.533279
vn 0.999277 0.003117 0.037899
vn 0.998971 0.013438 0.043318
vn 0.859267 -0.001823 0.511525
vn -0.999358 0.002363 0.035753
vn -0.681400 0.003369 0.731903
vn -0.668814 0.012130 0.743331
vn -0.998958 0.033611 0.030859
vn -0.999532 0.029862 -0.006708
vn -0.009687 0.999914 -0.008870
vn -0.000829 0.019269 -0.999814
vn -0.682319 0.020268 -0.730773
vn -0.684780 0.003976 -0.728739
vn -0.999976 0.002267 -0.006557
vn -0.999532 0.029862 -0.006708
vn -0.682319 0.020268 -0.730773
vn -0.695430 -0.008890 -0.718539
vn 0.001936 -0.025268 -0.999679
vn -0.023278 -0.999557 -0.018563
vn -0.999561 -0.029180 0.005223
vn 0.999890 0.012033 0.008706
vn 0.999996 0.002552 0.001481
vn 0.583413 0.000631 -0.812175
vn 0.621782 0.003738 -0.783182
vn -0.998958 0.033611 0.030859
vn -0.008021 0.999967 0.001338
vn -0.009687 0.999914 -0.008870
vn -0.999532 0.029862 -0.006708
vn -0.999976 0.002267 -0.006557
vn -0.999358 0.002363 0.035753
vn -0.998958 0.033611 0.030859
vn -0.999532 0.029862 -0.006708
vn -0.999561 -0.029180 0.005223
vn -0.023278 -0.999557 -0.018563
vn -0.015437 -0.999488 0.028045
vn -0.998785 -0.032005 0.037469
vn 0.998971 0.013438 0.043318
vn 0.999277 0.003117 0.037899
vn 0.999996 0.002552 0.001481
vn 0.999890 0.012033 0.008706
vn 0.027943 0.021575 0.999377
vn 0.859267 -0.001823 0.511525
vn 0.998971 0.013438 0.043318
vn 0.015216 0.999884 0.000616
vn 0.018887 0.999775 -0.009702
vn 0.015216 0.999884 0.000616
vn 0.998971 0.013438 0.043318
vn 0.999890 0.012033 0.008706
vn 0.050178 0.021804 -0.998502
vn 0.018887 0.999775 -0.009702
vn 0.999890 0.012033 0.008706
vn 0.621782 0.003738 -0.783182
vn 0.054180 -0.002163 -0.998529
vn 0.050178 0.021804 -0.998502
vn 0.621782 0.003738 -0.783182
vn 0.583413 0.000631 -0.812175
vn 0.029673 -0.999391 -0.018354
vn 0.042653 -0.023744 -0.998808
vn 0.847402 -0.014174 -0.530762
vn 0.999809 -0.019527 -0.000496
vn 0.029202 -0.999099 0.030792
vn 0.029673 -0.999391 -0.018354
vn 0.999809 -0.019527 -0.000496
vn 0.999767 -0.020233 0.007521
vn 0.052514 -0.024554 0.998318
vn 0.029202 -0.999099 0.030792
vn 0.999767 -0.020233 0.007521
vn 0.815785 -0.016292 0.578126
vn 0.027943 0.021575 0.999377
vn 0.032502 0.002388 0.999469
vn 0.845939 -0.000134 0.533279
vn 0.859267 -0.001823 0.511525
vn -0.032388 0.021809 0.999237
vn 0.027943 0.021575 0.999377
vn 0.015216 0.999884 0.000616
vn -0.008021 0.999967 0.001338
vn -0.009687 0.999914 -0.008870
vn -0.008021 0.999967 0.001338
vn 0.015216 0.999884 0.000616
vn 0.018887 0.999775 -0.009702
vn -0.000829 0.019269 -0.999814
vn -0.009687 0.999914 -0.008870
vn 0.018887 0.999775 -0.009702
vn 0.050178 0.021804 -0.998502
vn 0.011021 -0.001626 -0.999938
vn -0.000829 0.019269 -0.999814
vn 0.050178 0.021804 -0.998502
vn 0.054180 -0.002163 -0.998529
vn -0.023278 -0.999557 -0.018563
vn 0.001936 -0.025268 -0.999679
vn 0.042653 -0.023744 -0.998808
vn 0.029673 -0.999391 -0.018354
vn -0.015437 -0.999488 0.028045
vn -0.023278 -0.999557 -0.018563
vn 0.029673 -0.999391 -0.018354
vn 0.029202 -0.999099 0.030792
vn -0.001007 -0.029090 0.999576
vn -0.015437 -0.999488 0.028045
vn 0.029202 -0.999099 0.030792
vn 0.052514 -0.024554 0.998318
vn -0.032388 0.021809 0.999237
vn -0.029560 0.002474 0.999560
vn 0.032502 0.002388 0.999469
vn 0.027943 0.021575 0.999377
vn -0.999561 -0.029180 0.005223
vn -0.998785 -0.032005 0.037469
vn -0.999410 -0.001626 0.034304
vn -0.999989 -0.001367 -0.004567
vn -0.998785 -0.032005 0.037469
vn -0.687624 -0.014462 0.725923
vn -0.706101 -0.003955 0.708100
vn -0.999410 -0.001626 0.034304
vn -0.687624 -0.014462 0.725923
vn -0.001007 -0.029090 0.999576
vn -0.008575 -0.003879 0.999956
vn -0.706101 -0.003955 0.708100
vn 0.050898 -0.003652 0.998697
vn -0.008575 -0.003879 0.999956
vn -0.001007 -0.029090 0.999576
vn 0.052514 -0.024554 0.998318
vn 0.795075 -0.003717 0.606500
vn 0.050898 -0.003652 0.998697
vn 0.052514 -0.024554 0.998318
vn 0.815785 -0.016292 0.578126
vn 0.815785 -0.016292 0.578126
vn 0.999767 -0.020233 0.007521
vn 0.999982 -0.001959 0.005673
vn 0.795075 -0.003717 0.606500
vn 0.999990 -0.002018 0.003941
vn 0.999982 -0.001959 0.005673
vn 0.999767 -0.020233 0.007521
vn 0.999809 -0.019527 -0.000496
vn 0.835841 -0.003338 -0.548961
vn 0.999990 -0.002018 0.003941
vn 0.999809 -0.019527 -0.000496
vn 0.847402 -0.014174 -0.530762
vn 0.042653 -0.023744 -0.998808
vn 0.041322 -0.002712 -0.999142
vn 0.835841 -0.003338 -0.548961
vn 0.847402 -0.014174 -0.530762
vn 0.001936 -0.025268 -0.999679
vn -0.021968 -0.002515 -0.999756
vn 0.041322 -0.002712 -0.999142
vn 0.042653 -0.023744 -0.998808
vn -0.714835 0.004665 -0.699277
vn -0.021968 -0.002515 -0.999756
vn 0.001936 -0.025268 -0.999679
vn -0.695430 -0.008890 -0.718539
vn -0.695430 -0.008890 -0.718539
vn -0.999561 -0.029180 0.005223
vn -0.999989 -0.001367 -0.004567
vn -0.714835 0.004665 -0.699277
vn -0.999989 -0.001367 -0.004567
vn -0.999410 -0.001626 0.034304
vn -0.999468 0.001341 0.032588
vn -0.999839 0.001403 -0.017892
vn -0.999410 -0.001626 0.034304
vn -0.706101 -0.003955 0.708100
vn -0.679139 0.001800 0.734007
vn -0.999468 0.001341 0.032588
vn -0.706101 -0.003955 0.708100
vn -0.008575 -0.003879 0.999956
vn -0.011943 0.000157 0.999929
vn -0.679139 0.001800 0.734007
vn 0.043361 -0.000080 0.999059
vn -0.011943 0.000157 0.999929
vn -0.008575 -0.003879 0.999956
vn 0.050898 -0.003652 0.998697
vn 0.786253 -0.001423 0.617903
vn 0.043361 -0.000080 0.999059
vn 0.050898 -0.003652 0.998697
vn 0.795075 -0.003717 0.606500
vn 0.795075 -0.003717 0.606500
vn 0.999982 -0.001959 0.005673
vn 0.999997 -0.000779 0.002263
vn 0.786253 -0.001423 0.617903
vn 0.999999 -0.000593 -0.001327
vn 0.999997 -0.000779 0.002263
vn 0.999982 -0.001959 0.005673
vn 0.999990 -0.002018 0.003941
vn 0.771966 0.005450 -0.635641
vn 0.999999 -0.000593 -0.001327
vn 0.999990 -0.002018 0.003941
vn 0.835841 -0.003338 -0.548961
vn 0.041322 -0.002712 -0.999142
vn 0.038479 0.004798 -0.999248
vn 0.771966 0.005450 -0.635641
vn 0.835841 -0.003338 -0.548961
vn -0.021968 -0.002515 -0.999756
vn -0.023093 0.004339 -0.999724
vn 0.038479 0.004798 -0.999248
vn 0.041322 -0.002712 -0.999142
vn -0.718343 -0.000495 -0.695689
vn -0.023093 0.004339 -0.999724
vn -0.021968 -0.002515 -0.999756
vn -0.714835 0.004665 -0.699277
vn -0.714835 0.004665 -0.699277
vn -0.999989 -0.001367 -0.004567
vn -0.999839 0.001403 -0.017892
vn -0.718343 -0.000495 -0.695689
vn -0.999839 0.001403 -0.017892
vn -0.999468 0.001341 0.032588
vn -0.999339 -0.001550 0.036334
vn -0.999876 -0.001965 -0.015644
vn -0.999468 0.001341 0.032588
vn -0.679139 0.001800 0.734007
vn -0.680751 0.002103 0.732512
vn -0.999339 -0.001550 0.036334
vn -0.679139 0.001800 0.734007
vn -0.011943 0.000157 0.999929
vn -0.018776 0.001948 0.999822
vn -0.680751 0.002103 0.732512
vn 0.034335 0.002043 0.999408
vn -0.018776 0.001948 0.999822
vn -0.011943 0.000157 0.999929
vn 0.043361 -0.000080 0.999059
vn 0.794433 0.006692 0.607315
vn 0.034335 0.002043 0.999408
vn 0.043361 -0.000080 0.999059
vn 0.786253 -0.001423 0.617903
vn 0.786253 -0.001423 0.617903
vn 0.999997 -0.000779 0.002263
vn 0.999800 0.006360 0.018947
vn 0.794433 0.006692 0.607315
vn 0.999938 0.005962 -0.009404
vn 0.999800 0.006360 0.018947
vn 0.999997 -0.000779 0.002263
vn 0.999999 -0.000593 -0.001327
vn 0.624136 0.008542 -0.781269
vn 0.999938 0.005962 -0.009404
vn 0.999999 -0.000593 -0.001327
vn 0.771966 0.005450 -0.635641
vn 0.038479 0.004798 -0.999248
vn 0.043549 0.004953 -0.999039
vn 0.624136 0.008542 -0.781269
vn 0.771966 0.005450 -0.635641
vn -0.023093 0.004339 -0.999724
vn 0.007967 0.004390 -0.999959
vn 0.043549 0.004953 -0.999039
vn 0.038479 0.004798 -0.999248
vn -0.688155 -0.002749 -0.725558
vn 0.007967 0.004390 -0.999959
vn -0.023093 0.004339 -0.999724
vn -0.718343 -0.000495 -0.695689
vn -0.718343 -0.000495 -0.695689
vn -0.999839 0.001403 -0.017892
vn -0.999876 -0.001965 -0.015644
vn -0.688155 -0.002749 -0.725558
vn -0.999876 -0.001965 -0.015644
vn -0.999339 -0.001550 0.036334
vn -0.999358 0.002363 0.035753
vn -0.999976 0.002267 -0.006557
vn -0.999339 -0.001550 0.036334
vn -0.680751 0.002103 0.732512
vn -0.681400 0.003369 0.731903
vn -0.999358 0.002363 0.035753
vn -0.680751 0.002103 0.732512
vn -0.018776 0.001948 0.999822
vn -0.029560 0.002474 0.999560
vn -0.681400 0.003369 0.731903
vn 0.032502 0.002388 0.999469
vn -0.029560 0.002474 0.999560
vn -0.018776 0.001948 0.999822
vn 0.034335 0.002043 0.999408
vn 0.845939 -0.000134 0.533279
vn 0.032502 0.002388 0.999469
vn 0.034335 0.002043 0.999408
vn 0.794433 0.006692 0.607315
vn 0.794433 0.006692 0.607315
vn 0.999800 0.006360 0.018947
vn 0.999277 0.003117 0.037899
vn 0.845939 -0.000134 0.533279
vn 0.999996 0.002552 0.001481
vn 0.999277 0.003117 0.037899
vn 0.999800 0.006360 0.018947
vn 0.999938 0.005962 -0.009404
vn 0.583413 0.000631 -0.812175
vn 0.999996 0.002552 0.001481
vn 0.999938 0.005962 -0.009404
vn 0.624136 0.008542 -0.781269
vn 0.043549 0.004953 -0.999039
vn 0.054180 -0.002163 -0.998529
vn 0.583413 0.000631 -0.812175
vn 0.624136 0.008542 -0.781269
vn 0.007967 0.004390 -0.999959
vn 0.011021 -0.001626 -0.999938
vn 0.054180 -0.002163 -0.998529
vn 0.043549 0.004953 -0.999039
vn -0.684780 0.003976 -0.728739
vn 0.011021 -0.001626 -0.999938
vn 0.007967 0.004390 -0.999959
vn -0.688155 -0.002749 -0.725558
vn -0.688155 -0.002749 -0.725558
vn -0.999876 -0.001965 -0.015644
vn -0.999976 0.002267 -0.006557
vn -0.684780 0.003976 -0.728739
s off
g polySurface3 Lo2:RoadKillOut
usemtl initialShadingGroup
f 71/1/1 72/2/2 25/3/3 3/4/4
f 3/5/5 25/6/6 26/7/7 14/8/8
f 5/9/9 28/10/10 79/11/11 80/12/12
f 15/13/13 31/14/14 32/15/15 1/16/16
f 74/17/17 75/18/18 13/19/19 4/20/20
f 70/21/21 71/22/22 3/23/23 14/24/24
f 10/25/25 27/26/26 28/27/27 5/28/28
f 80/12/29 69/29/30 10/30/31 5/9/32
f 7/31/33 29/32/34 30/33/35 11/34/36
f 9/35/37 76/36/38 77/37/39 6/38/40
f 14/8/41 26/7/42 27/26/43 10/25/44
f 69/29/45 70/21/46 14/24/47 10/30/48
f 11/34/49 30/33/50 31/14/51 15/13/52
f 13/19/53 75/18/54 76/36/55 9/35/56
f 17/39/57 4/40/58 13/41/59 18/42/60
f 19/43/61 18/42/62 13/41/63 9/44/64
f 20/45/65 19/43/66 9/44/67 6/46/68
f 78/47/69 20/48/70 6/38/71 77/37/72
f 22/49/73 21/50/74 8/51/75 12/52/76
f 23/53/77 22/49/78 12/52/79 16/54/80
f 24/55/81 23/53/82 16/54/83 2/56/84
f 17/57/85 73/58/86 74/17/87 4/20/88
f 25/6/89 17/39/90 18/42/91 26/7/92
f 27/26/93 26/7/94 18/42/95 19/43/96
f 28/27/97 27/26/98 19/43/99 20/45/100
f 79/11/101 28/10/102 20/48/103 78/47/104
f 30/33/105 29/32/106 21/50/107 22/49/108
f 31/14/109 30/33/110 22/49/111 23/53/112
f 32/15/113 31/14/114 23/53/115 24/55/116
f 25/3/117 72/2/118 73/58/119 17/57/120
f 11/59/121 15/60/122 34/61/123 33/62/124
f 15/60/125 1/63/126 35/64/127 34/61/128
f 1/65/129 32/66/130 36/67/131 35/68/132
f 37/69/133 36/67/134 32/66/135 24/70/136
f 38/71/137 37/69/138 24/70/139 2/72/140
f 2/72/141 16/73/142 39/74/143 38/71/144
f 40/75/145 39/74/146 16/73/147 12/76/148
f 41/77/149 40/75/150 12/76/151 8/78/152
f 21/79/153 42/80/154 41/77/155 8/78/156
f 29/81/157 43/82/158 42/80/159 21/79/160
f 44/83/161 43/82/162 29/81/163 7/84/164
f 7/84/165 11/59/166 33/62/167 44/83/168
f 33/62/169 34/61/170 46/85/171 45/86/172
f 34/61/173 35/64/174 47/87/175 46/85/176
f 35/68/177 36/67/178 48/88/179 47/89/180
f 49/90/181 48/88/182 36/67/183 37/69/184
f 50/91/185 49/90/186 37/69/187 38/71/188
f 38/71/189 39/74/190 51/92/191 50/91/192
f 52/93/193 51/92/194 39/74/195 40/75/196
f 53/94/197 52/93/198 40/75/199 41/77/200
f 42/80/201 54/95/202 53/94/203 41/77/204
f 43/82/205 55/96/206 54/95/207 42/80/208
f 56/97/209 55/96/210 43/82/211 44/83/212
f 44/83/213 33/62/214 45/86/215 56/97/216
f 45/86/217 46/85/218 58/98/219 57/99/220
f 46/85/221 47/87/222 59/100/223 58/98/224
f 47/89/225 48/88/226 60/101/227 59/102/228
f 61/103/229 60/101/230 48/88/231 49/90/232
f 62/104/233 61/103/234 49/90/235 50/91/236
f 50/91/237 51/92/238 63/105/239 62/104/240
f 64/106/241 63/105/242 51/92/243 52/93/244
f 65/107/245 64/106/246 52/93/247 53/94/248
f 54/95/249 66/108/250 65/107/251 53/94/252
f 55/96/253 67/109/254 66/108/255 54/95/256
f 68/110/257 67/109/258 55/96/259 56/97/260
f 56/97/261 45/86/262 57/99/263 68/110/264
f 57/99/265 58/98/266 70/21/267 69/29/268
f 58/98/269 59/100/270 71/22/271 70/21/272
f 59/102/273 60/101/274 72/2/275 71/1/276
f 73/58/277 72/2/278 60/101/279 61/103/280
f 74/17/281 73/58/282 61/103/283 62/104/284
f 62/104/285 63/105/286 75/18/287 74/17/288
f 76/36/289 75/18/290 63/105/291 64/106/292
f 77/37/293 76/36/294 64/106/295 65/107/296
f 66/108/297 78/47/298 77/37/299 65/107/300
f 67/109/301 79/11/302 78/47/303 66/108/304
f 80/12/305 79/11/306 67/109/307 68/110/308
f 68/110/309 57/99/310 69/29/311 80/12/312
