# This file uses centimeters as units for non-parametric coordinates.

mtllib Plank.mtl
g default
v -0.206505 -7.023904 0.985081
v 0.220845 -6.961103 0.984202
v -0.181342 7.022497 1.010379
v 0.207620 7.039711 1.002332
v -0.197153 7.035745 -1.004242
v 0.199504 7.025254 -0.992478
v -0.235229 -7.026444 -0.970240
v 0.194938 -6.993270 -0.991723
v 0.223861 7.035378 -0.904888
v -0.235452 7.036695 -0.898587
v -0.235030 -7.038099 -0.944315
v 0.248393 -7.013113 -0.860168
v 0.236408 7.040086 0.928423
v -0.222042 7.034451 0.920111
v -0.231249 -7.015569 0.894676
v 0.227141 -7.022868 0.881711
v 0.181059 7.036081 1.010906
v 0.191922 7.049683 0.937459
v 0.194703 7.044271 -0.917426
v 0.177586 7.036073 -1.004711
v 0.180777 -7.021285 -1.000078
v 0.180417 -7.045523 -0.906676
v 0.194866 -7.025855 0.895941
v 0.137704 -6.988968 0.999256
v -0.180780 7.039955 1.007421
v -0.194246 7.047629 0.941207
v -0.202848 7.049521 -0.920868
v -0.183540 7.044586 -1.003824
v -0.215889 -7.037135 -1.004373
v -0.208943 -7.046474 -0.910819
v -0.195742 -7.045249 0.935173
v -0.195680 -7.023171 0.986477
v 0.212029 2.372773 0.996289
v 0.166607 2.361064 1.007023
v -0.185747 2.352246 1.000439
v -0.189730 2.340363 1.001947
v -0.225111 2.351110 0.911633
v -0.235311 2.345097 -0.913830
v -0.209845 2.348347 -0.992908
v -0.194323 2.350679 -1.004007
v 0.178650 2.350287 -1.003167
v 0.197982 2.352412 -0.992226
v 0.232038 2.352547 -0.889981
v 0.233319 2.352434 0.912852
v 0.216437 -2.294166 0.990246
v 0.152156 -2.313952 1.003139
v -0.190713 -2.335463 0.993458
v -0.198117 -2.341771 0.993514
v -0.228180 -2.332229 0.903154
v -0.235171 -2.346501 -0.929072
v -0.222537 -2.339048 -0.981574
v -0.205106 -2.343228 -1.004190
v 0.179714 -2.335499 -1.001622
v 0.196460 -2.320429 -0.991975
v 0.240216 -2.330283 -0.875075
v 0.230230 -2.335217 0.897281
vt 0.732345 0.017900
vt 0.732743 0.017928
vt 0.732643 0.188564
vt 0.732374 0.188334
vt 0.768079 0.287356
vt 0.768367 0.286777
vt 0.770798 0.287246
vt 0.771573 0.288361
vt 0.660244 0.188304
vt 0.659205 0.188150
vt 0.659622 0.017277
vt 0.661049 0.017668
vt 0.767888 0.225796
vt 0.766444 0.227506
vt 0.764420 0.227512
vt 0.764478 0.227070
vt 0.572264 0.020036
vt 0.576002 0.017788
vt 0.575430 0.188426
vt 0.572008 0.189920
vt 0.728933 0.018197
vt 0.728907 0.188675
vt 0.837780 0.288322
vt 0.838580 0.287040
vt 0.841603 0.286326
vt 0.841664 0.286922
vt 0.661994 0.017246
vt 0.662211 0.188036
vt 0.835859 0.225004
vt 0.837044 0.225907
vt 0.833629 0.226221
vt 0.834839 0.225212
vt 0.639949 0.188616
vt 0.639414 0.018147
vt 0.644583 0.018872
vt 0.644493 0.188977
vt 0.768112 0.273599
vt 0.768440 0.272621
vt 0.771143 0.271529
vt 0.770827 0.273188
vt 0.838346 0.272570
vt 0.837883 0.271463
vt 0.841543 0.273158
vt 0.841150 0.272239
vt 0.645182 0.017852
vt 0.645196 0.188429
vt 0.833644 0.240395
vt 0.837155 0.240414
vt 0.837100 0.241627
vt 0.831981 0.243154
vt 0.768030 0.241723
vt 0.768556 0.242900
vt 0.763956 0.239789
vt 0.764155 0.243042
vt 0.569622 0.189198
vt 0.569189 0.019021
vt 0.557137 0.188406
vt 0.557045 0.017769
vt 0.570252 0.529546
vt 0.569991 0.359370
vt 0.571690 0.359798
vt 0.571268 0.529679
vt 0.557080 0.529666
vt 0.557163 0.359033
vt 0.732466 0.358759
vt 0.732621 0.359192
vt 0.732768 0.529826
vt 0.732657 0.529190
vt 0.728935 0.359145
vt 0.729052 0.529621
vt 0.662481 0.358833
vt 0.662846 0.529625
vt 0.659457 0.358948
vt 0.658756 0.529587
vt 0.658260 0.529909
vt 0.658762 0.359032
vt 0.645184 0.359012
vt 0.645115 0.529590
vt 0.644376 0.359089
vt 0.644202 0.529196
vt 0.640892 0.529561
vt 0.640452 0.359090
vt 0.574156 0.529695
vt 0.574825 0.359059
vn -0.927872 -0.003474 0.372882
vn -0.032996 -0.020754 0.999240
vn -0.026686 -0.001113 0.999643
vn -0.921942 0.000442 0.387328
vn -0.899233 0.001796 0.437466
vn -0.014200 0.017229 0.999751
vn -0.017303 0.999839 0.004768
vn -0.999657 0.008941 0.024608
vn -0.927473 0.001371 -0.373888
vn -0.051052 -0.000053 -0.998696
vn -0.050669 -0.019056 -0.998534
vn -0.942666 -0.003331 -0.333722
vn -0.999807 -0.008670 0.017623
vn -0.000573 -0.999749 0.022401
vn -0.032996 -0.020754 0.999240
vn -0.927872 -0.003474 0.372882
vn 0.822749 -0.007301 0.568358
vn 0.999835 -0.013177 0.012466
vn 0.999925 0.000507 0.012195
vn 0.803834 -0.000780 0.594853
vn -0.999807 -0.008670 0.017623
vn -0.927872 -0.003474 0.372882
vn -0.921942 0.000442 0.387328
vn -0.999813 0.000317 0.019350
vn -0.999908 0.008806 -0.010304
vn -0.017073 0.999846 -0.004125
vn -0.009287 0.022069 -0.999713
vn -0.887652 0.005271 -0.460484
vn -0.942666 -0.003331 -0.333722
vn -0.999996 -0.002774 0.000409
vn -0.999996 0.000334 -0.002711
vn -0.927473 0.001371 -0.373888
vn -0.942666 -0.003331 -0.333722
vn -0.050669 -0.019056 -0.998534
vn -0.043787 -0.999037 -0.002814
vn -0.999996 -0.002774 0.000409
vn 0.999838 0.000515 -0.017974
vn 0.999799 -0.013196 -0.015083
vn 0.886216 -0.005727 -0.463236
vn 0.901217 0.000061 -0.433369
vn -0.999657 0.008941 0.024608
vn -0.017303 0.999839 0.004768
vn -0.017073 0.999846 -0.004125
vn -0.999908 0.008806 -0.010304
vn -0.999996 -0.002774 0.000409
vn -0.999807 -0.008670 0.017623
vn -0.999813 0.000317 0.019350
vn -0.999996 0.000334 -0.002711
vn -0.999996 -0.002774 0.000409
vn -0.043787 -0.999037 -0.002814
vn -0.000573 -0.999749 0.022401
vn -0.999807 -0.008670 0.017623
vn 0.999925 0.000507 0.012195
vn 0.999835 -0.013177 0.012466
vn 0.999799 -0.013196 -0.015083
vn 0.999838 0.000515 -0.017974
vn 0.013672 0.014939 0.999795
vn 0.833425 0.006231 0.552598
vn 0.999912 0.009249 0.009537
vn 0.022320 0.999744 0.003720
vn 0.021701 0.999755 -0.004458
vn 0.022320 0.999744 0.003720
vn 0.999912 0.009249 0.009537
vn 0.999788 0.010158 -0.017900
vn 0.022664 0.020366 -0.999536
vn 0.021701 0.999755 -0.004458
vn 0.999788 0.010158 -0.017900
vn 0.897104 0.004703 -0.441795
vn 0.018582 -0.021314 -0.999600
vn 0.029709 -0.000155 -0.999559
vn 0.901217 0.000061 -0.433369
vn 0.886216 -0.005727 -0.463236
vn 0.054811 -0.998481 -0.005604
vn 0.018582 -0.021314 -0.999600
vn 0.886216 -0.005727 -0.463236
vn 0.999799 -0.013196 -0.015083
vn 0.056878 -0.998183 0.019909
vn 0.054811 -0.998481 -0.005604
vn 0.999799 -0.013196 -0.015083
vn 0.999835 -0.013177 0.012466
vn 0.000379 -0.020563 0.999789
vn 0.056878 -0.998183 0.019909
vn 0.999835 -0.013177 0.012466
vn 0.822749 -0.007301 0.568358
vn 0.008555 -0.001130 0.999963
vn 0.000379 -0.020563 0.999789
vn 0.822749 -0.007301 0.568358
vn 0.803834 -0.000780 0.594853
vn -0.014200 0.017229 0.999751
vn 0.013672 0.014939 0.999795
vn 0.022320 0.999744 0.003720
vn -0.017303 0.999839 0.004768
vn -0.017073 0.999846 -0.004125
vn -0.017303 0.999839 0.004768
vn 0.022320 0.999744 0.003720
vn 0.021701 0.999755 -0.004458
vn -0.009287 0.022069 -0.999713
vn -0.017073 0.999846 -0.004125
vn 0.021701 0.999755 -0.004458
vn 0.022664 0.020366 -0.999536
vn -0.050669 -0.019056 -0.998534
vn -0.051052 -0.000053 -0.998696
vn 0.029709 -0.000155 -0.999559
vn 0.018582 -0.021314 -0.999600
vn -0.043787 -0.999037 -0.002814
vn -0.050669 -0.019056 -0.998534
vn 0.018582 -0.021314 -0.999600
vn 0.054811 -0.998481 -0.005604
vn -0.000573 -0.999749 0.022401
vn -0.043787 -0.999037 -0.002814
vn 0.054811 -0.998481 -0.005604
vn 0.056878 -0.998183 0.019909
vn -0.032996 -0.020754 0.999240
vn -0.000573 -0.999749 0.022401
vn 0.056878 -0.998183 0.019909
vn 0.000379 -0.020563 0.999789
vn -0.026686 -0.001113 0.999643
vn -0.032996 -0.020754 0.999240
vn 0.000379 -0.020563 0.999789
vn 0.008555 -0.001130 0.999963
vn 0.013672 0.014939 0.999795
vn 0.010891 -0.001144 0.999940
vn 0.817365 -0.000848 0.576120
vn 0.833425 0.006231 0.552598
vn -0.014200 0.017229 0.999751
vn -0.012678 -0.001134 0.999919
vn 0.010891 -0.001144 0.999940
vn 0.013672 0.014939 0.999795
vn -0.910775 0.000375 0.412904
vn -0.012678 -0.001134 0.999919
vn -0.014200 0.017229 0.999751
vn -0.899233 0.001796 0.437466
vn -0.999715 0.000308 0.023873
vn -0.910775 0.000375 0.412904
vn -0.899233 0.001796 0.437466
vn -0.999657 0.008941 0.024608
vn -0.999968 0.000347 -0.007947
vn -0.999715 0.000308 0.023873
vn -0.999657 0.008941 0.024608
vn -0.999908 0.008806 -0.010304
vn -0.910855 0.001275 -0.412724
vn -0.999968 0.000347 -0.007947
vn -0.999908 0.008806 -0.010304
vn -0.887652 0.005271 -0.460484
vn -0.887652 0.005271 -0.460484
vn -0.009287 0.022069 -0.999713
vn -0.025233 -0.000120 -0.999682
vn -0.910855 0.001275 -0.412724
vn 0.029865 -0.000151 -0.999554
vn -0.025233 -0.000120 -0.999682
vn -0.009287 0.022069 -0.999713
vn 0.022664 0.020366 -0.999536
vn 0.904231 0.000106 -0.427043
vn 0.029865 -0.000151 -0.999554
vn 0.022664 0.020366 -0.999536
vn 0.897104 0.004703 -0.441795
vn 0.999788 0.010158 -0.017900
vn 0.999828 0.000523 -0.018528
vn 0.904231 0.000106 -0.427043
vn 0.897104 0.004703 -0.441795
vn 0.999912 0.009249 0.009537
vn 0.999947 0.000500 0.010281
vn 0.999828 0.000523 -0.018528
vn 0.999788 0.010158 -0.017900
vn 0.817365 -0.000848 0.576120
vn 0.999947 0.000500 0.010281
vn 0.999912 0.009249 0.009537
vn 0.833425 0.006231 0.552598
vn 0.010891 -0.001144 0.999940
vn 0.008555 -0.001130 0.999963
vn 0.803834 -0.000780 0.594853
vn 0.817365 -0.000848 0.576120
vn -0.012678 -0.001134 0.999919
vn -0.026686 -0.001113 0.999643
vn 0.008555 -0.001130 0.999963
vn 0.010891 -0.001144 0.999940
vn -0.921942 0.000442 0.387328
vn -0.026686 -0.001113 0.999643
vn -0.012678 -0.001134 0.999919
vn -0.910775 0.000375 0.412904
vn -0.999813 0.000317 0.019350
vn -0.921942 0.000442 0.387328
vn -0.910775 0.000375 0.412904
vn -0.999715 0.000308 0.023873
vn -0.999996 0.000334 -0.002711
vn -0.999813 0.000317 0.019350
vn -0.999715 0.000308 0.023873
vn -0.999968 0.000347 -0.007947
vn -0.927473 0.001371 -0.373888
vn -0.999996 0.000334 -0.002711
vn -0.999968 0.000347 -0.007947
vn -0.910855 0.001275 -0.412724
vn -0.910855 0.001275 -0.412724
vn -0.025233 -0.000120 -0.999682
vn -0.051052 -0.000053 -0.998696
vn -0.927473 0.001371 -0.373888
vn 0.029709 -0.000155 -0.999559
vn -0.051052 -0.000053 -0.998696
vn -0.025233 -0.000120 -0.999682
vn 0.029865 -0.000151 -0.999554
vn 0.901217 0.000061 -0.433369
vn 0.029709 -0.000155 -0.999559
vn 0.029865 -0.000151 -0.999554
vn 0.904231 0.000106 -0.427043
vn 0.999828 0.000523 -0.018528
vn 0.999838 0.000515 -0.017974
vn 0.901217 0.000061 -0.433369
vn 0.904231 0.000106 -0.427043
vn 0.999947 0.000500 0.010281
vn 0.999925 0.000507 0.012195
vn 0.999838 0.000515 -0.017974
vn 0.999828 0.000523 -0.018528
vn 0.803834 -0.000780 0.594853
vn 0.999925 0.000507 0.012195
vn 0.999947 0.000500 0.010281
vn 0.817365 -0.000848 0.576120
s off
g polySurface2 Lo2:RoadKillOut
usemtl initialShadingGroup
f 1/1/1 32/2/2 47/3/3 48/4/4
f 3/5/5 25/6/6 26/7/7 14/8/8
f 51/9/9 52/10/10 29/11/11 7/12/12
f 15/13/13 31/14/14 32/15/15 1/16/16
f 2/17/17 16/18/18 56/19/19 45/20/20
f 15/21/21 1/1/22 48/4/23 49/22/24
f 10/23/25 27/24/26 28/25/27 5/26/28
f 7/12/29 11/27/30 50/28/31 51/9/32
f 7/29/33 29/30/34 30/31/35 11/32/36
f 55/33/37 12/34/38 8/35/39 54/36/40
f 14/8/41 26/7/42 27/24/43 10/23/44
f 11/27/45 15/21/46 49/22/47 50/28/48
f 11/32/49 30/31/50 31/14/51 15/13/52
f 56/19/53 16/18/54 12/34/55 55/33/56
f 17/37/57 4/38/58 13/39/59 18/40/60
f 19/41/61 18/40/62 13/39/63 9/42/64
f 20/43/65 19/41/66 9/42/67 6/44/68
f 21/45/69 53/46/70 54/36/71 8/35/72
f 22/47/73 21/48/74 8/49/75 12/50/76
f 23/51/77 22/47/78 12/50/79 16/52/80
f 24/53/81 23/51/82 16/52/83 2/54/84
f 46/55/85 24/56/86 2/17/87 45/20/88
f 25/6/89 17/37/90 18/40/91 26/7/92
f 27/24/93 26/7/94 18/40/95 19/41/96
f 28/25/97 27/24/98 19/41/99 20/43/100
f 29/11/101 52/10/102 53/46/103 21/45/104
f 30/31/105 29/30/106 21/48/107 22/47/108
f 31/14/109 30/31/110 22/47/111 23/51/112
f 32/15/113 31/14/114 23/51/115 24/53/116
f 47/57/117 32/58/118 24/56/119 46/55/120
f 17/59/121 34/60/122 33/61/123 4/62/124
f 25/63/125 35/64/126 34/60/127 17/59/128
f 36/65/129 35/66/130 25/67/131 3/68/132
f 37/69/133 36/65/134 3/68/135 14/70/136
f 38/71/137 37/69/138 14/70/139 10/72/140
f 39/73/141 38/71/142 10/72/143 5/74/144
f 5/74/145 28/75/146 40/76/147 39/73/148
f 41/77/149 40/76/150 28/75/151 20/78/152
f 42/79/153 41/77/154 20/78/155 6/80/156
f 9/81/157 43/82/158 42/79/159 6/80/160
f 13/83/161 44/84/162 43/82/163 9/81/164
f 33/61/165 44/84/166 13/83/167 4/62/168
f 34/60/169 46/55/170 45/20/171 33/61/172
f 35/64/173 47/57/174 46/55/175 34/60/176
f 48/4/177 47/3/178 35/66/179 36/65/180
f 49/22/181 48/4/182 36/65/183 37/69/184
f 50/28/185 49/22/186 37/69/187 38/71/188
f 51/9/189 50/28/190 38/71/191 39/73/192
f 39/73/193 40/76/194 52/10/195 51/9/196
f 53/46/197 52/10/198 40/76/199 41/77/200
f 54/36/201 53/46/202 41/77/203 42/79/204
f 43/82/205 55/33/206 54/36/207 42/79/208
f 44/84/209 56/19/210 55/33/211 43/82/212
f 45/20/213 56/19/214 44/84/215 33/61/216
